<svg width="230" height="38" viewBox="0 0 230 38" fill="none" xmlns="http://www.w3.org/2000/svg">
<g clip-path="url(#clip0_36_8)">
<path d="M19 37.5C29.2173 37.5 37.5 29.2173 37.5 19C37.5 8.78273 29.2173 0.5 19 0.5C8.78273 0.5 0.5 8.78273 0.5 19C0.5 29.2173 8.78273 37.5 19 37.5Z" fill="#22574A" stroke="#FFFFB6"/>
<path d="M67 37.5C77.2173 37.5 85.5 29.2173 85.5 19C85.5 8.78273 77.2173 0.5 67 0.5C56.7827 0.5 48.5 8.78273 48.5 19C48.5 29.2173 56.7827 37.5 67 37.5Z" fill="#22574A" stroke="#FFFFB6"/>
<path d="M115 37.5C125.217 37.5 133.5 29.2173 133.5 19C133.5 8.78273 125.217 0.5 115 0.5C104.783 0.5 96.5 8.78273 96.5 19C96.5 29.2173 104.783 37.5 115 37.5Z" fill="#22574A" stroke="#FFFFB6"/>
<path d="M163 37.5C173.217 37.5 181.5 29.2173 181.5 19C181.5 8.78273 173.217 0.5 163 0.5C152.783 0.5 144.5 8.78273 144.5 19C144.5 29.2173 152.783 37.5 163 37.5Z" fill="#22574A" stroke="#FFFFB6"/>
<path d="M211 37.5C221.217 37.5 229.5 29.2173 229.5 19C229.5 8.78273 221.217 0.5 211 0.5C200.783 0.5 192.5 8.78273 192.5 19C192.5 29.2173 200.783 37.5 211 37.5Z" fill="#22574A" stroke="#FFFFB6"/>
</g>
<defs>
<clipPath id="clip0_36_8">
<rect width="230" height="38" fill="white"/>
</clipPath>
</defs>
</svg>
