<?xml version="1.0" encoding="UTF-8"?>
<svg id="Capa_1" data-name="Capa 1" xmlns="http://www.w3.org/2000/svg" viewBox="0 0 260 200">
  <defs>
    <style>
      .cls-1 {
        fill: #22574a;
      }
    </style>
  </defs>
  <path class="cls-1" d="m222.95,103.72v-19.24c0-23.87-24.32-82-93.95-82S37.05,60.61,37.05,84.48v19.24c-11.18,4.62-20.33,11.7-25.92,21.89-5.59,10.19-7.27,21.87-4.78,33.09,2.5,11.22,9.03,20.29,18.5,27.53,9.47,7.24,21.3,11.21,33.52,11.24,5.66,0,11.08-2.11,15.08-5.86,4-3.75,6.25-8.84,6.25-14.14v-58c0-5.3-2.25-10.39-6.25-14.14-4-3.75-9.42-5.86-15.08-5.86v-15c0-18.57,18.38-62,70.63-62s72.63,43.43,72.63,62v15c-5.65,0-11.08,2.11-15.08,5.86-4,3.75-6.24,8.84-6.24,14.14v58h-32.98c-2.83,0-5.54,1.05-7.54,2.93-2,1.88-3.12,4.42-3.12,7.07s1.12,5.2,3.12,7.07c2,1.88,4.71,2.93,7.54,2.93h54.31c12.22-.03,24.05-4,33.52-11.24,9.47-7.24,16-16.31,18.5-27.53,2.5-11.22.81-22.9-4.78-33.09-5.59-10.19-14.74-17.27-25.92-21.89ZM58.37,177.48c-8.48,0-16.62-3.16-22.62-8.79-6-5.63-9.37-12.26-9.37-20.21s3.37-15.59,9.37-21.21c6-5.63,14.13-7.79,22.62-7.79v58Zm143.26,0v-58c8.48,0,16.62,2.16,22.62,7.79,6,5.63,9.37,13.26,9.37,21.21s-3.37,14.59-9.37,20.21c-6,5.63-14.13,8.79-22.62,8.79Z"/>
</svg>