<svg width="512" height="428" viewBox="0 0 512 428" fill="none" xmlns="http://www.w3.org/2000/svg">
<path d="M448 223.045V192.667C448 141.745 427.771 92.9092 391.764 56.9022C355.757 20.8952 306.922 0.666687 256 0.666687C205.078 0.666687 156.242 20.8952 120.235 56.9022C84.2285 92.9092 64 141.745 64 192.667V223.045C41.6247 232.898 23.313 250.138 12.1306 271.879C0.948073 293.62 -2.42647 318.543 2.57186 342.475C7.57019 366.407 20.638 387.895 39.5876 403.343C58.5372 418.791 82.2184 427.26 106.667 427.333C117.983 427.333 128.835 422.838 136.837 414.837C144.838 406.835 149.333 395.983 149.333 384.667V256.667C149.333 245.351 144.838 234.498 136.837 226.497C128.835 218.495 117.983 214 106.667 214V192.667C106.667 153.061 122.4 115.077 150.405 87.0721C178.411 59.0666 216.394 43.3333 256 43.3333C295.606 43.3333 333.589 59.0666 361.595 87.0721C389.6 115.077 405.333 153.061 405.333 192.667V214C394.017 214 383.165 218.495 375.163 226.497C367.162 234.498 362.667 245.351 362.667 256.667V384.667H298.667C293.009 384.667 287.582 386.914 283.582 390.915C279.581 394.916 277.333 400.342 277.333 406C277.333 411.658 279.581 417.084 283.582 421.085C287.582 425.086 293.009 427.333 298.667 427.333H405.333C429.782 427.26 453.463 418.791 472.412 403.343C491.362 387.895 504.43 366.407 509.428 342.475C514.426 318.543 511.052 293.62 499.869 271.879C488.687 250.138 470.375 232.898 448 223.045ZM106.667 384.667C89.6928 384.667 73.4141 377.924 61.4118 365.922C49.4095 353.919 42.6666 337.641 42.6666 320.667C42.6666 303.693 49.4095 287.414 61.4118 275.412C73.4141 263.41 89.6928 256.667 106.667 256.667V384.667ZM405.333 384.667V256.667C422.307 256.667 438.586 263.41 450.588 275.412C462.59 287.414 469.333 303.693 469.333 320.667C469.333 337.641 462.59 353.919 450.588 365.922C438.586 377.924 422.307 384.667 405.333 384.667Z" fill="#22574A"/>
</svg>
