<?xml version="1.0" encoding="UTF-8"?>
<svg id="Capa_1" data-name="Capa 1" xmlns="http://www.w3.org/2000/svg" viewBox="0 0 270 200">
  <defs>
    <style>
      .cls-1 {
        fill: #22574a;
      }
    </style>
  </defs>
  <path class="cls-1" d="m256.62,178.89c0,5.69-4.63,10.31-10.31,10.31H26.81c-5.69,0-10.32-4.62-10.32-10.31s4.63-10.31,10.32-10.31h219.5c5.68,0,10.31,4.62,10.31,10.31Z"/>
  <path class="cls-1" d="m263.99,94.71c-5.32-19.85-21.7-35.54-30.76-40.76-8.31-4.78-19.92-7.53-31.85-7.53-5.99,0-11.85.73-16.94,2.11l-11.91,3.17L118.52,14.76c-2.36-1.98-5.17-3.45-8.14-4.24-1.77-.48-3.61-.71-5.46-.71-1.53,0-3.04.16-4.52.49h-.06s-.05.02-.05.02l-25.18,6.69c-6.66,1.78-11.58,6.53-13.48,13.02-2.1,7.14-.08,15.22,5.25,21.07l20.39,22.44-6.7,1.79-49.6-8.29-.24-.04c-1-.14-1.98-.2-2.96-.2-3.11,0-6.11.66-8.94,1.98-3.71,1.74-6.82,4.5-8.97,7.98-2.17,3.48-3.27,7.48-3.17,11.58.08,4.09,1.35,8.05,3.65,11.44l.03.04.03.04,25.65,34.51c4.74,7.56,11.89,13.57,20.16,16.92,5.1,2.07,10.5,3.11,16.07,3.11,3.62,0,7.22-.46,10.7-1.35l174.1-45.8c5.29-1.39,8.44-6.82,7.03-12.11l-.11-.42Zm-200.05,37.46c-4.36-1.77-8.12-4.96-10.56-8.98l-.19-.31-.06-.09-.07-.1-25.72-34.6c-.03-.06-.05-.12-.05-.19,0-.09.02-.18.07-.25.05-.08.12-.14.2-.18.07-.03.13-.05.2-.05h.02l53.24,8.9.54.09.54-.14,39.16-10.43,4.04-1.08-2.81-3.09-40.36-44.44c-.19-.21-.34-.43-.45-.63l23.22-6.18h.02c.05,0,.09.01.13.02.07.02.14.06.2.1l.4.37.13.12.14.1,61.79,42.28.97.66,1.13-.3,19.97-5.33c3.5-.95,7.38-1.42,11.55-1.42,8.06,0,16.53,1.88,21.61,4.8,5,2.88,12.31,10.14,17.09,18.58l-162.27,42.69c-1.77.46-3.63.69-5.5.69-2.85,0-5.72-.56-8.32-1.61Z"/>
</svg>