<svg width="512" height="512" viewBox="0 0 512 512" fill="none" xmlns="http://www.w3.org/2000/svg">
<g clip-path="url(#clip0_42_1267)">
<path d="M228.032 512C218.931 511.996 209.961 509.827 201.864 505.67C193.767 501.513 186.776 495.488 181.469 488.095C176.162 480.701 172.691 472.15 171.343 463.149C169.995 454.148 170.809 444.955 173.717 436.331L215.104 320H131.371L108.331 355.115C102.515 364.001 94.5744 371.296 85.2283 376.34C75.8822 381.384 65.4255 384.017 54.8053 384C46.0329 383.998 37.3904 381.88 29.6113 377.826C21.8323 373.771 15.1463 367.899 10.121 360.709C5.09572 353.518 1.87941 345.222 0.745096 336.523C-0.389219 327.824 0.59195 318.98 3.60532 310.741L23.4667 256L3.39199 201.387C0.371406 193.162 -0.622077 184.331 0.495726 175.641C1.61353 166.951 4.80967 158.659 9.81332 151.467C15.7578 143.872 23.4465 137.822 32.2271 133.832C41.0078 129.842 50.6213 128.029 60.2522 128.546C69.8831 129.063 79.2472 131.895 87.5501 136.803C95.8529 141.71 102.85 148.548 107.947 156.736L131.307 192H215.104L173.803 76.0107C170.846 67.3436 169.999 58.0964 171.331 49.0363C172.662 39.9761 176.135 31.3642 181.461 23.9147C187.806 15.8571 196.064 9.51386 205.485 5.46218C214.907 1.41049 225.191 -0.221038 235.404 0.716052C245.617 1.65314 255.433 5.1291 263.959 10.8276C272.486 16.5262 279.452 24.2664 284.224 33.344L375.04 192H445.717C461.146 191.806 476.153 197.041 488.113 206.79C500.073 216.539 508.226 230.182 511.147 245.333C512.698 254.514 512.228 263.923 509.769 272.903C507.31 281.883 502.922 290.219 496.909 297.328C490.897 304.437 483.406 310.149 474.958 314.065C466.511 317.981 457.311 320.006 448 320H375.04L284.011 479.019C278.492 489.029 270.385 497.371 260.537 503.174C250.689 508.976 239.462 512.024 228.032 512ZM119.851 277.333H245.333C248.739 277.363 252.089 278.202 255.106 279.782C258.123 281.362 260.72 283.638 262.684 286.421C264.647 289.203 265.92 292.413 266.398 295.785C266.875 299.158 266.543 302.595 265.429 305.813L214.016 450.304C213.329 452.471 213.164 454.77 213.535 457.013C213.906 459.256 214.802 461.38 216.149 463.211C218.301 465.343 220.927 466.935 223.812 467.858C226.697 468.781 229.759 469.009 232.749 468.522C235.738 468.035 238.57 466.848 241.013 465.057C243.456 463.266 245.441 460.923 246.805 458.219L344.149 288C346.025 284.751 348.725 282.054 351.976 280.181C355.227 278.308 358.915 277.326 362.667 277.333H448C451.118 277.335 454.199 276.652 457.025 275.334C459.852 274.016 462.355 272.095 464.358 269.705C466.361 267.315 467.816 264.515 468.621 261.502C469.425 258.49 469.559 255.337 469.013 252.267C467.75 247.1 464.742 242.527 460.498 239.32C456.254 236.114 451.033 234.47 445.717 234.667H362.667C358.915 234.674 355.227 233.692 351.976 231.819C348.725 229.946 346.025 227.249 344.149 224L246.976 54.1653C245.68 51.3722 243.727 48.9344 241.284 47.0602C238.841 45.186 235.981 43.9311 232.948 43.4028C229.914 42.8746 226.798 43.0886 223.865 44.0266C220.932 44.9646 218.27 46.5987 216.107 48.7893C214.742 50.6786 213.85 52.8673 213.505 55.1722C213.159 57.4771 213.371 59.8312 214.123 62.0373L265.323 206.187C266.434 209.397 266.767 212.825 266.295 216.188C265.824 219.552 264.56 222.756 262.608 225.537C260.657 228.317 258.073 230.594 255.07 232.182C252.067 233.769 248.73 234.621 245.333 234.667H119.851C116.326 234.667 112.857 233.795 109.752 232.127C106.647 230.459 104.004 228.048 102.059 225.109L72.3413 180.309C67.4773 171.328 50.2827 166.72 44.8213 175.829C43.7058 177.386 42.995 179.195 42.753 181.094C42.5109 182.993 42.7452 184.923 43.4347 186.709L66.304 248.704C68.0504 253.455 68.0504 258.673 66.304 263.424L43.5627 325.504C42.9286 327.29 42.7318 329.202 42.9887 331.08C43.2457 332.958 43.9488 334.747 45.0394 336.297C46.1299 337.847 47.576 339.113 49.2566 339.99C50.9372 340.866 52.8033 341.327 54.6987 341.333C58.2416 341.335 61.7292 340.455 64.8466 338.771C67.9641 337.088 70.6131 334.654 72.5547 331.691L101.909 286.891C103.869 283.931 106.536 281.507 109.668 279.838C112.801 278.169 116.301 277.308 119.851 277.333Z" fill="#22574A"/>
</g>
<defs>
<clipPath id="clip0_42_1267">
<rect width="512" height="512" fill="white"/>
</clipPath>
</defs>
</svg>
