<?xml version="1.0" encoding="utf-8"?>
<!-- Generator: Adobe Illustrator 27.1.0, SVG Export Plug-In . SVG Version: 6.00 Build 0)  -->
<svg version="1.1" id="Capa_1" xmlns="http://www.w3.org/2000/svg" xmlns:xlink="http://www.w3.org/1999/xlink" x="0px" y="0px"
	 viewBox="0 0 230 38" style="enable-background:new 0 0 230 38;" xml:space="preserve">
<style type="text/css">
	.st0{clip-path:url(#SVGID_00000125592765437354881280000010519625766733588925_);}
	.st1{fill:#22574A;stroke:#FFFFFF;}
	.st2{opacity:0.5;fill:#FFFFB6;stroke:#FFFFFF;enable-background:new    ;}
</style>
<g>
	<g>
		<defs>
			<rect id="SVGID_1_" width="230" height="38"/>
		</defs>
		<clipPath id="SVGID_00000061473743476296732950000011836899769579449260_">
			<use xlink:href="#SVGID_1_"  style="overflow:visible;"/>
		</clipPath>
		<g style="clip-path:url(#SVGID_00000061473743476296732950000011836899769579449260_);">
			<path class="st1" d="M19,37.5c10.2,0,18.5-8.3,18.5-18.5S29.2,0.5,19,0.5S0.5,8.8,0.5,19S8.8,37.5,19,37.5z"/>
			<path class="st1" d="M67,37.5c10.2,0,18.5-8.3,18.5-18.5S77.2,0.5,67,0.5S48.5,8.8,48.5,19S56.8,37.5,67,37.5z"/>
			<path class="st1" d="M115,37.5c10.2,0,18.5-8.3,18.5-18.5S125.2,0.5,115,0.5S96.5,8.8,96.5,19S104.8,37.5,115,37.5z"/>
			<path class="st2" d="M163,37.5c10.2,0,18.5-8.3,18.5-18.5S173.2,0.5,163,0.5S144.5,8.8,144.5,19S152.8,37.5,163,37.5z"/>
			<path class="st2" d="M211,37.5c10.2,0,18.5-8.3,18.5-18.5S221.2,0.5,211,0.5S192.5,8.8,192.5,19S200.8,37.5,211,37.5z"/>
		</g>
	</g>
</g>
</svg>
