<?xml version="1.0" encoding="utf-8"?>
<!-- Generator: Adobe Illustrator 27.1.0, SVG Export Plug-In . SVG Version: 6.00 Build 0)  -->
<svg version="1.1" id="Capa_1" xmlns="http://www.w3.org/2000/svg" xmlns:xlink="http://www.w3.org/1999/xlink" x="0px" y="0px"
	 viewBox="0 0 230 38" style="enable-background:new 0 0 230 38;" xml:space="preserve">
<style type="text/css">
	.st0{clip-path:url(#SVGID_00000151511755442879798300000017372565349054097031_);}
	.st1{fill:#22574A;stroke:#FFFFFF;}
</style>
<g>
	<defs>
		<rect id="SVGID_1_" width="230" height="38"/>
	</defs>
	<clipPath id="SVGID_00000131340830839880916880000000852246368801046678_">
		<use xlink:href="#SVGID_1_"  style="overflow:visible;"/>
	</clipPath>
	<g style="clip-path:url(#SVGID_00000131340830839880916880000000852246368801046678_);">
		<path class="st1" d="M19,37.5c10.22,0,18.5-8.28,18.5-18.5C37.5,8.78,29.22,0.5,19,0.5C8.78,0.5,0.5,8.78,0.5,19
			C0.5,29.22,8.78,37.5,19,37.5z"/>
		<path class="st1" d="M67,37.5c10.22,0,18.5-8.28,18.5-18.5C85.5,8.78,77.22,0.5,67,0.5S48.5,8.78,48.5,19
			C48.5,29.22,56.78,37.5,67,37.5z"/>
		<path class="st1" d="M115,37.5c10.22,0,18.5-8.28,18.5-18.5c0-10.22-8.28-18.5-18.5-18.5S96.5,8.78,96.5,19
			C96.5,29.22,104.78,37.5,115,37.5z"/>
		<path class="st1" d="M163,37.5c10.22,0,18.5-8.28,18.5-18.5c0-10.22-8.28-18.5-18.5-18.5S144.5,8.78,144.5,19
			C144.5,29.22,152.78,37.5,163,37.5z"/>
		<path class="st1" d="M211,37.5c10.22,0,18.5-8.28,18.5-18.5c0-10.22-8.28-18.5-18.5-18.5S192.5,8.78,192.5,19
			C192.5,29.22,200.78,37.5,211,37.5z"/>
	</g>
</g>
</svg>
