<?xml version="1.0" encoding="utf-8"?>
<!-- Generator: Adobe Illustrator 27.1.0, SVG Export Plug-In . SVG Version: 6.00 Build 0)  -->
<svg version="1.1" id="Capa_1" xmlns="http://www.w3.org/2000/svg" xmlns:xlink="http://www.w3.org/1999/xlink" x="0px" y="0px"
	 viewBox="0 0 200 200" style="enable-background:new 0 0 200 200;" xml:space="preserve">
<style type="text/css">
	.st0{fill:#22574A;}
</style>
<g>
	<path class="st0" d="M80.03,84.18c0-7.82-6.06-9.68-12.78-9.68h-17.5v19.8h18.87C75.29,94.3,80.03,91.38,80.03,84.18z"/>
	<path class="st0" d="M138.49,94.43c-8.09,0-13.48,5.04-14.01,13.13h27.49C151.22,99.38,146.98,94.43,138.49,94.43z"/>
	<path class="st0" d="M70.04,108.4H49.71v23.38h19.93c7.61,0,13.79-2.7,13.79-11.23C83.43,111.85,78.25,108.44,70.04,108.4z"/>
	<path class="st0" d="M163.94,7.67H36.06C16.67,7.67,1,23.35,1,42.74v122.93c0,19.39,15.67,35.06,35.06,35.06h127.88
		c19.39,0,35.06-15.67,35.06-35.06V42.74C199,23.35,183.32,7.67,163.94,7.67z M121.08,64.47h34.39v8.35h-34.39L121.08,64.47
		L121.08,64.47z M72.2,146.27H31.05V61.41h40c14.54,0,27.13,4.11,27.13,20.99c0,8.53-3.98,12.73-11.58,16.35
		c10.43,2.96,15.47,12.16,15.47,22.81C102.08,138.81,87.62,146.18,72.2,146.27z M168.81,118.21h-44.29c0,9.81,5.17,15.6,15.07,15.6
		c5.12,0,11.71-2.74,13.35-8h14.89c-4.6,14.1-14.1,20.68-28.77,20.68c-19.35,0-31.42-13.13-31.42-32.27
		c0-18.47,12.69-32.52,31.42-32.52c19.22,0,29.87,15.16,29.87,33.32C168.95,116.09,168.85,117.19,168.81,118.21z"/>
</g>
</svg>
