<?xml version="1.0" encoding="UTF-8"?>
<svg id="Capa_1" data-name="Capa 1" xmlns="http://www.w3.org/2000/svg" viewBox="0 0 260 200">
  <defs>
    <style>
      .cls-1 {
        fill: #22574a;
      }
    </style>
  </defs>
  <path class="cls-1" d="m156.22,30.17l19.83,20.69h55.95v117.95H28V50.86h55.95l19.83-20.69h52.44Zm9.62-21.67h-71.69l-19.88,21.67H28.72c-11.95,0-21.72,9.75-21.72,21.67v116c0,11.92,9.78,21.67,21.72,21.67h202.55c11.95,0,21.72-9.75,21.72-21.67V51.83c0-11.92-9.78-21.67-21.72-21.67h-45.56l-19.88-21.67Zm-35.84,64.83c17.92,0,32.58,14.62,32.58,32.5s-14.66,32.5-32.58,32.5-32.58-14.62-32.58-32.5,14.66-32.5,32.58-32.5Zm0-21.67c-29.98,0-54.31,24.27-54.31,54.17s24.33,54.17,54.31,54.17,54.31-24.27,54.31-54.17-24.33-54.17-54.31-54.17Z"/>
</svg>