<svg width="512" height="470" viewBox="0 0 512 470" fill="none" xmlns="http://www.w3.org/2000/svg">
<path d="M106.667 469.667C85.57 469.667 64.9471 463.411 47.4058 451.69C29.8646 439.969 16.1929 423.31 8.11951 403.82C0.0461617 384.329 -2.06619 362.882 2.04956 342.19C6.16532 321.499 16.3243 302.493 31.2419 287.575C46.1595 272.658 65.1657 262.499 85.857 258.383C106.548 254.267 127.995 256.379 147.486 264.453C166.977 272.526 183.636 286.198 195.357 303.739C207.077 321.28 213.333 341.903 213.333 363C213.299 391.279 202.051 418.391 182.054 438.387C162.057 458.384 134.946 469.633 106.667 469.667ZM106.667 299C94.0087 299 81.6349 302.754 71.1102 309.786C60.5854 316.818 52.3824 326.814 47.5384 338.508C42.6944 350.203 41.4269 363.071 43.8964 375.486C46.3659 387.901 52.4613 399.304 61.4118 408.255C70.3624 417.205 81.7661 423.301 94.1809 425.77C106.596 428.24 119.464 426.972 131.158 422.128C142.853 417.284 152.848 409.081 159.881 398.556C166.913 388.032 170.667 375.658 170.667 363C170.667 346.026 163.924 329.747 151.921 317.745C139.919 305.743 123.641 299 106.667 299ZM405.333 469.667C384.237 469.667 363.614 463.411 346.073 451.69C328.531 439.969 314.86 423.31 306.786 403.82C298.713 384.329 296.6 362.882 300.716 342.19C304.832 321.499 314.991 302.493 329.909 287.575C344.826 272.658 363.832 262.499 384.524 258.383C405.215 254.267 426.662 256.379 446.153 264.453C465.644 272.526 482.303 286.198 494.023 303.739C505.744 321.28 512 341.903 512 363C511.966 391.279 500.717 418.391 480.721 438.387C460.724 458.384 433.613 469.633 405.333 469.667ZM405.333 299C392.675 299 380.302 302.754 369.777 309.786C359.252 316.818 351.049 326.814 346.205 338.508C341.361 350.203 340.094 363.071 342.563 375.486C345.033 387.901 351.128 399.304 360.078 408.255C369.029 417.205 380.433 423.301 392.848 425.77C405.262 428.24 418.131 426.972 429.825 422.128C441.52 417.284 451.515 409.081 458.547 398.556C465.58 388.032 469.333 375.658 469.333 363C469.333 346.026 462.591 329.747 450.588 317.745C438.586 305.743 422.307 299 405.333 299ZM277.333 267.853L221.12 219.576C218.817 217.622 216.962 215.195 215.681 212.46C214.4 209.724 213.723 206.745 213.696 203.725C213.598 200.94 214.066 198.164 215.07 195.564C216.075 192.965 217.596 190.596 219.541 188.6L261.419 155.235C265.638 151.448 271.179 149.477 276.842 149.749C282.504 150.02 287.832 152.513 291.669 156.685L353.216 213.667H426.667V171H369.92L321.344 126.029C309.963 114.334 294.515 107.471 278.207 106.868C261.899 106.264 245.985 111.965 233.771 122.787L191.872 156.067C185.184 162.174 179.868 169.631 176.276 177.945C172.684 186.259 170.897 195.241 171.034 204.297C171.171 213.353 173.229 222.277 177.071 230.478C180.913 238.68 186.453 245.973 193.323 251.875L234.667 287.459V384.333H277.333V267.853ZM352 0.333313C341.452 0.333313 331.14 3.46126 322.37 9.3216C313.599 15.1819 306.763 23.5115 302.726 33.2569C298.69 43.0023 297.634 53.7258 299.691 64.0715C301.749 74.4171 306.829 83.9202 314.288 91.379C321.746 98.8378 331.25 103.917 341.595 105.975C351.941 108.033 362.664 106.977 372.41 102.94C382.155 98.9036 390.485 92.0677 396.345 83.2971C402.205 74.5264 405.333 64.215 405.333 53.6666C405.333 39.5218 399.714 25.9562 389.712 15.9543C379.71 5.95234 366.145 0.333313 352 0.333313Z" fill="#22574A"/>
</svg>
