<svg width="81" height="42" viewBox="0 0 81 42" fill="none" xmlns="http://www.w3.org/2000/svg">
<path fill-rule="evenodd" clip-rule="evenodd" d="M66.6505 41.2076C63.9784 41.2076 61.6297 40.6765 59.604 39.6139C57.5784 38.5136 56.0054 37.0717 54.8849 35.2883C53.7643 33.4669 53.2041 31.4749 53.2041 29.312V25.7833L53.1394 10.9846C53.1394 10.3016 52.9455 9.67555 52.5576 9.10639C52.2128 8.53722 51.7172 8.08188 51.0707 7.74038C50.4243 7.39888 49.7131 7.22813 48.9374 7.22813C48.1616 7.22813 47.4505 7.39888 46.8041 7.74038C46.4107 7.94816 46.0652 8.19809 45.7676 8.49015C45.6041 8.66253 45.4539 8.84906 45.3172 9.04974C44.9293 9.61891 44.7354 10.245 44.7354 10.928L44.6707 17.815L44.6707 29.3118C44.6707 31.6264 44.0673 33.6754 42.8606 35.4588C41.697 37.2422 40.1024 38.646 38.0768 39.6705C36.0511 40.695 33.7455 41.2073 31.1596 41.2073C28.6168 41.2073 26.3111 40.695 24.2424 39.6705C22.2168 38.646 20.6222 37.2422 19.4586 35.4588C18.2949 33.6754 17.7131 31.6264 17.7131 29.3118V10.9846C17.7131 10.3016 17.5192 9.67555 17.1313 9.10639C16.7434 8.53722 16.2263 8.08188 15.5798 7.74038C14.9333 7.39888 14.2222 7.22813 13.4465 7.22813C12.6707 7.22813 11.9596 7.39888 11.3131 7.74038C10.7098 8.08188 10.2141 8.53722 9.82626 9.10639C9.43838 9.67555 9.24444 10.3016 9.24444 10.9846V40.5812H0V11.9522C0 9.75144 0.560269 7.75934 1.68081 5.97596C2.80135 4.19257 4.37441 2.76965 6.4 1.70721C8.42559 0.606819 10.7744 0.0566254 13.4465 0.0566254C16.1616 0.0566254 18.5319 0.606819 20.5576 1.70721C22.5832 2.76965 24.1562 4.19257 25.2768 5.97596C26.3973 7.75934 26.9576 9.75144 26.9576 11.9522V30.2794C26.9576 30.9624 27.1515 31.5885 27.5394 32.1576C27.9273 32.7268 28.4229 33.1821 29.0263 33.5236C29.6727 33.8651 30.3838 34.0359 31.1596 34.0359C31.9354 34.0359 32.6465 33.8651 33.2929 33.5236C33.9394 33.1821 34.4566 32.7268 34.8444 32.1576C35.2323 31.5885 35.4263 30.9624 35.4263 30.2794V11.9522C35.4263 9.75144 35.9865 7.75934 37.1071 5.97596C37.7082 5.01925 38.4396 4.16627 39.3012 3.41703C40.0614 2.7462 40.9247 2.15738 41.8909 1.65059C43.9166 0.550196 46.2653 0 48.9374 0C51.6525 0 54.0229 0.550196 56.0485 1.65059C58.0741 2.71303 59.6471 4.13595 60.7677 5.91933C61.8883 7.70272 62.4485 9.6948 62.4485 11.8955V30.2796C62.4485 30.9626 62.6424 31.5887 63.0303 32.1579C63.4182 32.727 63.9138 33.1824 64.5172 33.5239C65.1636 33.8654 65.8748 34.0361 66.6505 34.0361C67.4263 34.0361 68.1374 33.8654 68.7838 33.5239C69.4303 33.1824 69.9475 32.727 70.3354 32.1579C70.7232 31.5887 70.9172 30.9626 70.9172 30.2796V0.682999H80.1616V29.312C80.1616 31.4749 79.6014 33.4669 78.4808 35.2883C77.3602 37.0717 75.7873 38.5136 73.7616 39.6139C71.736 40.6765 69.3657 41.2076 66.6505 41.2076Z" fill="#FFFFB6"/>
</svg>
