<?xml version="1.0" encoding="utf-8"?>
<!-- Generator: Adobe Illustrator 27.1.0, SVG Export Plug-In . SVG Version: 6.00 Build 0)  -->
<svg version="1.1" xmlns="http://www.w3.org/2000/svg" xmlns:xlink="http://www.w3.org/1999/xlink" x="0px" y="0px"
	 viewBox="0 0 600 700" style="enable-background:new 0 0 600 700;" xml:space="preserve">
<style type="text/css">
	.st0{fill:#E2CAF5;}
	.st1{fill:url(#);}
	.st2{fill:#37261C;}
	.st3{display:none;}
	.st4{display:inline;fill:#211711;}
	.st5{display:inline;fill:#D0AD91;}
	.st6{display:inline;fill:#171310;}
	.st7{display:inline;}
	.st8{fill:#FFFFFF;}
	.st9{fill:#171310;}
	.st10{display:inline;fill:#CA7C66;}
	.st11{display:inline;fill:#ED9682;}
	.st12{display:inline;fill:#37261C;}
	.st13{fill:#211711;}
	.st14{fill:#BA957B;}
	.st15{display:inline;fill:none;stroke:#171310;stroke-width:3;stroke-miterlimit:10;}
	.st16{opacity:0.4;}
	.st17{fill:none;}
	.st18{fill:none;stroke:#FF0B0B;stroke-miterlimit:10;}
	.st19{fill:#FF0B0B;}
	.st20{fill:none;stroke:#000000;stroke-miterlimit:10;}
	.st21{stroke:#000000;stroke-miterlimit:10;}
	.st22{fill:#FFFFFF;stroke:#000000;stroke-miterlimit:10;}
	.st23{fill:none;stroke:#000000;stroke-width:0.4231;stroke-miterlimit:10;}
	.st24{fill:none;stroke:#000000;stroke-width:0.4029;stroke-miterlimit:10;}
	.st25{fill:#FFFFFF;stroke:#8C00BF;stroke-miterlimit:10;}
	.st26{fill:none;stroke:#000000;stroke-width:0.9802;stroke-miterlimit:10;}
	.st27{fill-rule:evenodd;clip-rule:evenodd;fill:#FFFFB6;}
	.st28{fill-rule:evenodd;clip-rule:evenodd;}
	.st29{fill:none;stroke:#000000;stroke-width:6;}
	.st30{fill:none;stroke:#000000;stroke-width:1.6554;stroke-miterlimit:10;}
	.st31{fill:none;stroke:#000000;stroke-width:1.6888;stroke-miterlimit:10;}
	.st32{fill:#FFFFFF;stroke:#8C00BF;stroke-width:1.6888;stroke-miterlimit:10;}
	.st33{fill:none;stroke:#000000;stroke-width:1.57;stroke-linecap:round;}
</style>
<g id="Capa_1">
</g>
<g id="Capa_2">
	<circle class="st0" cx="300" cy="368.25" r="285.09"/>
	<g>
		<path class="st8" d="M445.82,431.91c-1.28-6.65-0.56-12.21,1.93-17.48c14.24-30.14,2.11-56.93-10.72-83.53
			c-1.67-3.48-4.09-7.82-9.41-4.1c-2.5-15.62-16.45-30.09-26.78-32.95c-10.35-2.87-36.24-16.85-43.3-11.57
			c-16.48,12.36-34.7,19.81-55.53,18.83c-15.69-0.74-31.61-1.23-44.4-12.77c-3.02-2.74-7.6-3.29-11.18-1.45
			c-4.46,2.3-17.34,5.56-25.45,7.09c-8.11,1.52-26.55,9.83-31.51,25.35c-5.03-5.98,2.09-9.36-0.27-14.57
			c-16.6,2.72-20.79,15.94-23.9,29.08c-4.09,1.06-2.18-3.17-4.58-3.31c-0.47,0.54-1.2,1.08-1.49,1.81
			c-5.25,12.6-6.91,25.38-1.74,38.45c3.19,8.06,2.5,16.23,0.9,24.52c-2.79-5.88-0.95-13.07-6.91-20
			c-12.67,44.52-9.81,85.49,15.64,124.24c-8.04-0.34-7.33-7.75-12.01-9.56c-10.57,15.33-4.31,67.32,16.35,79.95
			c4.36-5.96,4.88-13.53,4.73-19.86c-0.32-13.71,4.22-25.84,8.49-38.27c5.71-16.67,4.71-33.81,3.55-50.97
			c-0.19-2.5-0.83-5.13-0.29-7.48c2.25-9.68,0.12-18.34-4.98-26.6c-3.43-5.54-5.56-11.67-7.18-17.95c-0.9-3.5-1.67-7.11,1.45-11.06
			c4.41,4.58,5.89,10.5,6.89,15.65c2.04,10.54,12.82,18.51,11.01,28.88c-1.94,11.11,1.28,21.67-0.15,32.44
			c-0.62,4.69-0.25,9.54,0.9,14.27c0.37,1.59,0.98,3.97,0.19,4.88c-5.86,6.81-3.28,15.81-6.33,23.14
			c-4.22,10.08-2.87,19.69,0.32,29.49c0.52,1.59,1.1,3.28-0.78,5.07c-5.34,0.08-2.94-5.64-6.13-8.44
			c-3.07,7.77-2.85,15.81-4.26,23.46c-2.31,12.7-7.11,25.35-5.93,38.15c1.08,11.86-4.22,24.12,2.57,35.7
			c2.36,4.02,4.76,6.5,9.34,7.38c15.81,3.04,31.83,2.97,47.81,3.66c34.48,1.52,68.97,3.31,103.49,3.93
			c23.27,0.42,46.39,4.04,69.75,2.79c15.32-0.81,18.81-2.65,20.15-17.55c0.96-10.84,0.03-21.9-3.34-32.49
			c-0.56-1.72-1.91-3.21-2.87-4.78c-5.27,2.45-1.64,10.76-8.63,11.6c-3.16-5.12,0.42-9.9,0.54-14.74
			c0.44-18.29,3.43-36.31,6.03-54.38c2.55-17.88-2.87-34.77-6.62-54.4c-4.34,10.94-5.03,20.03-6.52,29.1
			c-4.56-9.04-2.33-18.37-0.2-27.17c2.74-11.25,3.88-22.66,5.29-34.03c0.93-7.43-0.78-14.73-2.48-22.21
			c-2.43-10.67,1.76-21.65,3.72-32.41c1.52-8.38,3.78-16.62,5.78-25.15c0.32,7.5-0.02,26.06-0.78,28.48
			c-6.54,20.73,0.6,21.17-1.16,39.43c-1.86,19.42,1.16,32.39,4.44,51.25c0.64,3.7,1.85,18.69,2.63,27.95
			c0.39,4.59,0.52,9.19,0.41,13.79l-0.73,30.47c18.14-3.62,37.95-37.77,37.95-57.41c0-33.55-9.23-28.41-6.02-37.54
			c6.82-19.45,5.47-38.79-0.22-59.24C447.93,421.27,450.3,427.57,445.82,431.91z"/>
		<path d="M324.85,233.53c8.09-4.18,17.7,1.51,17.51,10.62c-0.07,3.3-0.1,6.75-0.07,10.3c0.15,21.76,17.66,24.45,17.66,24.45
			s15.65,1.35,26.88,6.6c11.23,5.25,26.85,14.12,26.85,14.12c-7.06-9.21-17.19-54.66-15.35-75.53c1.84-20.88-2.15-36.54-5.53-44.22
			c-3.38-7.68-3.99-50.97-3.38-66.94c0.61-15.97-3.07-24.56-3.07-24.56s-4.3-7.37-12.28-20.54c-1.5-2.47-3.23-4.76-5.06-6.85
			l-2.92-4.85c-18.56-32.55-51.62-34.7-59.72-22.69c-3.21-4.51-8.68-7.11-20.73-8.38c-17.5-1.84-41.4,39.68-50.15,49.35
			s-13.16,19.73-14.33,42.45c-0.36,6.94-1.16,18.56-1.34,31.62c-6.58,10.89-8.34,39.69-4.73,85.32c0.05,0.68-12.13,26.39-16.5,63.23
			c10.57-4.22,31.6-12.38,67.89-18.88c1.06-1.02,2.08-2.09,3.05-3.19c10.64-12.16,5.94-50.59,6.06-50.44
			c7.05,8.03,14.73,11.06,22.82,10.9c6.95-0.14,18.8,1.95,26.21-1.77C324.69,233.61,324.77,233.57,324.85,233.53z"/>
		<path class="st8" d="M235.36,130.5c0-0.06-0.01-0.11-0.01-0.16c-2.3,4.94-5.55,11.18-9.28,17.91c0.96,8.2,2.2,15.55,2.09,22.26
			c-0.07,4.35,6.36,4.75,7.22,0.96C232.76,165.94,234.89,135.93,235.36,130.5z"/>
		<path class="st8" d="M351.36,274.95c0,0-0.61,0.46-1.69,1.2c-2.82,1.96-8.93,5.96-16.38,9.37c-0.02,0-0.02,0.02-0.03,0.02
			c-8.82,2.97-17.63,5.98-27.24,5.79c-0.29,0-0.57-0.02-0.86-0.03c-24.62-1.42-33.15-9.63-38.61-12.7
			c-0.22-0.12-0.42-0.24-0.62-0.34c0,0,8.21-4.12,9.66-19.32c1.47-15.2,0-34.42,0-34.42c4.54,4.56,8.65,7.9,11.75,9.09
			c8.46,3.21,30.09,2.45,36.07,0.61c0.41-0.13,0.9-0.37,1.45-0.71c7.72-4.83,17.72,0.98,17.52,10.09
			c-0.08,3.46-0.11,7.11-0.09,10.85C342.37,265.46,346.9,271.59,351.36,274.95z"/>
		<path class="st8" d="M369.34,171.64c0,0,0.71,2.37,3.08,2.42s3.75-1.1,3.4-7.32c-0.35-6.22,2.7-21.2,2.37-31.22
			c-2.19-0.64-7.39-6.7-7.39-6.7s0.06,24.25,0,27.71S369.34,171.64,369.34,171.64z"/>
		<path class="st32" d="M324.33,205.67c0,0-10.13-9.44-12.44-10.29c-0.19-0.07-0.37-0.1-0.55-0.13c-1.45,0.27-2.83,1.06-4.21,1.21
			c-0.38,0.04-0.84,0-1.34-0.07c-0.12,0.02-0.23,0.05-0.35,0.07c-1.43,0.16-3.95-0.66-5.76-0.96c-0.04,0.02-0.11,0.02-0.15,0.04
			c-1.15,0.69-14.51,11.07-14.51,11.07s4.38,2.52,9.21,6.13c3.26,2.43,7.24,2.98,9.49,3.08c0.06,0,0.1-0.01,0.1-0.01
			s0.52,0.02,1.33,0.02c0.23-0.01,0.36-0.02,0.36-0.02s0.18,0.01,0.48,0.01c2.11-0.03,5.27-0.22,7.27-0.93
			C316.5,213.73,324.33,205.67,324.33,205.67z"/>
		<path class="st8" d="M371.15,128.67c0,0-8.44-8.73-14.27-18.04c-9.15-14.95-15.96-32.53-19.51-42.79
			c-3.33-9.64-8.85-12.77-14.32-13.12c-0.46-0.03-0.9-0.03-1.35-0.03c-0.59,0.02-1.17,0.05-1.74,0.12c-0.51,0.05-1.01,0.14-1.5,0.22
			c-3.41,0.64-6.52,1.98-8.71,3.02c-2.5,1.2-4.46,3.14-5.91,5.08l-0.08-0.08c-0.02,0.03-0.05,0.07-0.07,0.08
			c-2.25-2.38-6.62-4.58-9.76-5.05c-0.05,0-0.12-0.02-0.15-0.03c-0.2-0.03-0.42-0.05-0.62-0.07c-0.15-0.03-0.29-0.05-0.42-0.05
			c-0.24-0.02-0.47-0.03-0.71-0.03c-0.3-0.03-0.59-0.03-0.88-0.03c-0.29-0.02-0.59-0.02-0.88-0.02c-1.18,0.02-2.36,0.08-3.51,0.2
			c-1.06,0.12-2.11,0.27-3.07,0.44c-1.35,0.22-2.63,0.62-3.87,1.15c-0.95,0.39-1.86,0.88-2.72,1.44
			c-0.32,0.59-10.5,18.76-12.31,22.39c-1.86,3.68-13.53,18.73-18.12,22.11c-4.61,3.38-7.99,13.24-7.38,16.06
			c0.27,1.22-0.88,2.62-3.01,6.89c-0.29,0.59-0.59,1.2-0.93,1.82c0,0.05,0.03,0.12,0.02,0.17c-0.52,5.42-2.89,35.43,0.03,40.95
			c0.02,0.05,0.03,0.08,0.05,0.12c0.24,0.41,0.51,0.86,0.78,1.33c6.28,10.45,25.04,37.19,39.37,51.61c0.62,0.61,1.22,1.2,1.81,1.77
			c-0.07-1.13-0.12-1.77-0.12-1.77c4.54,4.56,8.65,7.9,11.75,9.09c4.04,1.54,11.04,2.14,17.95,2.2c6.96-0.05,13.53-0.69,16.43-1.59
			c3.66-1.11,13-11.37,20.65-19.79c4.86-5.35,9.05-9.98,10.67-11.06c4.14-2.77,16.57-23.49,16.57-50.21L371.15,128.67z"/>
		<g>
			<path class="st30" d="M352.81,278.89c-12.6,10.02-43.21,18.43-56.08,15.04c-1.76-0.47-3.22-1.2-3.34-1.21
				c33.25,3.99,56.45-14.23,56.45-14.23L352.81,278.89z"/>
			<path class="st30" d="M308.06,299.63c-0.26,0-3.73,0.76-3.99,0.76c-34.08,0-49.49-16.17-49.49-16.17s1.9-1.43,7.05-1.43
				c0.15,0,0.31,0.02,0.47,0.04c-4.23,0.19-4.27,1.35-4.27,1.39C257.83,284.22,272.44,299.63,308.06,299.63z"/>
			<path class="st30" d="M406.16,666.68c-23.54-3.75-47.28,0.71-71.28-2.73c0.04-0.08,0.07-0.17,0.11-0.24
				c1.4-2.97,3.79-2.04,5.65-2.35c18.94-1.89,36.41,0.73,53.87,2.42c3.16,0.31,6.83-1.22,9.89,1.04
				C405.01,665.27,405.6,665.88,406.16,666.68z"/>
			<path class="st30" d="M301.47,663.86c-1.65,0.07-3.29,0.15-4.94,0.22c-11.62,1.39-22.74,0.58-33.65-0.68
				c-9.33-1.08-18.5-2.48-27.72-3.14c2.92-0.28,5.84-0.49,8.75-0.63C263.2,658.67,282.36,660.59,301.47,663.86z"/>
			<g>
				<path d="M455.11,483.88l-0.65,0.25c0.19,0.55,0.38,1.1,0.55,1.64c0.12-0.42,0.25-0.83,0.38-1.24
					C455.3,484.31,455.21,484.1,455.11,483.88z M392.05,662.62c-21.15-1.37-42.3-3.51-65.25-1.97c-2.31,0.26-5.29-0.55-6.97,2.11
					c5.06,0.49,10.12,0.79,15.16,0.95c-0.04,0.07-0.07,0.16-0.11,0.24c24,3.44,47.74-1.02,71.28,2.73c-0.56-0.8-1.15-1.41-1.76-1.86
					c0.59,0.05,1.17,0.11,1.76,0.17C402.13,661.07,396.65,662.93,392.05,662.62z M243.91,659.63c-14.89-0.78-29.83-0.85-44.85,0.13
					c20.95,0.99,41.72,4.16,63.82,3.64c10.91,1.26,22.03,2.07,33.65,0.68c1.65-0.07,3.29-0.15,4.94-0.22
					C282.36,660.59,263.2,658.67,243.91,659.63z"/>
				<path d="M455.39,484.53c-0.13,0.41-0.26,0.82-0.38,1.24c5.67,17.67,2.61,34.23-3.3,51.49c-2.78,8.72-8.57,16.19-15.36,22.17
					c-4.62,4.29-9.34,8.55-14.8,11.56c-0.08-4.33,0.07-8.69,0.47-13.08c1.77-19.68,1.03-39.3-2.3-58.54
					c-3.27-18.86-6.78-32.43-4.92-51.85c1.76-18.26-4.86-16.98,0.5-35.05c0.72-2.43,3.05-25.76,0.93-32.26
					c-2,8.53-4.26,16.77-5.78,25.15c-1.96,10.76-6.15,21.73-3.71,32.41c1.7,7.48,3.41,14.77,2.48,22.2
					c-1.4,11.37-2.55,22.79-5.29,34.03c-2.13,8.8-4.35,18.14,0.2,27.18c1.49-9.07,2.18-18.16,6.52-29.1
					c3.75,19.62,9.17,36.51,6.62,54.39c-2.6,18.07-5.59,36.09-6.03,54.38c-0.11,4.85-3.69,9.63-0.54,14.75
					c7-0.85,3.36-9.16,8.63-11.61c0.97,1.57,2.32,3.06,2.87,4.78c3.38,10.59,4.31,21.65,3.35,32.5
					c-1.34,14.89-4.83,16.73-20.15,17.54c-23.35,1.25-46.47-2.36-69.75-2.78c-34.51-0.63-69-2.42-103.48-3.94
					c-15.98-0.69-32.01-0.62-47.81-3.66c-4.58-0.88-6.98-3.36-9.34-7.38c-6.79-11.59-1.49-23.85-2.57-35.71
					c-1.18-12.8,3.61-25.45,5.93-38.14c1.4-7.65,1.18-15.69,4.25-23.46c3.2,2.8,0.8,8.53,6.13,8.44c1.88-1.79,1.3-3.48,0.78-5.06
					c-3.19-9.8-4.54-19.41-0.32-29.49c3.06-7.33,0.47-16.33,6.33-23.14c0.8-0.91,0.19-3.29-0.18-4.88
					c-1.15-4.73-1.52-9.57-0.9-14.27c1.44-10.77-1.79-21.33,0.15-32.44c1.81-10.37-8.96-18.34-11.01-28.88
					c-0.99-5.15-2.48-11.08-6.89-15.65c-3.12,3.95-2.34,7.56-1.45,11.06c1.62,6.28,3.75,12.41,7.18,17.95
					c5.1,8.26,7.23,16.92,4.98,26.6c-0.54,2.35,0.1,4.98,0.29,7.48c1.16,17.16,2.16,34.3-3.55,50.97
					c-4.27,12.43-8.81,24.55-8.49,38.27c0.15,6.33-0.38,13.89-4.73,19.86c-20.66-12.64-26.92-64.62-16.35-79.95
					c4.68,1.81,3.97,9.22,12.01,9.56c-25.45-38.76-28.31-79.73-15.64-124.25c5.96,6.93,4.12,14.12,6.91,20
					c1.6-8.29,2.29-16.47-0.9-24.52c-5.17-13.07-3.51-25.86,1.74-38.46c0.29-0.72,1.01-1.26,1.49-1.8c2.4,0.13,0.49,4.37,4.57,3.31
					c3.11-13.14,7.3-26.36,23.9-29.08c2.36,5.21-4.76,8.59,0.27,14.57c4.97-15.52,23.41-23.83,31.51-25.35
					c8.11-1.53,20.99-4.79,25.45-7.09c3.58-1.84,8.16-1.28,11.18,1.45c12.79,11.54,28.71,12.03,44.4,12.77
					c20.82,0.98,39.05-6.47,55.53-18.83c7.06-5.29,32.95,8.7,43.3,11.57c10.33,2.85,24.28,17.32,26.78,32.95
					c5.32-3.72,7.74,0.62,9.41,4.1c12.83,26.6,24.96,53.38,10.72,83.53c-2.48,5.27-3.21,10.82-1.92,17.47
					c4.47-4.34,2.11-10.63,7.43-15.11c5.69,20.45,7.04,39.79,0.22,59.24c-3.4,9.66-6.37,19.31-3.52,30.65
					c1.39-1.45,2.53-2.65,2.56-3.99c0.14-6.94,1.44-12.43,3.01-17.53c-0.17-0.54-0.36-1.09-0.55-1.64l0.65-0.25
					C455.21,484.1,455.3,484.31,455.39,484.53c1.82-5.68,3.89-10.98,5.01-17.41c1.73-9.8,4.53-19.91,2.15-30.06
					c-3.88-16.65-7.28-33.27-4.54-50.51c0.47-3.03,1.16-6.42,0.3-9.19c-7.14-23.27-11.65-47.96-29.81-66.07
					c-14.71-14.64-43.13-35.16-67.45-35.05c-4.54,0.01-8.17-0.14-11.38-0.09c-2.78,1.93-8.76,5.86-16.08,9.22
					c-8.73,2.94-17.8,6.08-27.3,5.96h-0.27c-0.08,0-0.15,0-0.2-0.01c0.08,0,0.23,0,0.47,0.01c0,0-4.09-0.25-4.12-0.25
					c-22.35-1.88-30.38-9.54-35.62-12.48c-23.73,1.16-71.82,19.1-82.5,23.42c-16.99,6.88-30.65,19.37-33.47,38.41
					c-2.77,18.59-6.96,36.79-10.66,55.15c-4.44,22.02-5.15,44.62,1.81,65.86c4.85,14.83,5.39,29.05,3.63,43.78
					c-2.77,23.27,0.88,44.7,15.84,63.44c1.57,1.96,2.72,4.28,4.26,6.29c4.42,5.87,5.18,11.95,2.55,19
					c-2.62,7.04-3.88,14.33-3.82,22.12c0.14,14.25,7.21,26.41,10.52,39.67c1.37,5.47,6.73,8.91,13.16,8.76
					c5.05-0.13,10.1-0.32,15.15-0.55c78.28,5.33,139.1,16.09,208.36,8.34c8.88,1.33,16.38-4.12,16.85-13.06
					c0.22-4.27,1.29-8.24,1.95-12.36c1.67-10.28,2.44-20.91-0.73-30.89c-4.13-12.98-6.93-26.09-7.7-39.41
					c0.38-0.15,0.76-0.31,1.15-0.47c11-5.24,18.55-15.24,24.51-25.47c8.39-13.41,14.18-22.92,13.69-39.47
					C460.96,501.93,459,492.83,455.39,484.53z M303.75,291.2c-0.01-0.02-0.05-0.02-0.08-0.02
					C304.03,291.19,304.3,291.23,303.75,291.2z M349.84,278.49l2.97,0.4c-12.6,10.02-43.21,18.43-56.08,15.04
					c-1.76-0.47-3.22-1.2-3.34-1.21C326.64,296.71,349.84,278.49,349.84,278.49z M261.63,282.79c0.15,0,0.31,0.02,0.47,0.04
					c-4.23,0.19-4.27,1.35-4.27,1.39c0,0,14.61,15.41,50.23,15.41c-0.26,0-3.73,0.76-3.99,0.76c-34.08,0-49.49-16.17-49.49-16.17
					S256.48,282.79,261.63,282.79z M296.53,664.08c-11.62,1.39-22.74,0.58-33.65-0.68c-22.1,0.52-42.87-2.65-63.82-3.64
					c15.02-0.98,29.96-0.91,44.85-0.13c19.29-0.96,38.45,0.96,57.56,4.23C299.82,663.93,298.18,664.01,296.53,664.08z
					 M406.16,666.68c-23.54-3.75-47.28,0.71-71.28-2.73c0.04-0.08,0.07-0.17,0.11-0.24c-5.04-0.16-10.1-0.46-15.16-0.95
					c1.68-2.66,4.66-1.85,6.97-2.11c22.95-1.54,44.1,0.6,65.25,1.97c4.6,0.31,10.08-1.55,14.11,2.37c-0.59-0.06-1.17-0.12-1.76-0.17
					C405.01,665.27,405.6,665.88,406.16,666.68z"/>
				<path class="st8" d="M279.37,662.69c-2,0.06-3.98,0.13-5.99,0.18c-3.54,0.28-7.03,0.45-10.5,0.53
					c-22.1,0.52-42.87-2.65-63.82-3.64c15.02-0.98,29.96-0.91,44.85-0.13C255.75,660.26,267.57,661.33,279.37,662.69z"/>
				<path class="st8" d="M406.16,664.99c-0.59-0.06-1.17-0.12-1.76-0.17c-22.96-2.26-46.09-0.33-69.41-1.11
					c-5.04-0.16-10.1-0.46-15.16-0.95c1.68-2.66,4.66-1.85,6.97-2.11c22.95-1.54,44.1,0.6,65.25,1.97
					C396.65,662.93,402.13,661.07,406.16,664.99z"/>
				<path class="st8" d="M308.06,299.63c-0.26,0-3.73,0.76-3.99,0.76c-34.08,0-49.49-16.17-49.49-16.17s1.9-1.43,7.05-1.43
					c0.15,0,0.31,0.02,0.47,0.04c-4.23,0.19-4.27,1.35-4.27,1.39C257.83,284.22,272.44,299.63,308.06,299.63z"/>
				<path class="st8" d="M352.81,278.89c-12.6,10.02-43.21,18.43-56.08,15.04c-1.76-0.47-3.22-1.2-3.34-1.21
					c33.25,3.99,56.45-14.23,56.45-14.23L352.81,278.89z"/>
			</g>
			<path d="M306.29,291.33h-0.27c-0.08,0-0.15,0-0.2-0.01C305.9,291.32,306.05,291.32,306.29,291.33z"/>
			<path d="M303.75,291.2c-0.01-0.02-0.05-0.02-0.08-0.02C304.03,291.19,304.3,291.23,303.75,291.2z"/>
		</g>
		<g>
			<path d="M385.74,248.96c2.19,16.62,9.45,20.93,11.97,33.83c0.98,5.01,0,96.51,0,96.51s-0.78-23.44-2.62-38.49
				c-1.84-15.05-5.56-27.07-6.25-36.56c-0.24-3.41-0.9-8.93-1.71-15.03c-0.88-12.28-2.97-22.76-5-29.11
				c-0.9,10.74,0.62,27.41,0.62,27.41l2.97,44.04c3.63,53.91-8.26,69.58-8.58,69.98c0.2-0.71,5.35-18.56,5.35-26.68
				c0-28.86-7.67-56.44-8.87-90.92c0.46-9.56-2.72-17.08-5.45-22.65c-0.74-1.52-14.28-31.32-14.28-45.83"/>
			<path class="st8" d="M385.82,248.95c0.99,5.42,2.62,10.68,5.13,15.58c2.48,4.85,5.4,9.7,6.92,15.19
				c0.91,2.71,0.99,5.59,1.04,8.41c0,0,0.14,8.3,0.14,8.3c0.16,16.58-0.08,33.16-0.25,49.74c0,0-0.47,33.15-0.47,33.15l-1.25,0.01
				c-0.63-20.03-1.64-40.13-6.07-59.73c-0.97-4.92-2-9.85-2.41-14.89c-0.36-5-0.98-9.97-1.67-14.95c-0.44-5.01-0.94-9.99-1.84-14.92
				c-0.86-4.93-1.96-9.83-3.58-14.53l1.29-0.15c-0.44,8.85-0.03,17.81,0.67,26.66c1.41,24.47,4.96,56.05,2.91,80.41
				c-0.65,8.89-1.99,17.99-4.75,26.49c-1.05,2.92-2.03,5.71-3.83,8.33c0,0-2.63,3.68-2.63,3.68c1.67-6.19,3.69-12.44,5.07-18.69
				c1.06-4.81,2.13-9.64,1.88-14.58c-0.14-19.8-4.09-39.3-6.48-58.91c-1.26-9.82-2.21-19.69-2.56-29.6
				c0.28-5.92-0.9-11.83-3.04-17.37c-4.63-11.03-9.54-21.99-12.88-33.51c-1.67-5.74-3.24-11.61-3.31-17.63c0,0,0.17,0,0.17,0
				c0.16,5.98,1.8,11.81,3.51,17.51c2.67,8.56,5.99,16.91,9.6,25.12c2.49,5.43,5.51,10.79,6.48,16.81c0.56,2.9,0.75,6.25,0.62,9.02
				c0.36,9.86,1.24,19.71,2.38,29.52c2.32,19.63,5.83,39.2,6.23,59.02c0.29,9.96-2.61,19.7-4.89,29.31c0,0-1.42-0.73-1.42-0.73
				c4.74-7.4,6.36-16.48,7.72-25.05c1.25-8.72,1.67-17.86,1.55-26.65c-0.15-11.88-2.48-41.22-3.23-53.47
				c-0.83-13.04-2.33-26.29-0.76-39.45c0,0,0.97,3.49,0.97,3.49c4.02,14.68,4.6,29.77,6.4,44.75c0.44,4.97,1.5,9.88,2.52,14.79
				c2.13,9.81,3.92,19.74,4.73,29.76c0.91,10.01,1.49,20.03,1.92,30.07l-1.25,0.01c0.09-23.93,0.16-59.02,0.06-82.86
				c0,0-0.09-8.27-0.09-8.27c0.46-8.41-3.8-15.71-7.23-23.11c-2.31-5.07-3.71-10.55-4.18-16.09
				C385.66,248.97,385.82,248.95,385.82,248.95L385.82,248.95z"/>
		</g>
		<g>
			<path d="M229.45,242.05c1.86,23.5-0.81,36.74-2.49,42.38c-1.01,3.38-1.52,6.89-1.52,10.41c-0.03,18.55,5.1,48.55,10.05,65.57
				c6.57,22.57,5.63,41.14,5.63,41.14s6.29-48.51-0.58-60.95c-5.26-9.52-5.19-33.08-5.05-40.12c-0.01-0.33-0.02-0.66,0-0.97
				c0.1-1.81,0.05-1.18,0,0.97c0.16,7.79,6.7,19.82,10.25,29.99c3.71,10.59,3.55,48.82,3.55,48.82s3.19-28.56,3.19-37.77
				c0-7.33-6.7-40.58-8.05-58.75c0,0-0.88-8.64,0.74-12.95"/>
			<path class="st8" d="M229.53,242.04c1.15,13.4,1.55,27.06-1.46,40.28c-0.87,3.27-1.75,6.41-1.92,9.78
				c-0.35,13.38,1.69,26.76,3.84,39.94c1.71,9.92,3.67,19.79,6.31,29.52c2.58,9.79,4.13,19.81,4.88,29.89
				c0.25,3.36,0.4,6.72,0.33,10.12l-0.79-0.07c0.87-7.73,1.51-15.51,1.98-23.27c0.51-11.54,1.48-23.47-1.44-34.74
				c-0.49-1.55-1.36-3.18-2.03-4.65c-3.45-9.46-3.56-19.78-3.79-29.71c-0.02-3.33-0.04-7.62,0.11-10.57
				c-0.15,2.27,0.48,4.47,1.26,6.56c2.83,9.37,7.65,17.92,10.51,27.31c1.74,7.74,2.03,15.56,2.48,23.42
				c0.36,7.82,0.46,15.63,0.37,23.45c0,0-1.73-0.1-1.73-0.1c1.16-11.41,2.51-22.81,3.23-34.26c0.15-2.19,0.17-4.59-0.09-6.78
				c-2.22-20.51-7.13-40.85-7.52-61.54c0.09-2.29,0.25-4.63,1.03-6.82l0.16,0.06c-1.34,4.38-0.95,9.12-0.56,13.63
				c1.75,18.9,6.11,37.42,8.37,56.26c0.18,13.14-1.62,26.55-2.91,39.63c0-0.01-1.75-0.08-1.73-0.11c-0.41-15.44-0.2-31.18-3.01-46.4
				c-2.08-7.44-5.73-14.42-8.26-21.76c-0.63-1.86-1.31-3.73-1.58-5.71c-0.31-2.3-0.18-4.59-0.05-6.85
				c-0.02,0.31-0.06,1.16-0.04,1.79c-0.09,10.67,0.34,21.52,2.62,31.94c0.42,1.86,0.96,3.76,1.65,5.54
				c0.25,0.78,0.84,1.87,1.18,2.61c2.22,4.44,2.62,9.56,3.03,14.4c0.87,15.65-0.44,31.28-2.46,46.75l-0.79-0.07
				c0.49-13.38-1.55-26.88-5.35-39.71c-3.92-12.9-6.58-26.17-8.39-39.52c-0.9-6.68-1.63-13.39-1.99-20.13
				c-0.12-3.39-0.33-6.76-0.06-10.16c0.22-3.38,1.2-6.74,2.11-9.94c3.14-13.03,3.09-26.68,2.32-40.02
				C229.37,242.06,229.53,242.04,229.53,242.04L229.53,242.04z"/>
		</g>
		<g>
			<g>
				<path d="M234.91,128.95c0.51,0.59,0.54,1.41,0.45,2.14c0,0-0.13,2.23-0.13,2.23l-0.21,4.46c-0.38,8.87-0.73,17.86-0.08,26.69
					c0.2,2.11,0.37,4.33,1.11,6.28c4.91,8.22,10.69,15.94,16.36,23.66c7.16,9.45,14.5,18.82,22.66,27.32
					c3.79,3.76,7.56,7.8,12.38,10.14c5.6,2.07,12.06,2.14,18.06,2.25c5.67-0.03,11.85-0.14,17.27-1.44c0.9-0.27,2.11-1.17,3.19-2.04
					c3.36-2.8,6.39-6.01,9.45-9.18c4.09-4.29,8.07-8.7,12.14-13.07c1.83-1.93,3.62-3.91,5.65-5.66c2.06-1.41,3.44-3.45,4.82-5.52
					c8.11-13.09,12.13-28.63,12.63-43.98c0.13-8.62,0.4-18.2,0.64-26.78c0.32,8.57,0.42,18.16,0.64,26.78
					c0.15,16.48-3.83,33.35-12.89,47.34c-1.6,2.63-4.17,4.31-6.3,6.57c-5.1,5.39-9.91,11.03-15,16.49c-2.03,2.2-4.12,4.35-6.29,6.45
					c-2.4,2.15-4.57,4.59-7.73,5.74c-6.16,1.5-12.03,1.56-18.22,1.65c-6.16-0.12-12.18-0.29-18.2-2.16
					c-14.54-5.26-43.21-47.28-51.84-61.79c-0.03-0.08-0.77-1.33-0.84-1.47c-0.45-0.91-0.76-2.02-0.89-2.96
					c-1.01-7.47-0.34-15.02,0.06-22.46c0.25-4.32,0.73-9.03,1.18-13.35c0,0,0.25-2.22,0.25-2.22
					C235.37,130.34,235.39,129.58,234.91,128.95L234.91,128.95z"/>
			</g>
			<g>
				<path class="st8" d="M286.94,37.55c0.05-0.62,0.65-0.89,1.1-1.06c1.45-0.5,3-0.53,4.52-0.55c6.03,0.23,12.46,0.84,17.54,4.43
					c0,0-0.86,0.57-0.86,0.57c-2.63-8.6-7.34-12.3-16.06-14c-4.9-0.9-10.07-2.13-14.79,0.31c-6.95,3.35-12.44,9.06-17.61,14.72
					c-8.66,9.56-15.81,20.7-23.6,30.95c-9.7,10.54-13.18,20.85-14.53,34.94c-1.24,15.46-1.85,31.09-1.99,46.6
					c0.13,15.49,0.57,31.19,4.66,46.2c1.38,4.98,3.27,9.85,6.18,14.15c0,0-0.14,0.1-0.14,0.1c-11.14-15.5-12.1-41.75-12.42-60.45
					c-0.04-10.41,0.36-20.82,1.03-31.19c0.86-15.38,1.67-32.22,11.64-44.82c9.96-11.24,18.79-25.62,28.48-37.09
					c6.33-7.16,15.16-17.56,25.62-17.07c7.62,0.98,16.68,2.15,21.36,9.04c1.86,2.79,2.79,5.96,3.76,9.06
					c-3.22-3.26-7.92-4.46-12.34-5.3c-3.39-0.54-6.96-1.13-10.36-0.38c-0.45,0.13-0.96,0.37-1.01,0.82L286.94,37.55L286.94,37.55z"
					/>
			</g>
			<g>
				<path class="st8" d="M327.09,35.87c6.24,0.81,14.05,3.55,17.81,8.84C339.27,41.03,333.01,39.09,327.09,35.87L327.09,35.87z"/>
			</g>
			<g>
				<path class="st8" d="M306.37,33.44c14.41-14.12,38.61-4.82,50.32,8.51c4.15,4.72,7.33,10.24,9.4,16.09
					c-2.68-5.6-6.17-10.75-10.37-15.2C343.67,30.42,321.49,21.33,306.37,33.44L306.37,33.44z"/>
			</g>
			<g>
				<path class="st8" d="M351.39,46.48c9.1,5.06,17.35,11.99,23.06,20.78c3.19,5.22,9.31,15.36,12.55,20.73
					c3.15,8.73,3.36,17.95,2.86,26.92c-0.39,8.93-0.39,17.89-0.22,26.84c0.28,10.04,0.72,20.13,2.01,30.1
					c0.45,3.29,1.03,6.56,2.47,9.57c4.89,12.67,6.03,26.51,5.29,39.98c-0.62,6.64-0.48,13.35,0.2,19.97
					c1.56,15.52,4.47,30.97,8.95,45.93c0,0,1.03,3.19,1.03,3.19c0.35,1.06,0.77,2.09,1.16,3.14c0.81,2.08,1.76,4.1,2.98,5.97
					l-0.13,0.1c-8.97-13.46-15.41-48.25-16.21-64.89c-0.3-4.46-0.12-9.1,0.23-13.52c0.61-8.86,0.27-17.81-1.29-26.55
					c-0.79-4.36-1.86-8.7-3.42-12.83c-0.64-1.57-1.28-3.2-1.54-4.88c-0.54-2.59-0.82-5.74-1.08-8.38
					c-1.02-13.41-1.22-26.85-1.42-40.29c-0.35-13.08,1.27-27.39-3.19-39.57c-4.05-6.63-9.94-17.26-14.2-23.68
					c-5.33-7.45-12.47-13.55-20.19-18.44C351.31,46.63,351.39,46.48,351.39,46.48L351.39,46.48z"/>
			</g>
			<g>
				<path class="st8" d="M375.91,202.29c0.95-4.44,0.5-8.9-0.06-13.35c-0.56-3.87-1.22-7.76-2.33-11.52
					c-0.18-0.53-0.35-1.06-0.68-1.54c0.45,0.35,0.8,0.85,1.1,1.34C377.57,183.99,379.62,195.25,375.91,202.29L375.91,202.29z"/>
			</g>
			<g>
				<path class="st8" d="M365.32,278.9c-5.27-10.05-12.03-29.27-6.26-39.91C355.61,250.15,362.16,267.73,365.32,278.9L365.32,278.9z
					"/>
			</g>
			<g>
				<path class="st8" d="M381.2,247.12c-4.53-12.77-5.69-27.95,0-40.53C377.81,219.93,378.97,233.65,381.2,247.12L381.2,247.12z"/>
			</g>
			<g>
				<path class="st8" d="M214.71,234.98c-1.82-10.18-2.04-20.53-1.7-30.84c-0.08-10.32-0.71-20.64,0.62-30.94
					c0.97-6.78,2.25-13.89,6.09-19.7c0,0,0.14,0.09,0.14,0.09c-2.84,6.24-3.64,13.09-4.44,19.83c-0.72,5.86-1.28,14.45-1.67,20.44
					c-0.83,10.29,0.81,20.53,0.96,30.81c0.11,3.43,0.18,6.85,0.17,10.3L214.71,234.98L214.71,234.98z"/>
			</g>
			<g>
				<path class="st8" d="M219.87,196.46c-0.25,15.38-1.42,31.2-7.37,45.54c-3.45,10.44-5.92,21.19-8.64,31.83
					c-1.57,6.37-3.23,12.81-4.41,19.27c-0.4,2.08-0.73,4.4-0.77,6.52c0,0-0.17,0.02-0.17,0.02c-0.2-1.58-0.14-3.4-0.06-5
					c1.58-15.95,5.97-31.52,11.2-46.63c1.35-4.2,3.36-8.15,4.66-12.37c1.15-4.23,1.6-8.64,2.12-12.99
					C217.61,214.49,218.34,204.09,219.87,196.46L219.87,196.46z"/>
			</g>
			<g>
				<path class="st8" d="M235.57,174.04c1.86,3.66,2.64,7.61,3.45,11.58c1.23,3.78,3.46,7.21,5.37,10.67
					c1.34,2.23,2.67,4.45,4.93,5.92l-0.06,0.16c-2.82-0.49-4.91-2.87-6.41-5.14c-2.29-3.47-3.01-7.59-4.35-11.44
					c-1.07-2.48-2.28-4.94-2.67-7.65c-0.24-1.33-0.43-2.68-0.43-4.06L235.57,174.04L235.57,174.04z"/>
			</g>
			<g>
				<path class="st8" d="M254.76,214.88c5.95,13.07,10.4,29.77,7.4,44.07C262.72,243.89,258.61,229.29,254.76,214.88L254.76,214.88z
					"/>
			</g>
			<g>
				<path class="st8" d="M242.39,218.1c1.67,6.55,2.12,13.36,2.75,20.08c0.73,10.12,1.4,20.3,0.51,30.43c-0.1,1.39-0.57,3.59-0.87,5
					c-0.23,1.63-0.21,3.32-0.17,5c1.12,20.26,5.92,40.09,8.33,60.22c0.5,6.78-0.46,13.6-0.91,20.36c-0.58,6.74-1.28,13.47-2,20.2
					l-1.46-0.08c-0.01-7.78-0.18-15.58-0.54-23.35c-0.43-7.7-0.79-15.57-2.42-23.1c-0.97-3.67-2.6-7.29-4.05-10.83
					c-2.91-7.51-7.23-15.18-6.84-23.49c0.01-0.12,0.01-0.25,0.06-0.36c-0.46,0.34,0.73-1.16,1.55,0.06c0.1,0.41,0.04,0.27,0.05,0.41
					c-0.09,3.42-0.1,7.06-0.03,10.47c0.32,9.63,0.63,19.47,3.76,28.6c0.24,0.65,0.83,1.95,1.16,2.56c2.24,4.5,2.63,9.7,3.01,14.57
					c0.8,15.67-0.62,31.28-2.44,46.82c0,0-1.46-0.13-1.46-0.13c0.11-3.3,0.01-6.67-0.2-10.01c-0.63-10.03-2.29-20-4.96-29.69
					c-1.85-6.48-3.41-13.06-4.74-19.67c-3.15-16.52-5.99-33.33-5.25-50.21c0.21-3.37,0.7-6.82,2.03-9.93
					c1.24-3.09,1.85-6.42,2.25-9.75c1.15-10.03,0.78-20.18-0.06-30.22c0.97,10.04,1.48,20.2,0.45,30.26
					c-0.36,3.35-0.93,6.71-2.15,9.9c-1.3,3.08-1.68,6.44-1.86,9.78c-0.48,16.79,2.42,33.53,5.68,49.95
					c1.38,6.58,2.97,13.1,4.86,19.55c2.76,9.76,4.54,19.81,5.19,29.93c0.22,3.38,0.34,6.75,0.22,10.17l-1.46-0.13
					c1.77-15.4,3.15-31.04,2.32-46.53c-0.4-4.76-0.75-9.62-2.85-13.89c-0.36-0.67-0.99-2.05-1.26-2.76
					c-3.25-9.35-3.59-19.4-3.94-29.15c-0.07-3.4-0.04-7.05,0.05-10.46c0,0,0-0.09,0-0.09l0-0.05c0.02,0.02-0.04-0.04,0.05,0.27
					c0.82,1.18,2.01-0.34,1.55-0.03c0.03-0.09,0.02-0.08,0.03-0.09c0.01-0.02,0.02-0.05,0.02-0.07l-0.01,0.18
					c-0.18,2.09,0.12,4.18,0.63,6.28c1.91,7.52,5.49,14.51,8.25,21.76c3.75,9.15,3.64,19.33,4.3,29.04
					c0.34,7.81,0.49,15.61,0.49,23.43l-1.46-0.08c1.29-12.57,2.88-25.16,3.28-37.8c-1.15-14.25-4.24-28.37-6.03-42.57
					c-0.99-8.4-2.57-16.87-1.74-25.35c1.24-4.89,1.42-10.02,1.47-15.05c0.07-6.75-0.21-13.51-0.66-20.25
					C244.34,231.47,243.98,224.67,242.39,218.1L242.39,218.1z"/>
			</g>
			<g>
				<path class="st8" d="M216.52,292.71c0.09-12.26,3.49-30.46,13.74-38.27c-4.66,5.14-7.07,11.66-9.08,18.18
					C219.18,279.2,217.82,285.94,216.52,292.71L216.52,292.71z"/>
			</g>
			<g>
				<g>
					<path d="M310.35,67.18c3.2-4.07,7.23-8.06,12.44-9.13c-4.72,1.79-7.94,6.18-10.28,10.45
						C312.52,68.49,310.35,67.18,310.35,67.18L310.35,67.18z"/>
				</g>
				<g>
					<path d="M317.73,65.47c2.87-3.4,6.42-7.03,11.05-7.54c-4.2,1.26-6.88,5.27-8.91,8.89C319.87,66.82,317.73,65.47,317.73,65.47
						L317.73,65.47z"/>
				</g>
				<g>
					<path d="M322.83,67.01c3.64-2.93,8.79-2.72,13.16-2.16c0,0-1.61,0.11-1.61,0.11c-3.37,0.41-7.26,1.11-9.64,3.7
						C324.75,68.66,322.83,67.01,322.83,67.01L322.83,67.01z"/>
				</g>
				<g>
					<path d="M295.18,58.04c-0.47,3.8-1.65,11.6-6.62,11.49c3.7-0.56,3.99-5.16,4.18-8.15c0.03-1.11,0.01-2.26-0.09-3.32
						L295.18,58.04L295.18,58.04z"/>
				</g>
				<g>
					<path d="M281.07,59.59c-0.52,7.25-2.17,17.36-9.71,20.43c3.55-1.72,5.34-5.47,6.26-9.11c0.89-3.64,1.14-7.55,0.92-11.25
						C278.54,59.66,281.07,59.59,281.07,59.59L281.07,59.59z"/>
				</g>
				<g>
					<path d="M288.01,58.09c-0.87,5.41-2.1,11.42-6.29,15.25c3.43-4.23,3.73-10.13,3.76-15.35C285.48,58,288.01,58.09,288.01,58.09
						L288.01,58.09z"/>
				</g>
			</g>
			<g>
				<path d="M285.06,206.55c3.92,0.7,7.71,2.28,11.04,4.47c2.99,1.91,6.9,2.56,10.37,2.37c3.23-0.1,6.74,0.09,9.75-1.09
					c3.76-2.12,7.19-5.1,10.4-8.03c0,0,0.02,0.92,0.02,0.92c-2.77-2.81-5.74-5.44-8.84-7.86c-1.44-0.98-2.89-2.56-4.72-2.33
					c-1.87,0.26-3.84,1.81-5.9,1.6c-1.94-0.08-4.01-0.75-5.76-0.78c-0.45,0.07,0.11-0.1-0.42,0.27c-4.02,3.58-8.01,7.32-12.03,10.9
					c0,0-1.45-3.13-1.45-3.13c2.92-0.56,7.29-1.1,10.28-1.52c3.38-0.3,7.62,2.28,10.14,2.2c1.28-0.22,4.62-0.77,5.87-0.98
					c2-0.34,4.11-0.06,6.1,0.09c1.32,0.13,2.64,0.27,3.96,0.5l-0.04,0.34c-3.22,0.02-6.53-0.14-9.68,0.58
					c-1.22,0.36-4.49,1.3-5.75,1.67c-3.38,0.57-7.17-1.58-10.17-1.17c-4.97,1.37-10.92,1.99-16.09,2.44
					c5.63-4.63,11.27-9.82,17.06-14.22c0.36-0.23,0.44-0.37,0.98-0.6c0.57-0.2,0.94-0.17,1.28-0.17c2.23,0.2,3.9,1.04,5.91,1.36
					c0.88,0.16,1.6-0.06,2.47-0.31c4.09-1.51,5.61-0.34,8.67,2.34c3.19,2.73,6.26,5.55,9.48,8.23c-2.94,3.18-5.67,6.4-9.08,9.14
					c-1.67,1.47-4.05,2.12-6.18,2.34c-2.1,0.25-4.12,0.26-6.21,0.18c-1.26,0.09-4.32-0.18-6.08-0.75c-4.02-0.9-6.82-4.11-10.31-6.07
					c-1.65-0.97-3.39-1.86-5.18-2.61L285.06,206.55L285.06,206.55z"/>
			</g>
			<g>
				<g>
					<path d="M301.54,155.32c0.2,6.08-1.48,12.26-4.87,17.37c0,0-0.62,0.93-0.62,0.93l0.1-0.59c-1.16,0.95-1.83,2.97-2.28,4.45
						c-1.71,6.43,0.99,8.51,7.16,7.06c0.95-0.22,2-0.6,3-0.29c-1.02-0.1-1.9,0.42-2.83,0.79c-2.74,1.21-7.29,1.7-8.78-1.59
						c-1.49-2.9,0.13-10.88,3.43-12.05c0,0-0.52,0.34-0.52,0.34C298.67,166.9,300.6,161.17,301.54,155.32L301.54,155.32z"/>
				</g>
				<g>
					<path d="M317.55,163.6c0.99,2.47,1.64,5.22,2.87,7.51c0.69,0.87,1.42,1.79,1.98,2.76c1.4,2.34,2.56,5.12,1.85,7.95
						c-0.73,2.77-3.6,4.79-6.4,4.75c-1.37-0.02-2.69-0.41-3.79-1.12c1.24,0.39,2.53,0.53,3.74,0.35c2.29-0.32,4.47-2.13,4.96-4.35
						c0.55-3.28-1.49-6.48-3.31-9.09C317.9,169.77,317.77,166.53,317.55,163.6L317.55,163.6z"/>
				</g>
				<path d="M300.47,180.67c-2.5,0.98,0,1.96,2.32,2.32c2.32,0.36,3.39,1.96,3.39,1.96S305.12,178.84,300.47,180.67z"/>
				<path d="M316.8,180.67c2.5,0.98,0,1.96-2.32,2.32c-2.32,0.36-3.39,1.96-3.39,1.96S312.15,178.84,316.8,180.67z"/>
				<g>
					<path d="M300.64,173.3c2.34-2.71,9.59-3.62,11.49,0c-1.83-0.93-3.68-0.72-5.63-0.66C304.55,172.81,302.6,172.88,300.64,173.3
						L300.64,173.3z"/>
				</g>
			</g>
			<g>
				<path d="M290.02,123.38c5.47,1.09,11.15,6.87,9.41,12.74C297.4,130.84,293.6,127.75,290.02,123.38L290.02,123.38z"/>
			</g>
			<g>
				<path d="M320.64,121.35c-3.37,5.32-4.96,11.33-6.18,17.43C313.27,132.53,315.38,125.18,320.64,121.35L320.64,121.35z"/>
			</g>
			<g>
				<path d="M282.54,132.47c0,3.82-3.11,6.91-6.91,6.91c-3.82,0-6.92-3.09-6.92-6.91c0-0.68,0.1-1.32,0.27-1.94
					c0.68-0.22,1.4-0.41,2.16-0.54c1.37-0.24,2.85-0.34,4.44-0.24c0.39,0.02,0.76,0.05,1.11,0.1c2.21,0.25,4.12,0.81,5.74,1.5
					C282.5,131.71,282.54,132.08,282.54,132.47z"/>
				<path class="st8" d="M276.86,130.78c0,1.62-1.32,2.92-2.92,2.92c-1.62,0-2.94-1.3-2.94-2.92c0-0.27,0.03-0.54,0.14-0.79
					c1.37-0.24,2.85-0.34,4.44-0.24c0.39,0.02,0.76,0.05,1.11,0.1C276.81,130.14,276.86,130.46,276.86,130.78z"/>
				<g>
					<path d="M275.53,130.54c-0.76,3.47-5.27,1.72-4.12-1.4c0,0,0.14-0.31,0.14-0.31l0.54-0.09c1.39-0.31,2.45,0.36,3.53,1.11
						C275.63,130.09,275.58,130.33,275.53,130.54L275.53,130.54z M275.37,130.51c0.06-0.31-0.28-0.69,0.01-0.37
						c-1.11,0.15-2.13,0.45-3.24,0.21c0,0,0.68-0.4,0.68-0.4c-0.17,0.1-0.21,0.56-0.13,0.78
						C273.01,131.98,275.28,131.93,275.37,130.51L275.37,130.51z"/>
				</g>
				<path d="M290,137.46c-0.24-0.37-2.53-3.95-7.57-6.11c-1.62-0.69-3.53-1.25-5.74-1.5c-0.35-0.05-0.73-0.08-1.11-0.1
					c-1.59-0.1-3.07,0-4.44,0.24c-0.76,0.14-1.49,0.32-2.16,0.54c-6,1.86-9.14,6.32-9.14,6.32c0.37,2.55,3.88,5.18,7.35,7.85
					c-0.47-0.2-6.25-2.74-9.98-4.86c-3.92-2.21-15.67-7.13-15.67-7.13c15.06,1.72,21.09-4.59,25.69-4.91
					c1.2-0.08,2.33-0.12,3.41-0.1c1.17,0.02,2.26,0.07,3.29,0.17h0.08c3.28,0.32,5.91,1.05,8,1.98
					C288.3,132.57,289.88,137.08,290,137.46z"/>
				<g>
					<path d="M252.13,130.78c1.65-4.68,6.55-8.43,11.63-7.75C258.83,123.62,254.88,126.73,252.13,130.78L252.13,130.78z"/>
				</g>
				<path d="M288.56,108.98v9.26l-8.75-0.4c0,0-11.22-5.22-21.12-2.46c-9.9,2.76-14.5,4.55-14.5,4.55l10.4-9.57
					c2.65-2.01,5.93-3,9.25-2.8l21.04,2.61l1.87,2L288.56,108.98z"/>
			</g>
			<g>
				<path d="M350.63,131.91v0.12c0,3.63-2.94,6.57-6.57,6.57c-3.63,0-6.57-2.94-6.57-6.57c0-0.84,0.15-1.65,0.46-2.4
					c0.56-0.12,1.15-0.2,1.76-0.24c0.34-0.05,0.68-0.08,1.01-0.1c1.55-0.1,2.94,0,4.19,0.22
					C347.35,129.95,349.23,130.9,350.63,131.91z"/>
				<path class="st8" d="M345.07,130.42c0,1.54-1.25,2.77-2.79,2.77c-1.54,0-2.79-1.23-2.79-2.77c0-0.37,0.07-0.71,0.2-1.03
					c0.34-0.05,0.68-0.08,1.01-0.1c1.55-0.1,2.94,0,4.19,0.22C345.02,129.8,345.07,130.1,345.07,130.42z"/>
				<g>
					<path d="M344.2,130.25c-0.75,3.59-5.44,1.66-4.09-1.53c0,0,0.16-0.36,0.16-0.36c0.45-0.03,1.01-0.11,1.45-0.07
						c1,0.02,1.78,0.71,2.56,1.25C344.28,129.79,344.24,130.03,344.2,130.25L344.2,130.25z M344.03,130.22
						c0.01-0.19-0.04-0.38-0.14-0.53l0.13,0.14c-1.06,0.08-2.14,0.39-3.2,0.12c0,0,0.69-0.4,0.69-0.4c-0.49,0.47-0.2,1.37,0.43,1.66
						C342.69,131.6,344,131.25,344.03,130.22L344.03,130.22z"/>
				</g>
				<g>
					<path d="M361.33,128.6c-2.65-3.81-6.4-6.66-11.04-7.25C355.08,120.66,359.78,124.15,361.33,128.6L361.33,128.6z"/>
				</g>
				<path d="M369.75,131.71c0,0-9.49,4.54-13.21,6.5c-3.5,1.84-8.82,4.02-9.47,4.27c3.29-2.35,6.6-4.68,6.94-6.92
					c0,0-0.98-1.94-3.38-3.65c-1.4-1.01-3.28-1.96-5.72-2.4c-1.25-0.22-2.63-0.32-4.19-0.22c-0.34,0.02-0.68,0.05-1.01,0.1
					c-0.61,0.03-1.2,0.12-1.76,0.24c-7.8,1.38-12.33,6.16-12.63,6.5c0.22-0.44,3.38-6.16,13.49-8.06c2.75-0.52,6.01-0.74,9.88-0.51
					c0.07,0,0.15,0.02,0.22,0.02C353.2,127.96,357.37,131.62,369.75,131.71z"/>
				<path d="M322.72,108.01v9.26l7.18-0.42c0,0,9.87-5.16,19.77-2.4c9.9,2.76,14.28,4.51,14.28,4.51l-8.75-8.34
					c-2.65-2.01-5.74-3.53-9.06-3.33l-19.73,1.9L322.72,108.01z"/>
			</g>
			<g>
				<path d="M277.1,61.04c0,0-8.8,18.73-10.64,22.41c-1.85,3.68-11.83,18.73-16.43,22.11c-4.61,3.38-8.31,12.86-9.06,17.75
					c-0.92,6.05-8.01,12.18-17.13,26.84c-9.12,14.67,11.25-22.49,11.65-31.39c0.41-8.9,3.47-17.82,3.47-17.82"/>
				<g>
					<path class="st8" d="M275.67,63.19c-4.75,8.95-8.87,18.24-14.34,26.78c-3.85,5.54-7.58,11.35-12.77,15.75
						c-4.01,3.02-5.94,8.16-7.14,12.91c-1.04,4.97-4.15,9.27-6.45,13.72c-3.98,6.95-8.05,13.89-12.36,20.64
						c-0.27,0.35-0.46,0.78-0.87,1.01c-0.1,0.02-0.31,0.14-0.59-0.11c-0.17-0.2-0.14-0.3-0.15-0.36c0.35-1.63,1.45-3.48,2.07-5
						c4.02-8.88,9.12-18.5,11.78-27.84c0.6-3.3,0.61-6.71,1.39-9.99c0.74-3.22,1.47-6.89,2.78-9.74c-2.1,6.56-2.81,13.1-3.48,19.89
						c-2.41,9.53-7.48,19.18-11.53,28.12c-0.55,1.17-1.67,3.51-2.02,4.5c-0.02-0.03,0.02-0.11-0.13-0.29
						c-0.32-0.25-0.46-0.12-0.59-0.07c0.31-0.34,0.93-1.31,1.21-1.73c5.78-9.29,11.81-18.47,16.93-28.14
						c0.79-1.51,1.39-3.01,1.68-4.7c0.84-3.28,1.97-6.52,3.78-9.4c1.72-2.97,4.81-4.68,6.85-7.42c3.19-3.9,6.08-8.05,8.85-12.26
						c1.9-2.79,3.6-5.63,5.13-8.66C268.95,74.96,272.17,68.67,275.67,63.19L275.67,63.19z"/>
				</g>
			</g>
			<g>
				<path d="M307.87,52.62c9.25-7.48,18.77-13.53,33.74-3.86c10.43,6.74,26.5,47.23,27.74,52.35c3.96,16.35,14.35,29.23,20.08,35.46
					c-2.69-1.15-2,5.07-18.28-7.91c-3.14-2.94-13.9-17.68-13.9-17.68c-9.27-15.01-16.14-32.8-19.72-43.15
					c-3.34-9.73-8.95-12.82-14.47-13.12c-0.46-0.03-0.9-0.03-1.35-0.03c-0.59,0.02-1.17,0.05-1.74,0.12
					c-0.51,0.05-1.01,0.14-1.5,0.22"/>
				<g>
					<path class="st8" d="M343.41,79.99c4.54,12.01,10.15,23.59,16.88,34.52c5.49,8.86,15.73,20.98,26.77,21.81
						c0.7-0.03,1.49-0.19,2-0.44l-0.17,1.28c-7.42-7.07-13.49-15.58-17.35-25.09c-1.28-3.16-2.25-6.44-2.84-9.78l0.16-0.04
						c4.14,13.18,12.3,24.86,21.96,34.59c-10.64,5.32-25.77-14.21-31.34-21.78c-5.72-7.85-10.11-16.63-13.38-25.76
						c-1.11-3.04-2.06-6.13-2.84-9.26L343.41,79.99L343.41,79.99z"/>
				</g>
				<g>
					<path d="M300.22,69.49c1.1-6.55,5.82-12.6,12.44-14.28c9.04-2.95,18.06,0.18,22.51,8.74c1.02,1.86,1.82,3.82,2.48,5.82
						l-0.32,0.11c-1.42-3.89-3.58-7.65-6.78-10.17c-6.45-5.07-15.63-2.95-22.17,0.87c-3.16,2.11-5.69,5.44-7.84,9.02L300.22,69.49
						L300.22,69.49z"/>
				</g>
				<g>
					<path class="st8" d="M306.32,53.61c6.75-5.58,15.98-11.19,25.03-8.83c10.21,3.35,19.05,11.61,22.7,21.79
						c1.05,3.16,1.77,6.38,2.52,9.57c0.57,2.37,1.01,4.78,1.95,7.03c0.33,0.71,0.72,1.47,1.45,1.75l-0.04,0.16
						c-0.9-0.17-1.46-0.97-1.9-1.66c-1.27-2.16-1.97-4.59-2.74-6.94c-0.96-3.14-1.88-6.28-2.95-9.33
						c-2.89-8.2-10.54-17.87-18.83-21.04c-6.21-2.33-12.73,0.51-18.47,3.03c-2.94,1.37-5.81,2.93-8.63,4.6L306.32,53.61
						L306.32,53.61z"/>
				</g>
			</g>
			<g>
				<path d="M303.75,63.04c-2.3-2.38-6.72-4.58-9.83-5c-0.25-0.03-0.52-0.07-0.78-0.07c-0.15-0.03-0.29-0.05-0.42-0.05
					c-0.24-0.02-0.47-0.03-0.71-0.03c-0.3-0.03-0.59-0.03-0.88-0.03c-0.29-0.02-0.59-0.02-0.88-0.02c-1.23,0-2.47,0.08-3.66,0.2
					c-1.06,0.12-2.11,0.27-3.09,0.44c-1.33,0.22-2.62,0.62-3.85,1.15c-0.95,0.39-1.86,0.88-2.72,1.44c-1.42,0.93-2.7,2.04-3.8,3.36
					l-18.04,21.5c-5.02,5.96-10.66,10.94-16.28,15.03c-5.39,3.93-10.74,7.04-15.5,9.44c-0.66,0.32-1.3,0.64-1.93,0.95
					c-3.78,1.81-7.06,3.14-9.56,4.04c-4.56,1.64-6.48,1.86-3.72,0.95c3.55-1.18,9.06-6,17.48-15.21S260.8,50.32,271.36,47
					c15.38-4.84,21.48,0.91,24.87,4.38"/>
				<g>
					<path class="st8" d="M297.11,51.9c-13.87-8.58-29.56-5.32-40.2,6.6c-9.67,11.44-18.55,23.74-27.67,35.67
						c-3.05,4-6.05,8.03-9.24,11.93c-3.66,4.2-7.23,9.22-12.68,11.09c0.19-0.03,0.19-0.76-0.05-0.75c-0.32-0.13-0.18-0.05-0.21-0.08
						c-0.01,0,0.19-0.04,0.2-0.04c0,0,0.43-0.11,0.43-0.11c17.97-5.91,34.7-16.61,46.99-31.03c3.2-3.78,11.53-13.59,14.67-17.22
						c1.47-1.67,3.42-4.17,5.08-5.69c1.94-1.75,4.28-3.03,6.76-3.77c6.92-1.59,16.56-2.33,21.42,3.86c0,0-0.13,0.1-0.13,0.1
						c-3.26-4-8.85-4.48-13.67-4.17c-4.87,0.29-9.91,1.46-13.49,4.95c-1.47,1.4-3.48,4.05-4.84,5.66
						c-3,3.67-11.27,13.65-14.41,17.43c-12.31,14.49-29.12,24.98-47.19,30.61c-0.59,0.15-1.19,0.34-1.8,0.39
						c-0.07-0.03,0.03,0.07-0.33-0.08c-0.3,0.01-0.26-0.77-0.05-0.83c0.39-0.26,0.74-0.32,1.08-0.46
						c4.91-1.83,8.36-6.43,11.77-10.26c3.22-3.85,6.27-7.84,9.23-11.9c5.97-8.09,11.65-16.39,17.63-24.47
						c4.45-5.84,9.1-12.66,15.14-16.95c6.09-4.68,13.99-7.12,21.63-6.11c5.03,0.66,9.93,2.51,14.04,5.48
						C297.21,51.76,297.11,51.9,297.11,51.9L297.11,51.9z"/>
				</g>
			</g>
		</g>
		<path d="M455.39,484.53c-0.13,0.41-0.26,0.82-0.38,1.24c-0.17-0.54-0.36-1.09-0.55-1.64l0.65-0.25
			C455.21,484.1,455.3,484.31,455.39,484.53z"/>
	</g>
</g>
</svg>
