<?xml version="1.0" encoding="UTF-8"?>
<svg id="Capa_2" data-name="Capa 2" xmlns="http://www.w3.org/2000/svg" xmlns:xlink="http://www.w3.org/1999/xlink" viewBox="0 0 600 700">
  <defs>
    <style>
      .cls-1 {
        stroke: #8c00bf;
        stroke-width: 1.69px;
      }

      .cls-1, .cls-2 {
        fill: #fff;
      }

      .cls-1, .cls-3 {
        stroke-miterlimit: 10;
      }

      .cls-3 {
        stroke: #000;
        stroke-width: 1.66px;
      }

      .cls-3, .cls-4 {
        fill: none;
      }

      .cls-5 {
        fill: #e2caf5;
      }

      .cls-6, .cls-7 {
        fill: #22574a;
      }

      .cls-8 {
        fill: url(#Motivo_nuevo_5);
      }

      .cls-7 {
        fill-rule: evenodd;
      }
    </style>
    <pattern id="Motivo_nuevo_5" data-name="Motivo nuevo 5" x="0" y="0" width="665.26" height="556.14" patternTransform="translate(-178.8 -16566.18) rotate(-90)" patternUnits="userSpaceOnUse" viewBox="0 0 665.26 556.14">
      <g>
        <rect class="cls-4" width="665.26" height="556.14"/>
        <g>
          <path class="cls-7" d="m655.96,549.13c-1.33,0-2.51-.26-3.52-.8-1.01-.55-1.8-1.27-2.35-2.16-.56-.91-.84-1.9-.84-2.98v-1.76h0s-.03-7.38-.03-7.38c0-.34-.1-.65-.29-.94-.17-.28-.42-.51-.74-.68-.32-.17-.68-.26-1.06-.26s-.74.09-1.06.26c-.2.1-.37.23-.52.37-.08.09-.16.18-.22.28-.19.28-.29.6-.29.94l-.03,3.44h0v5.74c0,1.15-.3,2.18-.9,3.07-.58.89-1.38,1.59-2.39,2.1-1.01.51-2.16.77-3.45.77s-2.42-.26-3.45-.77c-1.01-.51-1.81-1.21-2.39-2.1-.58-.89-.87-1.91-.87-3.07v-9.15c0-.34-.1-.65-.29-.94-.19-.28-.45-.51-.77-.68-.32-.17-.68-.26-1.06-.26s-.74.09-1.06.26c-.3.17-.55.4-.74.68-.19.28-.29.6-.29.94v14.77h-4.61v-14.29c0-1.1.28-2.09.84-2.98.56-.89,1.34-1.6,2.35-2.13,1.01-.55,2.18-.82,3.52-.82s2.54.27,3.55.82c1.01.53,1.8,1.24,2.35,2.13.56.89.84,1.88.84,2.98v9.15c0,.34.1.65.29.94.19.28.44.51.74.68.32.17.68.26,1.06.26s.74-.09,1.06-.26c.32-.17.58-.4.77-.68.19-.28.29-.6.29-.94v-9.15c0-1.1.28-2.09.84-2.98.3-.48.66-.9,1.09-1.27,0,0,0,0,0,0,.38-.33.81-.63,1.29-.88,1.01-.55,2.18-.82,3.52-.82s2.54.27,3.55.82c1.01.53,1.8,1.24,2.35,2.13.56.89.84,1.88.84,2.98v9.17c0,.34.1.65.29.94.19.28.44.51.74.68.32.17.68.26,1.06.26s.74-.09,1.06-.26c.32-.17.58-.4.77-.68.19-.28.29-.6.29-.94v-14.77h4.61v14.29c0,1.08-.28,2.07-.84,2.98-.56.89-1.34,1.61-2.35,2.16-1.01.53-2.19.8-3.55.8Z"/>
          <path class="cls-7" d="m511.15,448.08c0-1.33-.26-2.51-.8-3.52-.55-1.01-1.27-1.8-2.16-2.35-.91-.56-1.9-.84-2.98-.84h-1.76s0,0,0,0l-7.38-.03c-.34,0-.65-.1-.94-.29-.28-.17-.51-.42-.68-.74-.17-.32-.26-.68-.26-1.06s.09-.74.26-1.06c.1-.2.23-.37.37-.52.09-.08.18-.16.28-.22.28-.19.6-.29.94-.29l3.44-.03h5.74c1.15,0,2.18-.3,3.07-.9.89-.58,1.59-1.38,2.1-2.39.51-1.01.77-2.16.77-3.45s-.26-2.42-.77-3.45c-.51-1.01-1.21-1.81-2.1-2.39-.89-.58-1.91-.87-3.07-.87h-9.15c-.34,0-.65-.1-.94-.29-.28-.19-.51-.45-.68-.77-.17-.32-.26-.68-.26-1.06,0-.39.09-.74.26-1.06.17-.3.4-.55.68-.74.28-.19.6-.29.94-.29h14.77s0-4.61,0-4.61h-14.29c-1.1,0-2.09.28-2.98.84-.89.56-1.6,1.34-2.13,2.35-.55,1.01-.82,2.18-.82,3.52,0,1.35.27,2.54.82,3.55.53,1.01,1.24,1.8,2.13,2.35.89.56,1.88.84,2.98.84h9.15c.34,0,.65.1.94.29.28.19.51.44.68.74.17.32.26.68.26,1.06,0,.39-.09.74-.26,1.06-.17.32-.4.58-.68.77-.28.19-.6.29-.94.29h-9.15c-1.1,0-2.09.28-2.98.84-.48.3-.9.66-1.27,1.09,0,0,0,0,0,0-.33.38-.63.81-.88,1.29-.55,1.01-.82,2.18-.82,3.52,0,1.35.27,2.54.82,3.55.53,1.01,1.24,1.8,2.13,2.35.89.56,1.88.84,2.98.84h9.17c.34,0,.65.1.94.29.28.19.51.44.68.74.17.32.26.68.26,1.06s-.09.74-.26,1.06c-.17.32-.4.58-.68.77-.28.19-.6.29-.94.29h-14.77s0,4.61,0,4.61h14.29c1.08,0,2.07-.28,2.98-.84.89-.56,1.61-1.34,2.16-2.35.53-1.01.8-2.19.8-3.55Z"/>
          <path class="cls-6" d="m535.57,459.99v-35.92h-8.1v35.92h8.1Zm11.62-28.21c.99-.96,1.48-2.12,1.48-3.49s-.49-2.59-1.48-3.56c-.99-.96-2.16-1.44-3.52-1.44s-2.54.48-3.52,1.44c-.99.96-1.48,2.15-1.48,3.56s.49,2.52,1.48,3.49c.99.96,2.16,1.44,3.52,1.44s2.54-.48,3.52-1.44Z"/>
          <path class="cls-6" d="m625.01,504.76c1.29-1.29,1.94-2.88,1.94-4.75s-.65-3.46-1.94-4.75c-1.29-1.29-2.88-1.94-4.75-1.94s-3.46.65-4.75,1.94-1.94,2.88-1.94,4.75.65,3.46,1.94,4.75c1.29,1.29,2.88,1.94,4.75,1.94s3.46-.64,4.75-1.94Zm-7.04-2.46c-.63-.63-.95-1.4-.95-2.29,0-.94.32-1.71.95-2.32.63-.61,1.4-.92,2.29-.92.94,0,1.71.31,2.32.92.61.61.92,1.39.92,2.32s-.31,1.66-.92,2.29c-.61.63-1.39.95-2.32.95s-1.66-.32-2.29-.95Z"/>
          <path class="cls-6" d="m664.14,457.7c1.38-1.38,2.08-3.2,2.08-5.46v-1.76h-5.07v1.83c0,.75-.19,1.33-.56,1.73-.38.4-.82.6-1.34.6-.56,0-1.07-.19-1.51-.56-.45-.38-.9-.8-1.37-1.27-.7-.61-1.55-1.26-2.54-1.94-.99-.68-2.28-1.02-3.87-1.02-2.07,0-3.79.69-5.18,2.08-1.39,1.38-2.08,3.2-2.08,5.46v1.69h5.07v-1.83c0-.71.19-1.26.56-1.66.38-.4.82-.6,1.34-.6.56,0,1.04.15,1.44.46.4.31.83.69,1.3,1.16.47.47.95.95,1.44,1.44.49.49,1.15.9,1.97,1.23.82.33,1.87.49,3.13.49,2.07,0,3.79-.69,5.18-2.08Z"/>
          <path class="cls-6" d="m633.38,328.98v-8.1h8.23v-4.67h-8.23v-8.1h-4.94v8.1h-8.19v4.67h8.19v8.1h4.94Z"/>
          <path class="cls-6" d="m587.97,527.32l-4.16-4.16-2.72,2.72c-1.3,1.3-2.74,2.16-4.33,2.59-1.58.43-3.17.41-4.75-.04-1.58-.45-3-1.3-4.24-2.55s-2.13-2.69-2.57-4.26c-.44-1.57-.45-3.15-.02-4.73.42-1.58,1.29-3.03,2.59-4.33l2.72-2.72-4.16-4.16-2.63,2.63c-2.23,2.23-3.75,4.71-4.54,7.42-.79,2.72-.88,5.39-.28,8.04.61,2.65,1.93,4.99,3.97,7.02s4.38,3.36,7.02,3.97c2.65.61,5.32.52,8.04-.28,2.72-.79,5.19-2.31,7.42-4.54l2.63-2.63Z"/>
          <path class="cls-6" d="m581.94,358.59h30.6v-6.9h-30.6v6.9Z"/>
          <path class="cls-6" d="m574.77,317.45v-3.83h-9.59c-.58,0-1.14-.14-1.68-.42s-.99-.69-1.34-1.23c-.35-.54-.52-1.18-.52-1.9,0-.55.08-1.09.25-1.59.17-.51.4-.96.69-1.37.94.72,1.97,1.3,3.09,1.74,1.12.43,2.21.65,3.27.65,1.33,0,2.39-.25,3.18-.74.8-.49,1.37-1.11,1.74-1.85.36-.74.54-1.49.54-2.26,0-.7-.18-1.42-.52-2.17-.35-.75-.93-1.37-1.74-1.88-.81-.51-1.89-.76-3.24-.76-1.06,0-2.15.22-3.26.65-1.11.43-2.15,1.03-3.11,1.77-.27-.41-.48-.85-.63-1.32-.16-.47-.24-.97-.24-1.5,0-.92.31-1.72.94-2.42.63-.7,1.5-1.05,2.6-1.05h9.55v-3.83h-9.26c-.94,0-1.89.13-2.86.38-.96.25-1.84.66-2.62,1.21-.78.56-1.42,1.29-1.9,2.21-.48.92-.72,2.05-.72,3.4,0,.99.2,1.94.61,2.86.41.92.98,1.74,1.7,2.46-.75.77-1.33,1.64-1.74,2.6-.41.97-.61,1.94-.61,2.93,0,1.45.33,2.71.99,3.8.66,1.09,1.6,1.94,2.82,2.55,1.22.62,2.65.92,4.29.92h9.3Zm-7.9-11.76c-.74-.22-1.43-.57-2.08-1.05.63-.46,1.31-.8,2.06-1.03.75-.23,1.42-.34,2.03-.34.68,0,1.19.13,1.54.4.35.27.52.59.52.98s-.17.71-.51.98c-.34.27-.84.4-1.52.4-.63,0-1.31-.11-2.04-.33Z"/>
          <path class="cls-6" d="m533.86,375.12v-7.76h7.89v-4.47h-7.89v-7.76h-4.73v7.76h-7.84v4.47h7.84v7.76h4.73Z"/>
          <path class="cls-6" d="m581.99,474.48l6,6.05,3.15-3.15-6-6.05,6-6-3.15-3.2-6,6-6-6-3.11,3.24,5.96,5.91-6.09,6.09,3.24,3.15,6-6.05Z"/>
          <path class="cls-6" d="m610.55,399.33c1.31-.8,2.37-1.88,3.17-3.24.8-1.36,1.2-2.89,1.2-4.58h-4.65c0,1.27-.39,2.32-1.16,3.17-.77.84-1.77,1.27-2.99,1.27s-2.16-.42-2.96-1.27c-.8-.85-1.2-1.9-1.2-3.17h-4.72c0,1.69.39,3.22,1.16,4.58.77,1.36,1.84,2.44,3.2,3.24,1.36.8,2.86,1.2,4.51,1.2s3.12-.4,4.44-1.2Z"/>
        </g>
        <g>
          <path class="cls-7" d="m178.53,587.11c0-1.33-.26-2.51-.8-3.52-.55-1.01-1.27-1.8-2.16-2.35-.91-.56-1.9-.84-2.98-.84h-1.76s0,0,0,0l-7.38-.03c-.34,0-.65-.1-.94-.29-.28-.17-.51-.42-.68-.74-.17-.32-.26-.68-.26-1.06s.09-.74.26-1.06c.1-.2.23-.37.37-.52.09-.08.18-.16.28-.22.28-.19.6-.29.94-.29l3.44-.03h5.74c1.15,0,2.18-.3,3.07-.9.89-.58,1.59-1.38,2.1-2.39.51-1.01.77-2.16.77-3.45s-.26-2.42-.77-3.45c-.51-1.01-1.21-1.81-2.1-2.39-.89-.58-1.91-.87-3.07-.87h-9.15c-.34,0-.65-.1-.94-.29-.28-.19-.51-.45-.68-.77-.17-.32-.26-.68-.26-1.06,0-.39.09-.74.26-1.06.17-.3.4-.55.68-.74.28-.19.6-.29.94-.29h14.77s0-4.61,0-4.61h-14.29c-1.1,0-2.09.28-2.98.84-.89.56-1.6,1.34-2.13,2.35-.55,1.01-.82,2.18-.82,3.52,0,1.35.27,2.54.82,3.55.53,1.01,1.24,1.8,2.13,2.35.89.56,1.88.84,2.98.84h9.15c.34,0,.65.1.94.29.28.19.51.44.68.74.17.32.26.68.26,1.06,0,.39-.09.74-.26,1.06-.17.32-.4.58-.68.77-.28.19-.6.29-.94.29h-9.15c-1.1,0-2.09.28-2.98.84-.48.3-.9.66-1.27,1.09,0,0,0,0,0,0-.33.38-.63.81-.88,1.29-.55,1.01-.82,2.18-.82,3.52,0,1.35.27,2.54.82,3.55.53,1.01,1.24,1.8,2.13,2.35.89.56,1.88.84,2.98.84h9.17c.34,0,.65.1.94.29.28.19.51.44.68.74.17.32.26.68.26,1.06s-.09.74-.26,1.06c-.17.32-.4.58-.68.77-.28.19-.6.29-.94.29h-14.77s0,4.61,0,4.61h14.29c1.08,0,2.07-.28,2.98-.84.89-.56,1.61-1.34,2.16-2.35.53-1.01.8-2.19.8-3.55Z"/>
          <path class="cls-6" d="m359.89,453.48v-35.92h-8.1v35.92h8.1Z"/>
          <path class="cls-6" d="m438.12,480.12l4.12,4.12,10.29-10.29c.62-.62,1.37-1.07,2.25-1.36.88-.29,1.8-.32,2.76-.12.96.21,1.82.7,2.6,1.48.6.6,1.07,1.26,1.44,1.98.36.72.61,1.46.74,2.21-1.79.23-3.51.72-5.18,1.46-1.67.74-3.07,1.68-4.21,2.81-1.42,1.42-2.3,2.83-2.62,4.21-.32,1.38-.29,2.67.12,3.84.4,1.18,1.02,2.18,1.84,3.01.75.75,1.71,1.34,2.89,1.77,1.18.43,2.47.48,3.88.16,1.41-.32,2.84-1.21,4.29-2.66,1.14-1.14,2.07-2.54,2.79-4.19.73-1.66,1.2-3.4,1.44-5.24.72.15,1.42.4,2.1.74.67.34,1.29.79,1.86,1.36.98.98,1.51,2.19,1.59,3.61.08,1.42-.48,2.73-1.67,3.92l-10.25,10.25,4.12,4.12,9.94-9.94c1.01-1.01,1.9-2.17,2.66-3.48.76-1.31,1.27-2.68,1.51-4.12.25-1.44.14-2.91-.33-4.41-.47-1.5-1.42-2.98-2.87-4.43-1.06-1.06-2.3-1.86-3.73-2.41-1.42-.54-2.91-.82-4.46-.82-.03-1.63-.34-3.18-.93-4.66-.59-1.48-1.42-2.74-2.48-3.8-1.55-1.55-3.27-2.56-5.14-3.01-1.88-.45-3.8-.36-5.77.29-1.97.65-3.83,1.85-5.59,3.61l-9.98,9.98Zm21.1,4.13c1.02-.56,2.14-.93,3.36-1.11-.18,1.16-.55,2.27-1.11,3.32-.56,1.05-1.16,1.9-1.81,2.54-.72.72-1.42,1.13-2.08,1.22-.66.09-1.2-.07-1.61-.49s-.58-.95-.5-1.59c.08-.65.48-1.33,1.2-2.06.67-.67,1.52-1.29,2.54-1.84Z"/>
          <path class="cls-6" d="m300.76,468.02v-8.1h8.23v-4.67h-8.23v-8.1h-4.94v8.1h-8.19v4.67h8.19v8.1h4.94Z"/>
          <path class="cls-6" d="m249.31,497.62h30.6v-6.9h-30.6v6.9Z"/>
          <path class="cls-6" d="m242.14,456.49v-3.83h-9.59c-.58,0-1.14-.14-1.68-.42s-.99-.69-1.34-1.23c-.35-.54-.52-1.18-.52-1.9,0-.55.08-1.09.25-1.59.17-.51.4-.96.69-1.37.94.72,1.97,1.3,3.09,1.74,1.12.43,2.21.65,3.27.65,1.33,0,2.39-.25,3.18-.74.8-.49,1.37-1.11,1.74-1.85.36-.74.54-1.49.54-2.26,0-.7-.18-1.42-.52-2.17-.35-.75-.93-1.37-1.74-1.88-.81-.51-1.89-.76-3.24-.76-1.06,0-2.15.22-3.26.65-1.11.43-2.15,1.03-3.11,1.77-.27-.41-.48-.85-.63-1.32-.16-.47-.24-.97-.24-1.5,0-.92.31-1.72.94-2.42.63-.7,1.5-1.05,2.6-1.05h9.55v-3.83h-9.26c-.94,0-1.89.13-2.86.38-.96.25-1.84.66-2.62,1.21-.78.56-1.42,1.29-1.9,2.21-.48.92-.72,2.05-.72,3.4,0,.99.2,1.94.61,2.86.41.92.98,1.74,1.7,2.46-.75.77-1.33,1.64-1.74,2.6-.41.97-.61,1.94-.61,2.93,0,1.45.33,2.71.99,3.8.66,1.09,1.6,1.94,2.82,2.55,1.22.62,2.65.92,4.29.92h9.3Zm-7.9-11.76c-.74-.22-1.43-.57-2.08-1.05.63-.46,1.31-.8,2.06-1.03.75-.23,1.42-.34,2.03-.34.68,0,1.19.13,1.54.4.35.27.52.59.52.98s-.17.71-.51.98c-.34.27-.84.4-1.52.4-.63,0-1.31-.11-2.04-.33Z"/>
          <path class="cls-6" d="m352.34,522.64c1.46-.88,2.64-2.06,3.54-3.54.9-1.48,1.35-3.12,1.35-4.92s-.45-3.5-1.35-4.98c-.9-1.48-2.09-2.66-3.57-3.54-1.48-.88-3.14-1.32-4.98-1.32s-3.39.44-4.89,1.32c-1.5.88-2.69,2.06-3.57,3.54-.88,1.48-1.32,3.12-1.32,4.92s.44,3.45,1.32,4.95c.88,1.5,2.07,2.69,3.57,3.57s3.15,1.32,4.95,1.32,3.49-.44,4.95-1.32Zm-7.47-4.14c-.76-.44-1.36-1.04-1.8-1.8-.44-.76-.66-1.6-.66-2.52s.22-1.81.66-2.55c.44-.74,1.04-1.33,1.8-1.77.76-.44,1.6-.66,2.52-.66s1.75.22,2.49.66c.74.44,1.33,1.03,1.77,1.77.44.74.66,1.59.66,2.55s-.22,1.76-.66,2.52c-.44.76-1.03,1.36-1.77,1.8-.74.44-1.57.66-2.49.66s-1.76-.22-2.52-.66Z"/>
          <path class="cls-6" d="m425.13,542.81v-3.42h-1.33c-1.74-.02-3.34-.34-4.81-.94-1.48-.61-2.76-1.45-3.86-2.54-1.1-1.08-1.94-2.33-2.54-3.74-.6-1.41-.89-2.92-.89-4.52s.3-3.18.89-4.6c.6-1.42,1.44-2.67,2.54-3.74,1.09-1.07,2.35-1.91,3.77-2.52,1.42-.61,2.94-.91,4.57-.91s3.18.3,4.6.91c1.42.61,2.67,1.45,3.76,2.52,1.08,1.07,1.93,2.32,2.54,3.74.61,1.42.91,2.96.91,4.6,0,.72-.07,1.37-.2,1.95-.13.59-.37,1.05-.72,1.38-.35.34-.84.5-1.46.5-.41,0-.79-.09-1.12-.28-.34-.18-.6-.46-.8-.81-.2-.36-.29-.76-.29-1.22v-1.53c0-1.34-.33-2.56-.98-3.66-.65-1.09-1.52-1.96-2.62-2.6-1.1-.64-2.32-.96-3.66-.96s-2.5.32-3.59.96c-1.1.64-1.97,1.51-2.62,2.6-.65,1.1-.98,2.32-.98,3.66s.33,2.5.98,3.59c.65,1.1,1.52,1.96,2.62,2.6,1.09.64,2.29.96,3.59.96,1.02,0,1.95-.22,2.8-.67.85-.44,1.56-1.04,2.15-1.77.5.74,1.13,1.33,1.9,1.77.77.44,1.64.67,2.62.67,1.3,0,2.38-.3,3.24-.91.86-.61,1.5-1.45,1.92-2.54.42-1.08.63-2.32.63-3.71,0-2.1-.39-4.07-1.17-5.9s-1.87-3.45-3.27-4.85-3.02-2.49-4.86-3.27c-1.84-.78-3.82-1.17-5.92-1.17s-4.08.39-5.92,1.17c-1.84.78-3.46,1.87-4.86,3.27-1.4,1.4-2.49,3.01-3.27,4.85s-1.17,3.8-1.17,5.9.39,4.04,1.17,5.87c.78,1.83,1.87,3.44,3.27,4.83,1.4,1.39,3.05,2.48,4.94,3.27,1.9.79,3.95,1.19,6.16,1.19h1.33Zm-3.63-11.86c-.58-.36-1.02-.83-1.33-1.43-.31-.6-.47-1.22-.47-1.87,0-.69.16-1.33.47-1.92.31-.59.76-1.06,1.33-1.43.57-.37,1.22-.55,1.94-.55.76,0,1.42.18,1.98.55.56.37,1.01.85,1.33,1.43s.49,1.23.49,1.92c0,.65-.16,1.27-.49,1.87-.33.6-.77,1.07-1.33,1.43-.56.36-1.23.54-1.98.54-.72,0-1.36-.18-1.94-.54Z"/>
          <path class="cls-6" d="m412.59,439.84l8.22,8.28,4.32-4.32-8.22-8.28,8.22-8.22-4.32-4.38-8.22,8.22-8.22-8.22-4.26,4.44,8.16,8.1-8.34,8.34,4.44,4.32,8.22-8.28Z"/>
          <path class="cls-6" d="m201.24,514.15v-7.76h7.89v-4.47h-7.89v-7.76h-4.73v7.76h-7.84v4.47h7.84v7.76h4.73Z"/>
          <path class="cls-6" d="m510.7,543.76c2.01-2.01,3.02-4.66,3.02-7.93v-2.56h-7.37v2.66c0,1.09-.27,1.93-.82,2.51-.55.58-1.19.87-1.94.87-.82,0-1.55-.27-2.2-.82-.65-.54-1.31-1.16-2-1.84-1.02-.89-2.25-1.82-3.68-2.81-1.43-.99-3.31-1.48-5.63-1.48-3,0-5.51,1.01-7.52,3.02-2.01,2.01-3.02,4.66-3.02,7.93v2.45h7.37v-2.66c0-1.02.27-1.82.82-2.4.55-.58,1.19-.87,1.94-.87.82,0,1.52.22,2.1.66.58.45,1.21,1.01,1.89,1.69.68.68,1.38,1.38,2.1,2.1.72.72,1.67,1.31,2.87,1.79,1.19.48,2.71.72,4.55.72,3,0,5.51-1.01,7.52-3.02Z"/>
          <path class="cls-6" d="m277.92,538.37c1.31-.8,2.37-1.88,3.17-3.24.8-1.36,1.2-2.89,1.2-4.58h-4.65c0,1.27-.39,2.32-1.16,3.17-.77.84-1.77,1.27-2.99,1.27s-2.16-.42-2.96-1.27c-.8-.85-1.2-1.9-1.2-3.17h-4.72c0,1.69.39,3.22,1.16,4.58.77,1.36,1.84,2.44,3.2,3.24,1.36.8,2.86,1.2,4.51,1.2s3.12-.4,4.44-1.2Z"/>
        </g>
        <g>
          <path class="cls-6" d="m27.26,314.45v-35.92h-8.1v35.92h8.1Z"/>
          <path class="cls-6" d="m-1.11,457.7c1.38-1.38,2.08-3.2,2.08-5.46v-1.76h-5.07v1.83c0,.75-.19,1.33-.56,1.73-.38.4-.82.6-1.34.6-.56,0-1.07-.19-1.51-.56-.45-.38-.9-.8-1.37-1.27-.7-.61-1.55-1.26-2.54-1.94-.99-.68-2.28-1.02-3.87-1.02-2.07,0-3.79.69-5.18,2.08-1.39,1.38-2.08,3.2-2.08,5.46v1.69h5.07v-1.83c0-.71.19-1.26.56-1.66.38-.4.82-.6,1.34-.6.56,0,1.04.15,1.44.46.4.31.83.69,1.3,1.16.47.47.95.95,1.44,1.44.49.49,1.15.9,1.97,1.23.82.33,1.87.49,3.13.49,2.07,0,3.79-.69,5.18-2.08Z"/>
          <path class="cls-6" d="m105.49,341.08l4.12,4.12,10.29-10.29c.62-.62,1.37-1.07,2.25-1.36.88-.29,1.8-.32,2.76-.12.96.21,1.82.7,2.6,1.48.6.6,1.07,1.26,1.44,1.98.36.72.61,1.46.74,2.21-1.79.23-3.51.72-5.18,1.46-1.67.74-3.07,1.68-4.21,2.81-1.42,1.42-2.3,2.83-2.62,4.21-.32,1.38-.29,2.67.12,3.84.4,1.18,1.02,2.18,1.84,3.01.75.75,1.71,1.34,2.89,1.77,1.18.43,2.47.48,3.88.16,1.41-.32,2.84-1.21,4.29-2.66,1.14-1.14,2.07-2.54,2.79-4.19.73-1.66,1.2-3.4,1.44-5.24.72.15,1.42.4,2.1.74.67.34,1.29.79,1.86,1.36.98.98,1.51,2.19,1.59,3.61.08,1.42-.48,2.73-1.67,3.92l-10.25,10.25,4.12,4.12,9.94-9.94c1.01-1.01,1.9-2.17,2.66-3.48.76-1.31,1.27-2.68,1.51-4.12.25-1.44.14-2.91-.33-4.41-.47-1.5-1.42-2.98-2.87-4.43-1.06-1.06-2.3-1.86-3.73-2.41-1.42-.54-2.91-.82-4.46-.82-.03-1.63-.34-3.18-.93-4.66-.59-1.48-1.42-2.74-2.48-3.8-1.55-1.55-3.27-2.56-5.14-3.01-1.88-.45-3.8-.36-5.77.29-1.97.65-3.83,1.85-5.59,3.61l-9.98,9.98Zm21.1,4.13c1.02-.56,2.14-.93,3.36-1.11-.18,1.16-.55,2.27-1.11,3.32-.56,1.05-1.16,1.9-1.81,2.54-.72.72-1.42,1.13-2.08,1.22-.66.09-1.2-.07-1.61-.49s-.58-.95-.5-1.59c.08-.65.48-1.33,1.2-2.06.67-.67,1.52-1.29,2.54-1.84Z"/>
          <path class="cls-6" d="m73.23,532.02h43.8v-6.9h-43.8v6.9Z"/>
          <path class="cls-6" d="m133.1,470.12v-30.6h-6.9v30.6h6.9Z"/>
          <path class="cls-6" d="m34.03,443.34h5.88v-3.84c0-1.84.41-3.47,1.23-4.89.82-1.42,1.95-2.53,3.39-3.33,1.44-.8,3.04-1.2,4.8-1.2s3.41.4,4.83,1.2c1.42.8,2.54,1.91,3.36,3.33.82,1.42,1.23,3.05,1.23,4.89v3.84h5.88v-3.72c0-3.16-.68-5.98-2.04-8.46-1.36-2.48-3.19-4.44-5.49-5.88-2.3-1.44-4.89-2.16-7.77-2.16s-5.47.72-7.77,2.16c-2.3,1.44-4.13,3.4-5.49,5.88-1.36,2.48-2.04,5.3-2.04,8.46v3.72Z"/>
          <path class="cls-6" d="m19.71,383.61c1.46-.88,2.64-2.06,3.54-3.54.9-1.48,1.35-3.12,1.35-4.92s-.45-3.5-1.35-4.98c-.9-1.48-2.09-2.66-3.57-3.54-1.48-.88-3.14-1.32-4.98-1.32s-3.39.44-4.89,1.32c-1.5.88-2.69,2.06-3.57,3.54-.88,1.48-1.32,3.12-1.32,4.92s.44,3.45,1.32,4.95c.88,1.5,2.07,2.69,3.57,3.57s3.15,1.32,4.95,1.32,3.49-.44,4.95-1.32Zm-7.47-4.14c-.76-.44-1.36-1.04-1.8-1.8-.44-.76-.66-1.6-.66-2.52s.22-1.81.66-2.55c.44-.74,1.04-1.33,1.8-1.77.76-.44,1.6-.66,2.52-.66s1.75.22,2.49.66c.74.44,1.33,1.03,1.77,1.77.44.74.66,1.59.66,2.55s-.22,1.76-.66,2.52c-.44.76-1.03,1.36-1.77,1.8-.74.44-1.57.66-2.49.66s-1.76-.22-2.52-.66Z"/>
          <path class="cls-6" d="m51.76,507.96v-7.02l6.06,3.48,2.4-4.14-6.06-3.48,6.06-3.54-2.4-4.14-6.06,3.54v-7.08h-4.8v7.08l-6.12-3.54-2.4,4.14,6.06,3.54-6.06,3.48,2.4,4.14,6.12-3.48v7.02h4.8Z"/>
          <path class="cls-6" d="m92.51,403.78v-3.42h-1.33c-1.74-.02-3.34-.34-4.81-.94-1.48-.61-2.76-1.45-3.86-2.54-1.1-1.08-1.94-2.33-2.54-3.74-.6-1.41-.89-2.92-.89-4.52s.3-3.18.89-4.6c.6-1.42,1.44-2.67,2.54-3.74,1.09-1.07,2.35-1.91,3.77-2.52,1.42-.61,2.94-.91,4.57-.91s3.18.3,4.6.91c1.42.61,2.67,1.45,3.76,2.52,1.08,1.07,1.93,2.32,2.54,3.74.61,1.42.91,2.96.91,4.6,0,.72-.07,1.37-.2,1.95-.13.59-.37,1.05-.72,1.38-.35.34-.84.5-1.46.5-.41,0-.79-.09-1.12-.28-.34-.18-.6-.46-.8-.81-.2-.36-.29-.76-.29-1.22v-1.53c0-1.34-.33-2.56-.98-3.66-.65-1.09-1.52-1.96-2.62-2.6-1.1-.64-2.32-.96-3.66-.96s-2.5.32-3.59.96c-1.1.64-1.97,1.51-2.62,2.6-.65,1.1-.98,2.32-.98,3.66s.33,2.5.98,3.59c.65,1.1,1.52,1.96,2.62,2.6,1.09.64,2.29.96,3.59.96,1.02,0,1.95-.22,2.8-.67.85-.44,1.56-1.04,2.15-1.77.5.74,1.13,1.33,1.9,1.77.77.44,1.64.67,2.62.67,1.3,0,2.38-.3,3.24-.91.86-.61,1.5-1.45,1.92-2.54.42-1.08.63-2.32.63-3.71,0-2.1-.39-4.07-1.17-5.9s-1.87-3.45-3.27-4.85-3.02-2.49-4.86-3.27c-1.84-.78-3.82-1.17-5.92-1.17s-4.08.39-5.92,1.17c-1.84.78-3.46,1.87-4.86,3.27-1.4,1.4-2.49,3.01-3.27,4.85s-1.17,3.8-1.17,5.9.39,4.04,1.17,5.87c.78,1.83,1.87,3.44,3.27,4.83,1.4,1.39,3.05,2.48,4.94,3.27,1.9.79,3.95,1.19,6.16,1.19h1.33Zm-3.63-11.86c-.58-.36-1.02-.83-1.33-1.43-.31-.6-.47-1.22-.47-1.87,0-.69.16-1.33.47-1.92.31-.59.76-1.06,1.33-1.43.57-.37,1.22-.55,1.94-.55.76,0,1.42.18,1.98.55.56.37,1.01.85,1.33,1.43s.49,1.23.49,1.92c0,.65-.16,1.27-.49,1.87-.33.6-.77,1.07-1.33,1.43-.56.36-1.23.54-1.98.54-.72,0-1.36-.18-1.94-.54Z"/>
          <path class="cls-6" d="m185.23,458.31c1.52-.86,2.71-2.03,3.57-3.51.86-1.48,1.29-3.12,1.29-4.92s-.43-3.5-1.29-4.98c-.86-1.48-2.05-2.65-3.57-3.51-1.52-.86-3.22-1.29-5.1-1.29s-3.52.43-5.04,1.29c-1.52.86-2.71,2.03-3.57,3.51-.86,1.48-1.29,3.14-1.29,4.98s.43,3.44,1.29,4.92c.86,1.48,2.05,2.65,3.57,3.51,1.52.86,3.2,1.29,5.04,1.29s3.58-.43,5.1-1.29Zm-7.92-3.39c-.8-.52-1.42-1.22-1.86-2.1-.44-.88-.66-1.86-.66-2.94s.22-2.12.66-3c.44-.88,1.06-1.58,1.86-2.1.8-.52,1.74-.78,2.82-.78s2.07.26,2.85.78c.78.52,1.4,1.22,1.86,2.1.46.88.69,1.88.69,3s-.23,2.06-.69,2.94c-.46.88-1.08,1.58-1.86,2.1-.78.52-1.73.78-2.85.78s-2.02-.26-2.82-.78Z"/>
          <path class="cls-6" d="m79.97,300.81l8.22,8.28,4.32-4.32-8.22-8.28,8.22-8.22-4.32-4.38-8.22,8.22-8.22-8.22-4.26,4.44,8.16,8.1-8.34,8.34,4.44,4.32,8.22-8.28Z"/>
          <path class="cls-6" d="m178.07,404.72c2.01-2.01,3.02-4.66,3.02-7.93v-2.56h-7.37v2.66c0,1.09-.27,1.93-.82,2.51-.55.58-1.19.87-1.94.87-.82,0-1.55-.27-2.2-.82-.65-.54-1.31-1.16-2-1.84-1.02-.89-2.25-1.82-3.68-2.81-1.43-.99-3.31-1.48-5.63-1.48-3,0-5.51,1.01-7.52,3.02-2.01,2.01-3.02,4.66-3.02,7.93v2.45h7.37v-2.66c0-1.02.27-1.82.82-2.4.55-.58,1.19-.87,1.94-.87.82,0,1.52.22,2.1.66.58.45,1.21,1.01,1.89,1.69.68.68,1.38,1.38,2.1,2.1.72.72,1.67,1.31,2.87,1.79,1.19.48,2.71.72,4.55.72,3,0,5.51-1.01,7.52-3.02Z"/>
        </g>
        <g>
          <path class="cls-7" d="m655.96,271.06c-1.33,0-2.51-.26-3.52-.8-1.01-.55-1.8-1.27-2.35-2.16-.56-.91-.84-1.9-.84-2.98v-1.76h0s-.03-7.38-.03-7.38c0-.34-.1-.65-.29-.94-.17-.28-.42-.51-.74-.68-.32-.17-.68-.26-1.06-.26s-.74.09-1.06.26c-.2.1-.37.23-.52.37-.08.09-.16.18-.22.28-.19.28-.29.6-.29.94l-.03,3.44h0v5.74c0,1.15-.3,2.18-.9,3.07-.58.89-1.38,1.59-2.39,2.1-1.01.51-2.16.77-3.45.77s-2.42-.26-3.45-.77c-1.01-.51-1.81-1.21-2.39-2.1-.58-.89-.87-1.91-.87-3.07v-9.15c0-.34-.1-.65-.29-.94-.19-.28-.45-.51-.77-.68-.32-.17-.68-.26-1.06-.26s-.74.09-1.06.26c-.3.17-.55.4-.74.68-.19.28-.29.6-.29.94v14.77h-4.61v-14.29c0-1.1.28-2.09.84-2.98.56-.89,1.34-1.6,2.35-2.13,1.01-.55,2.18-.82,3.52-.82s2.54.27,3.55.82c1.01.53,1.8,1.24,2.35,2.13.56.89.84,1.88.84,2.98v9.15c0,.34.1.65.29.94.19.28.44.51.74.68.32.17.68.26,1.06.26s.74-.09,1.06-.26c.32-.17.58-.4.77-.68.19-.28.29-.6.29-.94v-9.15c0-1.1.28-2.09.84-2.98.3-.48.66-.9,1.09-1.27,0,0,0,0,0,0,.38-.33.81-.63,1.29-.88,1.01-.55,2.18-.82,3.52-.82s2.54.27,3.55.82c1.01.53,1.8,1.24,2.35,2.13.56.89.84,1.88.84,2.98v9.17c0,.34.1.65.29.94.19.28.44.51.74.68.32.17.68.26,1.06.26s.74-.09,1.06-.26c.32-.17.58-.4.77-.68.19-.28.29-.6.29-.94v-14.77h4.61v14.29c0,1.08-.28,2.07-.84,2.98-.56.89-1.34,1.61-2.35,2.16-1.01.53-2.19.8-3.55.8Z"/>
          <path class="cls-7" d="m511.15,170c0-1.33-.26-2.51-.8-3.52-.55-1.01-1.27-1.8-2.16-2.35-.91-.56-1.9-.84-2.98-.84h-1.76s0,0,0,0l-7.38-.03c-.34,0-.65-.1-.94-.29-.28-.17-.51-.42-.68-.74-.17-.32-.26-.68-.26-1.06s.09-.74.26-1.06c.1-.2.23-.37.37-.52.09-.08.18-.16.28-.22.28-.19.6-.29.94-.29l3.44-.03h5.74c1.15,0,2.18-.3,3.07-.9.89-.58,1.59-1.38,2.1-2.39.51-1.01.77-2.16.77-3.45s-.26-2.42-.77-3.45c-.51-1.01-1.21-1.81-2.1-2.39-.89-.58-1.91-.87-3.07-.87h-9.15c-.34,0-.65-.1-.94-.29-.28-.19-.51-.45-.68-.77-.17-.32-.26-.68-.26-1.06,0-.39.09-.74.26-1.06.17-.3.4-.55.68-.74.28-.19.6-.29.94-.29h14.77s0-4.61,0-4.61h-14.29c-1.1,0-2.09.28-2.98.84-.89.56-1.6,1.34-2.13,2.35-.55,1.01-.82,2.18-.82,3.52,0,1.35.27,2.54.82,3.55.53,1.01,1.24,1.8,2.13,2.35.89.56,1.88.84,2.98.84h9.15c.34,0,.65.1.94.29.28.19.51.44.68.74.17.32.26.68.26,1.06,0,.39-.09.74-.26,1.06-.17.32-.4.58-.68.77-.28.19-.6.29-.94.29h-9.15c-1.1,0-2.09.28-2.98.84-.48.3-.9.66-1.27,1.09,0,0,0,0,0,0-.33.38-.63.81-.88,1.29-.55,1.01-.82,2.18-.82,3.52,0,1.35.27,2.54.82,3.55.53,1.01,1.24,1.8,2.13,2.35.89.56,1.88.84,2.98.84h9.17c.34,0,.65.1.94.29.28.19.51.44.68.74.17.32.26.68.26,1.06s-.09.74-.26,1.06c-.17.32-.4.58-.68.77-.28.19-.6.29-.94.29h-14.77s0,4.61,0,4.61h14.29c1.08,0,2.07-.28,2.98-.84.89-.56,1.61-1.34,2.16-2.35.53-1.01.8-2.19.8-3.55Z"/>
          <path class="cls-6" d="m535.57,181.92v-35.92h-8.1v35.92h8.1Zm11.62-28.21c.99-.96,1.48-2.12,1.48-3.49s-.49-2.59-1.48-3.56c-.99-.96-2.16-1.44-3.52-1.44s-2.54.48-3.52,1.44c-.99.96-1.48,2.15-1.48,3.56s.49,2.52,1.48,3.49c.99.96,2.16,1.44,3.52,1.44s2.54-.48,3.52-1.44Z"/>
          <path class="cls-6" d="m625.01,226.69c1.29-1.29,1.94-2.88,1.94-4.75s-.65-3.46-1.94-4.75c-1.29-1.29-2.88-1.94-4.75-1.94s-3.46.65-4.75,1.94-1.94,2.88-1.94,4.75.65,3.46,1.94,4.75c1.29,1.29,2.88,1.94,4.75,1.94s3.46-.64,4.75-1.94Zm-7.04-2.46c-.63-.63-.95-1.4-.95-2.29,0-.94.32-1.71.95-2.32.63-.61,1.4-.92,2.29-.92.94,0,1.71.31,2.32.92.61.61.92,1.39.92,2.32s-.31,1.66-.92,2.29c-.61.63-1.39.95-2.32.95s-1.66-.32-2.29-.95Z"/>
          <path class="cls-6" d="m664.14,179.63c1.38-1.38,2.08-3.2,2.08-5.46v-1.76h-5.07v1.83c0,.75-.19,1.33-.56,1.73-.38.4-.82.6-1.34.6-.56,0-1.07-.19-1.51-.56-.45-.38-.9-.8-1.37-1.27-.7-.61-1.55-1.26-2.54-1.94-.99-.68-2.28-1.02-3.87-1.02-2.07,0-3.79.69-5.18,2.08-1.39,1.38-2.08,3.2-2.08,5.46v1.69h5.07v-1.83c0-.71.19-1.26.56-1.66.38-.4.82-.6,1.34-.6.56,0,1.04.15,1.44.46.4.31.83.69,1.3,1.16.47.47.95.95,1.44,1.44.49.49,1.15.9,1.97,1.23.82.33,1.87.49,3.13.49,2.07,0,3.79-.69,5.18-2.08Z"/>
          <path class="cls-6" d="m633.38,50.91v-8.1h8.23v-4.67h-8.23v-8.1h-4.94v8.1h-8.19v4.67h8.19v8.1h4.94Z"/>
          <path class="cls-6" d="m587.97,249.25l-4.16-4.16-2.72,2.72c-1.3,1.3-2.74,2.16-4.33,2.59-1.58.43-3.17.41-4.75-.04-1.58-.45-3-1.3-4.24-2.55s-2.13-2.69-2.57-4.26c-.44-1.57-.45-3.15-.02-4.73.42-1.58,1.29-3.03,2.59-4.33l2.72-2.72-4.16-4.16-2.63,2.63c-2.23,2.23-3.75,4.71-4.54,7.42-.79,2.72-.88,5.39-.28,8.04.61,2.65,1.93,4.99,3.97,7.02s4.38,3.36,7.02,3.97c2.65.61,5.32.52,8.04-.28,2.72-.79,5.19-2.31,7.42-4.54l2.63-2.63Z"/>
          <path class="cls-6" d="m581.94,80.52h30.6v-6.9h-30.6v6.9Z"/>
          <path class="cls-6" d="m574.77,39.38v-3.83h-9.59c-.58,0-1.14-.14-1.68-.42s-.99-.69-1.34-1.23c-.35-.54-.52-1.18-.52-1.9,0-.55.08-1.09.25-1.59.17-.51.4-.96.69-1.37.94.72,1.97,1.3,3.09,1.74,1.12.43,2.21.65,3.27.65,1.33,0,2.39-.25,3.18-.74.8-.49,1.37-1.11,1.74-1.85.36-.74.54-1.49.54-2.26,0-.7-.18-1.42-.52-2.17-.35-.75-.93-1.37-1.74-1.88-.81-.51-1.89-.76-3.24-.76-1.06,0-2.15.22-3.26.65-1.11.43-2.15,1.03-3.11,1.77-.27-.41-.48-.85-.63-1.32-.16-.47-.24-.97-.24-1.5,0-.92.31-1.72.94-2.42.63-.7,1.5-1.05,2.6-1.05h9.55v-3.83h-9.26c-.94,0-1.89.13-2.86.38-.96.25-1.84.66-2.62,1.21-.78.56-1.42,1.29-1.9,2.21-.48.92-.72,2.05-.72,3.4,0,.99.2,1.94.61,2.86.41.92.98,1.74,1.7,2.46-.75.77-1.33,1.64-1.74,2.6-.41.97-.61,1.94-.61,2.93,0,1.45.33,2.71.99,3.8.66,1.09,1.6,1.94,2.82,2.55,1.22.62,2.65.92,4.29.92h9.3Zm-7.9-11.76c-.74-.22-1.43-.57-2.08-1.05.63-.46,1.31-.8,2.06-1.03.75-.23,1.42-.34,2.03-.34.68,0,1.19.13,1.54.4.35.27.52.59.52.98s-.17.71-.51.98c-.34.27-.84.4-1.52.4-.63,0-1.31-.11-2.04-.33Z"/>
          <path class="cls-6" d="m533.86,97.05v-7.76h7.89v-4.47h-7.89v-7.76h-4.73v7.76h-7.84v4.47h7.84v7.76h4.73Z"/>
          <path class="cls-6" d="m581.99,196.41l6,6.05,3.15-3.15-6-6.05,6-6-3.15-3.2-6,6-6-6-3.11,3.24,5.96,5.91-6.09,6.09,3.24,3.15,6-6.05Z"/>
          <path class="cls-6" d="m610.55,121.26c1.31-.8,2.37-1.88,3.17-3.24.8-1.36,1.2-2.89,1.2-4.58h-4.65c0,1.27-.39,2.32-1.16,3.17-.77.84-1.77,1.27-2.99,1.27s-2.16-.42-2.96-1.27c-.8-.85-1.2-1.9-1.2-3.17h-4.72c0,1.69.39,3.22,1.16,4.58.77,1.36,1.84,2.44,3.2,3.24,1.36.8,2.86,1.2,4.51,1.2s3.12-.4,4.44-1.2Z"/>
        </g>
        <g>
          <path class="cls-7" d="m323.33,410.09c-1.33,0-2.51-.26-3.52-.8-1.01-.55-1.8-1.27-2.35-2.16-.56-.91-.84-1.9-.84-2.98v-1.76h0s-.03-7.38-.03-7.38c0-.34-.1-.65-.29-.94-.17-.28-.42-.51-.74-.68-.32-.17-.68-.26-1.06-.26s-.74.09-1.06.26c-.2.1-.37.23-.52.37-.08.09-.16.18-.22.28-.19.28-.29.6-.29.94l-.03,3.44h0v5.74c0,1.15-.3,2.18-.9,3.07-.58.89-1.38,1.59-2.39,2.1-1.01.51-2.16.77-3.45.77s-2.42-.26-3.45-.77c-1.01-.51-1.81-1.21-2.39-2.1-.58-.89-.87-1.91-.87-3.07v-9.15c0-.34-.1-.65-.29-.94-.19-.28-.45-.51-.77-.68-.32-.17-.68-.26-1.06-.26s-.74.09-1.06.26c-.3.17-.55.4-.74.68-.19.28-.29.6-.29.94v14.77h-4.61v-14.29c0-1.1.28-2.09.84-2.98.56-.89,1.34-1.6,2.35-2.13,1.01-.55,2.18-.82,3.52-.82s2.54.27,3.55.82c1.01.53,1.8,1.24,2.35,2.13.56.89.84,1.88.84,2.98v9.15c0,.34.1.65.29.94.19.28.44.51.74.68.32.17.68.26,1.06.26s.74-.09,1.06-.26c.32-.17.58-.4.77-.68.19-.28.29-.6.29-.94v-9.15c0-1.1.28-2.09.84-2.98.3-.48.66-.9,1.09-1.27,0,0,0,0,0,0,.38-.33.81-.63,1.29-.88,1.01-.55,2.18-.82,3.52-.82s2.54.27,3.55.82c1.01.53,1.8,1.24,2.35,2.13.56.89.84,1.88.84,2.98v9.17c0,.34.1.65.29.94.19.28.44.51.74.68.32.17.68.26,1.06.26s.74-.09,1.06-.26c.32-.17.58-.4.77-.68.19-.28.29-.6.29-.94v-14.77h4.61v14.29c0,1.08-.28,2.07-.84,2.98-.56.89-1.34,1.61-2.35,2.16-1.01.53-2.19.8-3.55.8Z"/>
          <path class="cls-7" d="m178.53,309.04c0-1.33-.26-2.51-.8-3.52-.55-1.01-1.27-1.8-2.16-2.35-.91-.56-1.9-.84-2.98-.84h-1.76s0,0,0,0l-7.38-.03c-.34,0-.65-.1-.94-.29-.28-.17-.51-.42-.68-.74-.17-.32-.26-.68-.26-1.06s.09-.74.26-1.06c.1-.2.23-.37.37-.52.09-.08.18-.16.28-.22.28-.19.6-.29.94-.29l3.44-.03h5.74c1.15,0,2.18-.3,3.07-.9.89-.58,1.59-1.38,2.1-2.39.51-1.01.77-2.16.77-3.45s-.26-2.42-.77-3.45c-.51-1.01-1.21-1.81-2.1-2.39-.89-.58-1.91-.87-3.07-.87h-9.15c-.34,0-.65-.1-.94-.29-.28-.19-.51-.45-.68-.77-.17-.32-.26-.68-.26-1.06,0-.39.09-.74.26-1.06.17-.3.4-.55.68-.74.28-.19.6-.29.94-.29h14.77s0-4.61,0-4.61h-14.29c-1.1,0-2.09.28-2.98.84-.89.56-1.6,1.34-2.13,2.35-.55,1.01-.82,2.18-.82,3.52,0,1.35.27,2.54.82,3.55.53,1.01,1.24,1.8,2.13,2.35.89.56,1.88.84,2.98.84h9.15c.34,0,.65.1.94.29.28.19.51.44.68.74.17.32.26.68.26,1.06,0,.39-.09.74-.26,1.06-.17.32-.4.58-.68.77-.28.19-.6.29-.94.29h-9.15c-1.1,0-2.09.28-2.98.84-.48.3-.9.66-1.27,1.09,0,0,0,0,0,0-.33.38-.63.81-.88,1.29-.55,1.01-.82,2.18-.82,3.52,0,1.35.27,2.54.82,3.55.53,1.01,1.24,1.8,2.13,2.35.89.56,1.88.84,2.98.84h9.17c.34,0,.65.1.94.29.28.19.51.44.68.74.17.32.26.68.26,1.06s-.09.74-.26,1.06c-.17.32-.4.58-.68.77-.28.19-.6.29-.94.29h-14.77s0,4.61,0,4.61h14.29c1.08,0,2.07-.28,2.98-.84.89-.56,1.61-1.34,2.16-2.35.53-1.01.8-2.19.8-3.55Z"/>
          <path class="cls-6" d="m202.94,320.95v-35.92h-8.1v35.92h8.1Zm11.62-28.21c.99-.96,1.48-2.12,1.48-3.49s-.49-2.59-1.48-3.56c-.99-.96-2.16-1.44-3.52-1.44s-2.54.48-3.52,1.44c-.99.96-1.48,2.15-1.48,3.56s.49,2.52,1.48,3.49c.99.96,2.16,1.44,3.52,1.44s2.54-.48,3.52-1.44Z"/>
          <path class="cls-6" d="m359.89,175.41v-35.92h-8.1v35.92h8.1Z"/>
          <path class="cls-6" d="m292.38,365.72c1.29-1.29,1.94-2.88,1.94-4.75s-.65-3.46-1.94-4.75c-1.29-1.29-2.88-1.94-4.75-1.94s-3.46.65-4.75,1.94-1.94,2.88-1.94,4.75.65,3.46,1.94,4.75c1.29,1.29,2.88,1.94,4.75,1.94s3.46-.64,4.75-1.94Zm-7.04-2.46c-.63-.63-.95-1.4-.95-2.29,0-.94.32-1.71.95-2.32.63-.61,1.4-.92,2.29-.92.94,0,1.71.31,2.32.92.61.61.92,1.39.92,2.32s-.31,1.66-.92,2.29c-.61.63-1.39.95-2.32.95s-1.66-.32-2.29-.95Z"/>
          <path class="cls-6" d="m331.52,318.67c1.38-1.38,2.08-3.2,2.08-5.46v-1.76h-5.07v1.83c0,.75-.19,1.33-.56,1.73-.38.4-.82.6-1.34.6-.56,0-1.07-.19-1.51-.56-.45-.38-.9-.8-1.37-1.27-.7-.61-1.55-1.26-2.54-1.94-.99-.68-2.28-1.02-3.87-1.02-2.07,0-3.79.69-5.18,2.08-1.39,1.38-2.08,3.2-2.08,5.46v1.69h5.07v-1.83c0-.71.19-1.26.56-1.66.38-.4.82-.6,1.34-.6.56,0,1.04.15,1.44.46.4.31.83.69,1.3,1.16.47.47.95.95,1.44,1.44.49.49,1.15.9,1.97,1.23.82.33,1.87.49,3.13.49,2.07,0,3.79-.69,5.18-2.08Z"/>
          <path class="cls-6" d="m438.12,202.04l4.12,4.12,10.29-10.29c.62-.62,1.37-1.07,2.25-1.36.88-.29,1.8-.32,2.76-.12.96.21,1.82.7,2.6,1.48.6.6,1.07,1.26,1.44,1.98.36.72.61,1.46.74,2.21-1.79.23-3.51.72-5.18,1.46-1.67.74-3.07,1.68-4.21,2.81-1.42,1.42-2.3,2.83-2.62,4.21-.32,1.38-.29,2.67.12,3.84.4,1.18,1.02,2.18,1.84,3.01.75.75,1.71,1.34,2.89,1.77,1.18.43,2.47.48,3.88.16,1.41-.32,2.84-1.21,4.29-2.66,1.14-1.14,2.07-2.54,2.79-4.19.73-1.66,1.2-3.4,1.44-5.24.72.15,1.42.4,2.1.74.67.34,1.29.79,1.86,1.36.98.98,1.51,2.19,1.59,3.61.08,1.42-.48,2.73-1.67,3.92l-10.25,10.25,4.12,4.12,9.94-9.94c1.01-1.01,1.9-2.17,2.66-3.48.76-1.31,1.27-2.68,1.51-4.12.25-1.44.14-2.91-.33-4.41-.47-1.5-1.42-2.98-2.87-4.43-1.06-1.06-2.3-1.86-3.73-2.41-1.42-.54-2.91-.82-4.46-.82-.03-1.63-.34-3.18-.93-4.66-.59-1.48-1.42-2.74-2.48-3.8-1.55-1.55-3.27-2.56-5.14-3.01-1.88-.45-3.8-.36-5.77.29-1.97.65-3.83,1.85-5.59,3.61l-9.98,9.98Zm21.1,4.13c1.02-.56,2.14-.93,3.36-1.11-.18,1.16-.55,2.27-1.11,3.32-.56,1.05-1.16,1.9-1.81,2.54-.72.72-1.42,1.13-2.08,1.22-.66.09-1.2-.07-1.61-.49s-.58-.95-.5-1.59c.08-.65.48-1.33,1.2-2.06.67-.67,1.52-1.29,2.54-1.84Z"/>
          <path class="cls-6" d="m300.76,189.94v-8.1h8.23v-4.67h-8.23v-8.1h-4.94v8.1h-8.19v4.67h8.19v8.1h4.94Z"/>
          <path class="cls-6" d="m405.86,392.98h43.8v-6.9h-43.8v6.9Z"/>
          <path class="cls-6" d="m255.34,388.28l-4.16-4.16-2.72,2.72c-1.3,1.3-2.74,2.16-4.33,2.59-1.58.43-3.17.41-4.75-.04-1.58-.45-3-1.3-4.24-2.55s-2.13-2.69-2.57-4.26c-.44-1.57-.45-3.15-.02-4.73.42-1.58,1.29-3.03,2.59-4.33l2.72-2.72-4.16-4.16-2.63,2.63c-2.23,2.23-3.75,4.71-4.54,7.42-.79,2.72-.88,5.39-.28,8.04.61,2.65,1.93,4.99,3.97,7.02s4.38,3.36,7.02,3.97c2.65.61,5.32.52,8.04-.28,2.72-.79,5.19-2.31,7.42-4.54l2.63-2.63Z"/>
          <path class="cls-6" d="m465.72,331.08v-30.6h-6.9v30.6h6.9Z"/>
          <path class="cls-6" d="m249.31,219.55h30.6v-6.9h-30.6v6.9Z"/>
          <path class="cls-6" d="m366.66,304.3h5.88v-3.84c0-1.84.41-3.47,1.23-4.89.82-1.42,1.95-2.53,3.39-3.33,1.44-.8,3.04-1.2,4.8-1.2s3.41.4,4.83,1.2c1.42.8,2.54,1.91,3.36,3.33.82,1.42,1.23,3.05,1.23,4.89v3.84h5.88v-3.72c0-3.16-.68-5.98-2.04-8.46-1.36-2.48-3.19-4.44-5.49-5.88-2.3-1.44-4.89-2.16-7.77-2.16s-5.47.72-7.77,2.16c-2.3,1.44-4.13,3.4-5.49,5.88-1.36,2.48-2.04,5.3-2.04,8.46v3.72Z"/>
          <path class="cls-6" d="m242.14,178.41v-3.83h-9.59c-.58,0-1.14-.14-1.68-.42s-.99-.69-1.34-1.23c-.35-.54-.52-1.18-.52-1.9,0-.55.08-1.09.25-1.59.17-.51.4-.96.69-1.37.94.72,1.97,1.3,3.09,1.74,1.12.43,2.21.65,3.27.65,1.33,0,2.39-.25,3.18-.74.8-.49,1.37-1.11,1.74-1.85.36-.74.54-1.49.54-2.26,0-.7-.18-1.42-.52-2.17-.35-.75-.93-1.37-1.74-1.88-.81-.51-1.89-.76-3.24-.76-1.06,0-2.15.22-3.26.65-1.11.43-2.15,1.03-3.11,1.77-.27-.41-.48-.85-.63-1.32-.16-.47-.24-.97-.24-1.5,0-.92.31-1.72.94-2.42.63-.7,1.5-1.05,2.6-1.05h9.55v-3.83h-9.26c-.94,0-1.89.13-2.86.38-.96.25-1.84.66-2.62,1.21-.78.56-1.42,1.29-1.9,2.21-.48.92-.72,2.05-.72,3.4,0,.99.2,1.94.61,2.86.41.92.98,1.74,1.7,2.46-.75.77-1.33,1.64-1.74,2.6-.41.97-.61,1.94-.61,2.93,0,1.45.33,2.71.99,3.8.66,1.09,1.6,1.94,2.82,2.55,1.22.62,2.65.92,4.29.92h9.3Zm-7.9-11.76c-.74-.22-1.43-.57-2.08-1.05.63-.46,1.31-.8,2.06-1.03.75-.23,1.42-.34,2.03-.34.68,0,1.19.13,1.54.4.35.27.52.59.52.98s-.17.71-.51.98c-.34.27-.84.4-1.52.4-.63,0-1.31-.11-2.04-.33Z"/>
          <path class="cls-6" d="m352.34,244.57c1.46-.88,2.64-2.06,3.54-3.54.9-1.48,1.35-3.12,1.35-4.92s-.45-3.5-1.35-4.98c-.9-1.48-2.09-2.66-3.57-3.54-1.48-.88-3.14-1.32-4.98-1.32s-3.39.44-4.89,1.32c-1.5.88-2.69,2.06-3.57,3.54-.88,1.48-1.32,3.12-1.32,4.92s.44,3.45,1.32,4.95c.88,1.5,2.07,2.69,3.57,3.57s3.15,1.32,4.95,1.32,3.49-.44,4.95-1.32Zm-7.47-4.14c-.76-.44-1.36-1.04-1.8-1.8-.44-.76-.66-1.6-.66-2.52s.22-1.81.66-2.55c.44-.74,1.04-1.33,1.8-1.77.76-.44,1.6-.66,2.52-.66s1.75.22,2.49.66c.74.44,1.33,1.03,1.77,1.77.44.74.66,1.59.66,2.55s-.22,1.76-.66,2.52c-.44.76-1.03,1.36-1.77,1.8-.74.44-1.57.66-2.49.66s-1.76-.22-2.52-.66Z"/>
          <path class="cls-6" d="m384.39,368.92v-7.02l6.06,3.48,2.4-4.14-6.06-3.48,6.06-3.54-2.4-4.14-6.06,3.54v-7.08h-4.8v7.08l-6.12-3.54-2.4,4.14,6.06,3.54-6.06,3.48,2.4,4.14,6.12-3.48v7.02h4.8Z"/>
          <path class="cls-6" d="m425.13,264.74v-3.42h-1.33c-1.74-.02-3.34-.34-4.81-.94-1.48-.61-2.76-1.45-3.86-2.54-1.1-1.08-1.94-2.33-2.54-3.74-.6-1.41-.89-2.92-.89-4.52s.3-3.18.89-4.6c.6-1.42,1.44-2.67,2.54-3.74,1.09-1.07,2.35-1.91,3.77-2.52,1.42-.61,2.94-.91,4.57-.91s3.18.3,4.6.91c1.42.61,2.67,1.45,3.76,2.52,1.08,1.07,1.93,2.32,2.54,3.74.61,1.42.91,2.96.91,4.6,0,.72-.07,1.37-.2,1.95-.13.59-.37,1.05-.72,1.38-.35.34-.84.5-1.46.5-.41,0-.79-.09-1.12-.28-.34-.18-.6-.46-.8-.81-.2-.36-.29-.76-.29-1.22v-1.53c0-1.34-.33-2.56-.98-3.66-.65-1.09-1.52-1.96-2.62-2.6-1.1-.64-2.32-.96-3.66-.96s-2.5.32-3.59.96c-1.1.64-1.97,1.51-2.62,2.6-.65,1.1-.98,2.32-.98,3.66s.33,2.5.98,3.59c.65,1.1,1.52,1.96,2.62,2.6,1.09.64,2.29.96,3.59.96,1.02,0,1.95-.22,2.8-.67.85-.44,1.56-1.04,2.15-1.77.5.74,1.13,1.33,1.9,1.77.77.44,1.64.67,2.62.67,1.3,0,2.38-.3,3.24-.91.86-.61,1.5-1.45,1.92-2.54.42-1.08.63-2.32.63-3.71,0-2.1-.39-4.07-1.17-5.9s-1.87-3.45-3.27-4.85-3.02-2.49-4.86-3.27c-1.84-.78-3.82-1.17-5.92-1.17s-4.08.39-5.92,1.17c-1.84.78-3.46,1.87-4.86,3.27-1.4,1.4-2.49,3.01-3.27,4.85s-1.17,3.8-1.17,5.9.39,4.04,1.17,5.87c.78,1.83,1.87,3.44,3.27,4.83,1.4,1.39,3.05,2.48,4.94,3.27,1.9.79,3.95,1.19,6.16,1.19h1.33Zm-3.63-11.86c-.58-.36-1.02-.83-1.33-1.43-.31-.6-.47-1.22-.47-1.87,0-.69.16-1.33.47-1.92.31-.59.76-1.06,1.33-1.43.57-.37,1.22-.55,1.94-.55.76,0,1.42.18,1.98.55.56.37,1.01.85,1.33,1.43s.49,1.23.49,1.92c0,.65-.16,1.27-.49,1.87-.33.6-.77,1.07-1.33,1.43-.56.36-1.23.54-1.98.54-.72,0-1.36-.18-1.94-.54Z"/>
          <path class="cls-6" d="m517.86,319.28c1.52-.86,2.71-2.03,3.57-3.51.86-1.48,1.29-3.12,1.29-4.92s-.43-3.5-1.29-4.98c-.86-1.48-2.05-2.65-3.57-3.51-1.52-.86-3.22-1.29-5.1-1.29s-3.52.43-5.04,1.29c-1.52.86-2.71,2.03-3.57,3.51-.86,1.48-1.29,3.14-1.29,4.98s.43,3.44,1.29,4.92c.86,1.48,2.05,2.65,3.57,3.51,1.52.86,3.2,1.29,5.04,1.29s3.58-.43,5.1-1.29Zm-7.92-3.39c-.8-.52-1.42-1.22-1.86-2.1-.44-.88-.66-1.86-.66-2.94s.22-2.12.66-3c.44-.88,1.06-1.58,1.86-2.1.8-.52,1.74-.78,2.82-.78s2.07.26,2.85.78c.78.52,1.4,1.22,1.86,2.1.46.88.69,1.88.69,3s-.23,2.06-.69,2.94c-.46.88-1.08,1.58-1.86,2.1-.78.52-1.73.78-2.85.78s-2.02-.26-2.82-.78Z"/>
          <path class="cls-6" d="m412.59,161.77l8.22,8.28,4.32-4.32-8.22-8.28,8.22-8.22-4.32-4.38-8.22,8.22-8.22-8.22-4.26,4.44,8.16,8.1-8.34,8.34,4.44,4.32,8.22-8.28Z"/>
          <path class="cls-6" d="m201.24,236.08v-7.76h7.89v-4.47h-7.89v-7.76h-4.73v7.76h-7.84v4.47h7.84v7.76h4.73Z"/>
          <path class="cls-6" d="m249.36,335.44l6,6.05,3.15-3.15-6-6.05,6-6-3.15-3.2-6,6-6-6-3.11,3.24,5.96,5.91-6.09,6.09,3.24,3.15,6-6.05Z"/>
          <path class="cls-6" d="m510.7,265.69c2.01-2.01,3.02-4.66,3.02-7.93v-2.56h-7.37v2.66c0,1.09-.27,1.93-.82,2.51-.55.58-1.19.87-1.94.87-.82,0-1.55-.27-2.2-.82-.65-.54-1.31-1.16-2-1.84-1.02-.89-2.25-1.82-3.68-2.81-1.43-.99-3.31-1.48-5.63-1.48-3,0-5.51,1.01-7.52,3.02-2.01,2.01-3.02,4.66-3.02,7.93v2.45h7.37v-2.66c0-1.02.27-1.82.82-2.4.55-.58,1.19-.87,1.94-.87.82,0,1.52.22,2.1.66.58.45,1.21,1.01,1.89,1.69.68.68,1.38,1.38,2.1,2.1.72.72,1.67,1.31,2.87,1.79,1.19.48,2.71.72,4.55.72,3,0,5.51-1.01,7.52-3.02Z"/>
          <path class="cls-6" d="m277.92,260.3c1.31-.8,2.37-1.88,3.17-3.24.8-1.36,1.2-2.89,1.2-4.58h-4.65c0,1.27-.39,2.32-1.16,3.17-.77.84-1.77,1.27-2.99,1.27s-2.16-.42-2.96-1.27c-.8-.85-1.2-1.9-1.2-3.17h-4.72c0,1.69.39,3.22,1.16,4.58.77,1.36,1.84,2.44,3.2,3.24,1.36.8,2.86,1.2,4.51,1.2s3.12-.4,4.44-1.2Z"/>
        </g>
        <g>
          <path class="cls-6" d="m27.26,36.38V.46h-8.1v35.92h8.1Z"/>
          <path class="cls-6" d="m-1.11,179.63c1.38-1.38,2.08-3.2,2.08-5.46v-1.76h-5.07v1.83c0,.75-.19,1.33-.56,1.73-.38.4-.82.6-1.34.6-.56,0-1.07-.19-1.51-.56-.45-.38-.9-.8-1.37-1.27-.7-.61-1.55-1.26-2.54-1.94-.99-.68-2.28-1.02-3.87-1.02-2.07,0-3.79.69-5.18,2.08-1.39,1.38-2.08,3.2-2.08,5.46v1.69h5.07v-1.83c0-.71.19-1.26.56-1.66.38-.4.82-.6,1.34-.6.56,0,1.04.15,1.44.46.4.31.83.69,1.3,1.16.47.47.95.95,1.44,1.44.49.49,1.15.9,1.97,1.23.82.33,1.87.49,3.13.49,2.07,0,3.79-.69,5.18-2.08Z"/>
          <path class="cls-6" d="m105.49,63.01l4.12,4.12,10.29-10.29c.62-.62,1.37-1.07,2.25-1.36.88-.29,1.8-.32,2.76-.12.96.21,1.82.7,2.6,1.48.6.6,1.07,1.26,1.44,1.98.36.72.61,1.46.74,2.21-1.79.23-3.51.72-5.18,1.46-1.67.74-3.07,1.68-4.21,2.81-1.42,1.42-2.3,2.83-2.62,4.21-.32,1.38-.29,2.67.12,3.84.4,1.18,1.02,2.18,1.84,3.01.75.75,1.71,1.34,2.89,1.77,1.18.43,2.47.48,3.88.16,1.41-.32,2.84-1.21,4.29-2.66,1.14-1.14,2.07-2.54,2.79-4.19.73-1.66,1.2-3.4,1.44-5.24.72.15,1.42.4,2.1.74.67.34,1.29.79,1.86,1.36.98.98,1.51,2.19,1.59,3.61.08,1.42-.48,2.73-1.67,3.92l-10.25,10.25,4.12,4.12,9.94-9.94c1.01-1.01,1.9-2.17,2.66-3.48.76-1.31,1.27-2.68,1.51-4.12.25-1.44.14-2.91-.33-4.41-.47-1.5-1.42-2.98-2.87-4.43-1.06-1.06-2.3-1.86-3.73-2.41-1.42-.54-2.91-.82-4.46-.82-.03-1.63-.34-3.18-.93-4.66-.59-1.48-1.42-2.74-2.48-3.8-1.55-1.55-3.27-2.56-5.14-3.01-1.88-.45-3.8-.36-5.77.29-1.97.65-3.83,1.85-5.59,3.61l-9.98,9.98Zm21.1,4.13c1.02-.56,2.14-.93,3.36-1.11-.18,1.16-.55,2.27-1.11,3.32-.56,1.05-1.16,1.9-1.81,2.54-.72.72-1.42,1.13-2.08,1.22-.66.09-1.2-.07-1.61-.49s-.58-.95-.5-1.59c.08-.65.48-1.33,1.2-2.06.67-.67,1.52-1.29,2.54-1.84Z"/>
          <path class="cls-6" d="m73.23,253.94h43.8v-6.9h-43.8v6.9Z"/>
          <path class="cls-6" d="m133.1,192.05v-30.6h-6.9v30.6h6.9Z"/>
          <path class="cls-6" d="m34.03,165.27h5.88v-3.84c0-1.84.41-3.47,1.23-4.89.82-1.42,1.95-2.53,3.39-3.33,1.44-.8,3.04-1.2,4.8-1.2s3.41.4,4.83,1.2c1.42.8,2.54,1.91,3.36,3.33.82,1.42,1.23,3.05,1.23,4.89v3.84h5.88v-3.72c0-3.16-.68-5.98-2.04-8.46-1.36-2.48-3.19-4.44-5.49-5.88-2.3-1.44-4.89-2.16-7.77-2.16s-5.47.72-7.77,2.16c-2.3,1.44-4.13,3.4-5.49,5.88-1.36,2.48-2.04,5.3-2.04,8.46v3.72Z"/>
          <path class="cls-6" d="m19.71,105.54c1.46-.88,2.64-2.06,3.54-3.54.9-1.48,1.35-3.12,1.35-4.92s-.45-3.5-1.35-4.98c-.9-1.48-2.09-2.66-3.57-3.54-1.48-.88-3.14-1.32-4.98-1.32s-3.39.44-4.89,1.32c-1.5.88-2.69,2.06-3.57,3.54-.88,1.48-1.32,3.12-1.32,4.92s.44,3.45,1.32,4.95c.88,1.5,2.07,2.69,3.57,3.57s3.15,1.32,4.95,1.32,3.49-.44,4.95-1.32Zm-7.47-4.14c-.76-.44-1.36-1.04-1.8-1.8-.44-.76-.66-1.6-.66-2.52s.22-1.81.66-2.55c.44-.74,1.04-1.33,1.8-1.77.76-.44,1.6-.66,2.52-.66s1.75.22,2.49.66c.74.44,1.33,1.03,1.77,1.77.44.74.66,1.59.66,2.55s-.22,1.76-.66,2.52c-.44.76-1.03,1.36-1.77,1.8-.74.44-1.57.66-2.49.66s-1.76-.22-2.52-.66Z"/>
          <path class="cls-6" d="m51.76,229.88v-7.02l6.06,3.48,2.4-4.14-6.06-3.48,6.06-3.54-2.4-4.14-6.06,3.54v-7.08h-4.8v7.08l-6.12-3.54-2.4,4.14,6.06,3.54-6.06,3.48,2.4,4.14,6.12-3.48v7.02h4.8Z"/>
          <path class="cls-6" d="m92.51,125.71v-3.42h-1.33c-1.74-.02-3.34-.34-4.81-.94-1.48-.61-2.76-1.45-3.86-2.54-1.1-1.08-1.94-2.33-2.54-3.74-.6-1.41-.89-2.92-.89-4.52s.3-3.18.89-4.6c.6-1.42,1.44-2.67,2.54-3.74,1.09-1.07,2.35-1.91,3.77-2.52,1.42-.61,2.94-.91,4.57-.91s3.18.3,4.6.91c1.42.61,2.67,1.45,3.76,2.52,1.08,1.07,1.93,2.32,2.54,3.74.61,1.42.91,2.96.91,4.6,0,.72-.07,1.37-.2,1.95-.13.59-.37,1.05-.72,1.38-.35.34-.84.5-1.46.5-.41,0-.79-.09-1.12-.28-.34-.18-.6-.46-.8-.81-.2-.36-.29-.76-.29-1.22v-1.53c0-1.34-.33-2.56-.98-3.66-.65-1.09-1.52-1.96-2.62-2.6-1.1-.64-2.32-.96-3.66-.96s-2.5.32-3.59.96c-1.1.64-1.97,1.51-2.62,2.6-.65,1.1-.98,2.32-.98,3.66s.33,2.5.98,3.59c.65,1.1,1.52,1.96,2.62,2.6,1.09.64,2.29.96,3.59.96,1.02,0,1.95-.22,2.8-.67.85-.44,1.56-1.04,2.15-1.77.5.74,1.13,1.33,1.9,1.77.77.44,1.64.67,2.62.67,1.3,0,2.38-.3,3.24-.91.86-.61,1.5-1.45,1.92-2.54.42-1.08.63-2.32.63-3.71,0-2.1-.39-4.07-1.17-5.9s-1.87-3.45-3.27-4.85-3.02-2.49-4.86-3.27c-1.84-.78-3.82-1.17-5.92-1.17s-4.08.39-5.92,1.17c-1.84.78-3.46,1.87-4.86,3.27-1.4,1.4-2.49,3.01-3.27,4.85s-1.17,3.8-1.17,5.9.39,4.04,1.17,5.87c.78,1.83,1.87,3.44,3.27,4.83,1.4,1.39,3.05,2.48,4.94,3.27,1.9.79,3.95,1.19,6.16,1.19h1.33Zm-3.63-11.86c-.58-.36-1.02-.83-1.33-1.43-.31-.6-.47-1.22-.47-1.87,0-.69.16-1.33.47-1.92.31-.59.76-1.06,1.33-1.43.57-.37,1.22-.55,1.94-.55.76,0,1.42.18,1.98.55.56.37,1.01.85,1.33,1.43s.49,1.23.49,1.92c0,.65-.16,1.27-.49,1.87-.33.6-.77,1.07-1.33,1.43-.56.36-1.23.54-1.98.54-.72,0-1.36-.18-1.94-.54Z"/>
          <path class="cls-6" d="m185.23,180.24c1.52-.86,2.71-2.03,3.57-3.51.86-1.48,1.29-3.12,1.29-4.92s-.43-3.5-1.29-4.98c-.86-1.48-2.05-2.65-3.57-3.51-1.52-.86-3.22-1.29-5.1-1.29s-3.52.43-5.04,1.29c-1.52.86-2.71,2.03-3.57,3.51-.86,1.48-1.29,3.14-1.29,4.98s.43,3.44,1.29,4.92c.86,1.48,2.05,2.65,3.57,3.51,1.52.86,3.2,1.29,5.04,1.29s3.58-.43,5.1-1.29Zm-7.92-3.39c-.8-.52-1.42-1.22-1.86-2.1-.44-.88-.66-1.86-.66-2.94s.22-2.12.66-3c.44-.88,1.06-1.58,1.86-2.1.8-.52,1.74-.78,2.82-.78s2.07.26,2.85.78c.78.52,1.4,1.22,1.86,2.1.46.88.69,1.88.69,3s-.23,2.06-.69,2.94c-.46.88-1.08,1.58-1.86,2.1-.78.52-1.73.78-2.85.78s-2.02-.26-2.82-.78Z"/>
          <path class="cls-6" d="m79.97,22.74l8.22,8.28,4.32-4.32-8.22-8.28,8.22-8.22-4.32-4.38-8.22,8.22-8.22-8.22-4.26,4.44,8.16,8.1-8.34,8.34,4.44,4.32,8.22-8.28Z"/>
          <path class="cls-6" d="m178.07,126.65c2.01-2.01,3.02-4.66,3.02-7.93v-2.56h-7.37v2.66c0,1.09-.27,1.93-.82,2.51-.55.58-1.19.87-1.94.87-.82,0-1.55-.27-2.2-.82-.65-.54-1.31-1.16-2-1.84-1.02-.89-2.25-1.82-3.68-2.81-1.43-.99-3.31-1.48-5.63-1.48-3,0-5.51,1.01-7.52,3.02-2.01,2.01-3.02,4.66-3.02,7.93v2.45h7.37v-2.66c0-1.02.27-1.82.82-2.4.55-.58,1.19-.87,1.94-.87.82,0,1.52.22,2.1.66.58.45,1.21,1.01,1.89,1.69.68.68,1.38,1.38,2.1,2.1.72.72,1.67,1.31,2.87,1.79,1.19.48,2.71.72,4.55.72,3,0,5.51-1.01,7.52-3.02Z"/>
        </g>
        <g>
          <path class="cls-7" d="m323.33,132.02c-1.33,0-2.51-.26-3.52-.8-1.01-.55-1.8-1.27-2.35-2.16-.56-.91-.84-1.9-.84-2.98v-1.76h0s-.03-7.38-.03-7.38c0-.34-.1-.65-.29-.94-.17-.28-.42-.51-.74-.68-.32-.17-.68-.26-1.06-.26s-.74.09-1.06.26c-.2.1-.37.23-.52.37-.08.09-.16.18-.22.28-.19.28-.29.6-.29.94l-.03,3.44h0v5.74c0,1.15-.3,2.18-.9,3.07-.58.89-1.38,1.59-2.39,2.1-1.01.51-2.16.77-3.45.77s-2.42-.26-3.45-.77c-1.01-.51-1.81-1.21-2.39-2.1-.58-.89-.87-1.91-.87-3.07v-9.15c0-.34-.1-.65-.29-.94-.19-.28-.45-.51-.77-.68-.32-.17-.68-.26-1.06-.26s-.74.09-1.06.26c-.3.17-.55.4-.74.68-.19.28-.29.6-.29.94v14.77h-4.61v-14.29c0-1.1.28-2.09.84-2.98.56-.89,1.34-1.6,2.35-2.13,1.01-.55,2.18-.82,3.52-.82s2.54.27,3.55.82c1.01.53,1.8,1.24,2.35,2.13.56.89.84,1.88.84,2.98v9.15c0,.34.1.65.29.94.19.28.44.51.74.68.32.17.68.26,1.06.26s.74-.09,1.06-.26c.32-.17.58-.4.77-.68.19-.28.29-.6.29-.94v-9.15c0-1.1.28-2.09.84-2.98.3-.48.66-.9,1.09-1.27,0,0,0,0,0,0,.38-.33.81-.63,1.29-.88,1.01-.55,2.18-.82,3.52-.82s2.54.27,3.55.82c1.01.53,1.8,1.24,2.35,2.13.56.89.84,1.88.84,2.98v9.17c0,.34.1.65.29.94.19.28.44.51.74.68.32.17.68.26,1.06.26s.74-.09,1.06-.26c.32-.17.58-.4.77-.68.19-.28.29-.6.29-.94v-14.77h4.61v14.29c0,1.08-.28,2.07-.84,2.98-.56.89-1.34,1.61-2.35,2.16-1.01.53-2.19.8-3.55.8Z"/>
          <path class="cls-7" d="m178.53,30.97c0-1.33-.26-2.51-.8-3.52-.55-1.01-1.27-1.8-2.16-2.35-.91-.56-1.9-.84-2.98-.84h-1.76s0,0,0,0l-7.38-.03c-.34,0-.65-.1-.94-.29-.28-.17-.51-.42-.68-.74-.17-.32-.26-.68-.26-1.06s.09-.74.26-1.06c.1-.2.23-.37.37-.52.09-.08.18-.16.28-.22.28-.19.6-.29.94-.29l3.44-.03h5.74c1.15,0,2.18-.3,3.07-.9.89-.58,1.59-1.38,2.1-2.39.51-1.01.77-2.16.77-3.45s-.26-2.42-.77-3.45c-.51-1.01-1.21-1.81-2.1-2.39-.89-.58-1.91-.87-3.07-.87h-9.15c-.34,0-.65-.1-.94-.29-.28-.19-.51-.45-.68-.77-.17-.32-.26-.68-.26-1.06,0-.39.09-.74.26-1.06.17-.3.4-.55.68-.74.28-.19.6-.29.94-.29h14.77s0-4.61,0-4.61h-14.29c-1.1,0-2.09.28-2.98.84-.89.56-1.6,1.34-2.13,2.35-.55,1.01-.82,2.18-.82,3.52,0,1.35.27,2.54.82,3.55.53,1.01,1.24,1.8,2.13,2.35.89.56,1.88.84,2.98.84h9.15c.34,0,.65.1.94.29.28.19.51.44.68.74.17.32.26.68.26,1.06,0,.39-.09.74-.26,1.06-.17.32-.4.58-.68.77-.28.19-.6.29-.94.29h-9.15c-1.1,0-2.09.28-2.98.84-.48.3-.9.66-1.27,1.09,0,0,0,0,0,0-.33.38-.63.81-.88,1.29-.55,1.01-.82,2.18-.82,3.52,0,1.35.27,2.54.82,3.55.53,1.01,1.24,1.8,2.13,2.35.89.56,1.88.84,2.98.84h9.17c.34,0,.65.1.94.29.28.19.51.44.68.74.17.32.26.68.26,1.06s-.09.74-.26,1.06c-.17.32-.4.58-.68.77-.28.19-.6.29-.94.29h-14.77s0,4.61,0,4.61h14.29c1.08,0,2.07-.28,2.98-.84.89-.56,1.61-1.34,2.16-2.35.53-1.01.8-2.19.8-3.55Z"/>
          <path class="cls-6" d="m202.94,42.88V6.97h-8.1v35.92h8.1Zm11.62-28.21c.99-.96,1.48-2.12,1.48-3.49s-.49-2.59-1.48-3.56c-.99-.96-2.16-1.44-3.52-1.44s-2.54.48-3.52,1.44c-.99.96-1.48,2.15-1.48,3.56s.49,2.52,1.48,3.49c.99.96,2.16,1.44,3.52,1.44s2.54-.48,3.52-1.44Z"/>
          <path class="cls-6" d="m292.38,87.65c1.29-1.29,1.94-2.88,1.94-4.75s-.65-3.46-1.94-4.75c-1.29-1.29-2.88-1.94-4.75-1.94s-3.46.65-4.75,1.94-1.94,2.88-1.94,4.75.65,3.46,1.94,4.75c1.29,1.29,2.88,1.94,4.75,1.94s3.46-.64,4.75-1.94Zm-7.04-2.46c-.63-.63-.95-1.4-.95-2.29,0-.94.32-1.71.95-2.32.63-.61,1.4-.92,2.29-.92.94,0,1.71.31,2.32.92.61.61.92,1.39.92,2.32s-.31,1.66-.92,2.29c-.61.63-1.39.95-2.32.95s-1.66-.32-2.29-.95Z"/>
          <path class="cls-6" d="m331.52,40.6c1.38-1.38,2.08-3.2,2.08-5.46v-1.76h-5.07v1.83c0,.75-.19,1.33-.56,1.73-.38.4-.82.6-1.34.6-.56,0-1.07-.19-1.51-.56-.45-.38-.9-.8-1.37-1.27-.7-.61-1.55-1.26-2.54-1.94-.99-.68-2.28-1.02-3.87-1.02-2.07,0-3.79.69-5.18,2.08-1.39,1.38-2.08,3.2-2.08,5.46v1.69h5.07v-1.83c0-.71.19-1.26.56-1.66.38-.4.82-.6,1.34-.6.56,0,1.04.15,1.44.46.4.31.83.69,1.3,1.16.47.47.95.95,1.44,1.44.49.49,1.15.9,1.97,1.23.82.33,1.87.49,3.13.49,2.07,0,3.79-.69,5.18-2.08Z"/>
          <path class="cls-6" d="m405.86,114.91h43.8v-6.9h-43.8v6.9Z"/>
          <path class="cls-6" d="m255.34,110.21l-4.16-4.16-2.72,2.72c-1.3,1.3-2.74,2.16-4.33,2.59-1.58.43-3.17.41-4.75-.04-1.58-.45-3-1.3-4.24-2.55s-2.13-2.69-2.57-4.26c-.44-1.57-.45-3.15-.02-4.73.42-1.58,1.29-3.03,2.59-4.33l2.72-2.72-4.16-4.16-2.63,2.63c-2.23,2.23-3.75,4.71-4.54,7.42-.79,2.72-.88,5.39-.28,8.04.61,2.65,1.93,4.99,3.97,7.02s4.38,3.36,7.02,3.97c2.65.61,5.32.52,8.04-.28,2.72-.79,5.19-2.31,7.42-4.54l2.63-2.63Z"/>
          <path class="cls-6" d="m465.72,53.01v-30.6h-6.9v30.6h6.9Z"/>
          <path class="cls-6" d="m366.66,26.23h5.88v-3.84c0-1.84.41-3.47,1.23-4.89.82-1.42,1.95-2.53,3.39-3.33,1.44-.8,3.04-1.2,4.8-1.2s3.41.4,4.83,1.2c1.42.8,2.54,1.91,3.36,3.33.82,1.42,1.23,3.05,1.23,4.89v3.84h5.88v-3.72c0-3.16-.68-5.98-2.04-8.46-1.36-2.48-3.19-4.44-5.49-5.88-2.3-1.44-4.89-2.16-7.77-2.16s-5.47.72-7.77,2.16c-2.3,1.44-4.13,3.4-5.49,5.88-1.36,2.48-2.04,5.3-2.04,8.46v3.72Z"/>
          <path class="cls-6" d="m384.39,90.85v-7.02l6.06,3.48,2.4-4.14-6.06-3.48,6.06-3.54-2.4-4.14-6.06,3.54v-7.08h-4.8v7.08l-6.12-3.54-2.4,4.14,6.06,3.54-6.06,3.48,2.4,4.14,6.12-3.48v7.02h4.8Z"/>
          <path class="cls-6" d="m517.86,41.2c1.52-.86,2.71-2.03,3.57-3.51.86-1.48,1.29-3.12,1.29-4.92s-.43-3.5-1.29-4.98c-.86-1.48-2.05-2.65-3.57-3.51-1.52-.86-3.22-1.29-5.1-1.29s-3.52.43-5.04,1.29c-1.52.86-2.71,2.03-3.57,3.51-.86,1.48-1.29,3.14-1.29,4.98s.43,3.44,1.29,4.92c.86,1.48,2.05,2.65,3.57,3.51,1.52.86,3.2,1.29,5.04,1.29s3.58-.43,5.1-1.29Zm-7.92-3.39c-.8-.52-1.42-1.22-1.86-2.1-.44-.88-.66-1.86-.66-2.94s.22-2.12.66-3c.44-.88,1.06-1.58,1.86-2.1.8-.52,1.74-.78,2.82-.78s2.07.26,2.85.78c.78.52,1.4,1.22,1.86,2.1.46.88.69,1.88.69,3s-.23,2.06-.69,2.94c-.46.88-1.08,1.58-1.86,2.1-.78.52-1.73.78-2.85.78s-2.02-.26-2.82-.78Z"/>
          <path class="cls-6" d="m249.36,57.37l6,6.05,3.15-3.15-6-6.05,6-6-3.15-3.2-6,6-6-6-3.11,3.24,5.96,5.91-6.09,6.09,3.24,3.15,6-6.05Z"/>
        </g>
      </g>
    </pattern>
  </defs>
  <circle class="cls-5" cx="300" cy="368.25" r="285.09"/>
  <circle class="cls-8" cx="300.38" cy="368.25" r="285.09"/>
  <g>
    <path class="cls-2" d="m445.82,431.91c-1.28-6.65-.56-12.21,1.93-17.48,14.24-30.14,2.11-56.93-10.72-83.53-1.67-3.48-4.09-7.82-9.41-4.1-2.5-15.62-16.45-30.09-26.78-32.95-10.35-2.87-36.24-16.85-43.3-11.57-16.48,12.36-34.7,19.81-55.53,18.83-15.69-.74-31.61-1.23-44.4-12.77-3.02-2.74-7.6-3.29-11.18-1.45-4.46,2.3-17.34,5.56-25.45,7.09-8.11,1.52-26.55,9.83-31.51,25.35-5.03-5.98,2.09-9.36-.27-14.57-16.6,2.72-20.79,15.94-23.9,29.08-4.09,1.06-2.18-3.17-4.58-3.31-.47.54-1.2,1.08-1.49,1.81-5.25,12.6-6.91,25.38-1.74,38.45,3.19,8.06,2.5,16.23.9,24.52-2.79-5.88-.95-13.07-6.91-20-12.67,44.52-9.81,85.49,15.64,124.24-8.04-.34-7.33-7.75-12.01-9.56-10.57,15.33-4.31,67.32,16.35,79.95,4.36-5.96,4.88-13.53,4.73-19.86-.32-13.71,4.22-25.84,8.49-38.27,5.71-16.67,4.71-33.81,3.55-50.97-.19-2.5-.83-5.13-.29-7.48,2.25-9.68.12-18.34-4.98-26.6-3.43-5.54-5.56-11.67-7.18-17.95-.9-3.5-1.67-7.11,1.45-11.06,4.41,4.58,5.89,10.5,6.89,15.65,2.04,10.54,12.82,18.51,11.01,28.88-1.94,11.11,1.28,21.67-.15,32.44-.62,4.69-.25,9.54.9,14.27.37,1.59.98,3.97.19,4.88-5.86,6.81-3.28,15.81-6.33,23.14-4.22,10.08-2.87,19.69.32,29.49.52,1.59,1.1,3.28-.78,5.07-5.34.08-2.94-5.64-6.13-8.44-3.07,7.77-2.85,15.81-4.26,23.46-2.31,12.7-7.11,25.35-5.93,38.15,1.08,11.86-4.22,24.12,2.57,35.7,2.36,4.02,4.76,6.5,9.34,7.38,15.81,3.04,31.83,2.97,47.81,3.66,34.48,1.52,68.97,3.31,103.49,3.93,23.27.42,46.39,4.04,69.75,2.79,15.32-.81,18.81-2.65,20.15-17.55.96-10.84.03-21.9-3.34-32.49-.56-1.72-1.91-3.21-2.87-4.78-5.27,2.45-1.64,10.76-8.63,11.6-3.16-5.12.42-9.9.54-14.74.44-18.29,3.43-36.31,6.03-54.38,2.55-17.88-2.87-34.77-6.62-54.4-4.34,10.94-5.03,20.03-6.52,29.1-4.56-9.04-2.33-18.37-.2-27.17,2.74-11.25,3.88-22.66,5.29-34.03.93-7.43-.78-14.73-2.48-22.21-2.43-10.67,1.76-21.65,3.72-32.41,1.52-8.38,3.78-16.62,5.78-25.15.32,7.5-.02,26.06-.78,28.48-6.54,20.73.6,21.17-1.16,39.43-1.86,19.42,1.16,32.39,4.44,51.25.64,3.7,1.85,18.69,2.63,27.95.39,4.59.52,9.19.41,13.79l-.73,30.47c18.14-3.62,37.95-37.77,37.95-57.41,0-33.55-9.23-28.41-6.02-37.54,6.82-19.45,5.47-38.79-.22-59.24-5.32,4.48-2.96,10.77-7.43,15.11Z"/>
    <path d="m324.85,233.53c8.09-4.18,17.7,1.51,17.51,10.62-.07,3.3-.1,6.75-.07,10.3.15,21.76,17.66,24.45,17.66,24.45,0,0,15.65,1.35,26.88,6.6,11.23,5.25,26.85,14.12,26.85,14.12-7.06-9.21-17.19-54.66-15.35-75.53,1.84-20.88-2.15-36.54-5.53-44.22s-3.99-50.97-3.38-66.94c.61-15.97-3.07-24.56-3.07-24.56,0,0-4.3-7.37-12.28-20.54-1.5-2.47-3.23-4.76-5.06-6.85l-2.92-4.85c-18.56-32.55-51.62-34.7-59.72-22.69-3.21-4.51-8.68-7.11-20.73-8.38-17.5-1.84-41.4,39.68-50.15,49.35-8.75,9.67-13.16,19.73-14.33,42.45-.36,6.94-1.16,18.56-1.34,31.62-6.58,10.89-8.34,39.69-4.73,85.32.05.68-12.13,26.39-16.5,63.23,10.57-4.22,31.6-12.38,67.89-18.88,1.06-1.02,2.08-2.09,3.05-3.19,10.64-12.16,5.94-50.59,6.06-50.44,7.05,8.03,14.73,11.06,22.82,10.9,6.95-.14,18.8,1.95,26.21-1.77.08-.04.16-.08.24-.12Z"/>
    <path class="cls-2" d="m235.36,130.5c0-.06-.01-.11-.01-.16-2.3,4.94-5.55,11.18-9.28,17.91.96,8.2,2.2,15.55,2.09,22.26-.07,4.35,6.36,4.75,7.22.96-2.62-5.53-.49-35.54-.02-40.96Z"/>
    <path class="cls-2" d="m351.36,274.95s-.61.46-1.69,1.2c-2.82,1.96-8.93,5.96-16.38,9.37-.02,0-.02.02-.03.02-8.82,2.97-17.63,5.98-27.24,5.79-.29,0-.57-.02-.86-.03-24.62-1.42-33.15-9.63-38.61-12.7-.22-.12-.42-.24-.62-.34,0,0,8.21-4.12,9.66-19.32,1.47-15.2,0-34.42,0-34.42,4.54,4.56,8.65,7.9,11.75,9.09,8.46,3.21,30.09,2.45,36.07.61.41-.13.9-.37,1.45-.71,7.72-4.83,17.72.98,17.52,10.09-.08,3.46-.11,7.11-.09,10.85.08,11.01,4.61,17.14,9.07,20.5Z"/>
    <path class="cls-2" d="m369.34,171.64s.71,2.37,3.08,2.42c2.37.05,3.75-1.1,3.4-7.32-.35-6.22,2.7-21.2,2.37-31.22-2.19-.64-7.39-6.7-7.39-6.7,0,0,.06,24.25,0,27.71s-1.47,15.11-1.47,15.11Z"/>
    <path class="cls-1" d="m324.33,205.67s-10.13-9.44-12.44-10.29c-.19-.07-.37-.1-.55-.13-1.45.27-2.83,1.06-4.21,1.21-.38.04-.84,0-1.34-.07-.12.02-.23.05-.35.07-1.43.16-3.95-.66-5.76-.96-.04.02-.11.02-.15.04-1.15.69-14.51,11.07-14.51,11.07,0,0,4.38,2.52,9.21,6.13,3.26,2.43,7.24,2.98,9.49,3.08.06,0,.1,0,.1,0,0,0,.52.02,1.33.02.23,0,.36-.02.36-.02,0,0,.18,0,.48.01,2.11-.03,5.27-.22,7.27-.93,3.22-1.15,11.05-9.21,11.05-9.21Z"/>
    <path class="cls-2" d="m371.15,128.67s-8.44-8.73-14.27-18.04c-9.15-14.95-15.96-32.53-19.51-42.79-3.33-9.64-8.85-12.77-14.32-13.12-.46-.03-.9-.03-1.35-.03-.59.02-1.17.05-1.74.12-.51.05-1.01.14-1.5.22-3.41.64-6.52,1.98-8.71,3.02-2.5,1.2-4.46,3.14-5.91,5.08l-.08-.08s-.05.07-.07.08c-2.25-2.38-6.62-4.58-9.76-5.05-.05,0-.12-.02-.15-.03-.2-.03-.42-.05-.62-.07-.15-.03-.29-.05-.42-.05-.24-.02-.47-.03-.71-.03-.3-.03-.59-.03-.88-.03-.29-.02-.59-.02-.88-.02-1.18.02-2.36.08-3.51.2-1.06.12-2.11.27-3.07.44-1.35.22-2.63.62-3.87,1.15-.95.39-1.86.88-2.72,1.44-.32.59-10.5,18.76-12.31,22.39-1.86,3.68-13.53,18.73-18.12,22.11-4.61,3.38-7.99,13.24-7.38,16.06.27,1.22-.88,2.62-3.01,6.89-.29.59-.59,1.2-.93,1.82,0,.05.03.12.02.17-.52,5.42-2.89,35.43.03,40.95.02.05.03.08.05.12.24.41.51.86.78,1.33,6.28,10.45,25.04,37.19,39.37,51.61.62.61,1.22,1.2,1.81,1.77-.07-1.13-.12-1.77-.12-1.77,4.54,4.56,8.65,7.9,11.75,9.09,4.04,1.54,11.04,2.14,17.95,2.2,6.96-.05,13.53-.69,16.43-1.59,3.66-1.11,13-11.37,20.65-19.79,4.86-5.35,9.05-9.98,10.67-11.06,4.14-2.77,16.57-23.49,16.57-50.21l-.15-24.49Z"/>
    <g>
      <path class="cls-3" d="m352.81,278.89c-12.6,10.02-43.21,18.43-56.08,15.04-1.76-.47-3.22-1.2-3.34-1.21,33.25,3.99,56.45-14.23,56.45-14.23l2.97.4Z"/>
      <path class="cls-3" d="m308.06,299.63c-.26,0-3.73.76-3.99.76-34.08,0-49.49-16.17-49.49-16.17,0,0,1.9-1.43,7.05-1.43.15,0,.31.02.47.04-4.23.19-4.27,1.35-4.27,1.39,0,0,14.61,15.41,50.23,15.41Z"/>
      <path class="cls-3" d="m406.16,666.68c-23.54-3.75-47.28.71-71.28-2.73.04-.08.07-.17.11-.24,1.4-2.97,3.79-2.04,5.65-2.35,18.94-1.89,36.41.73,53.87,2.42,3.16.31,6.83-1.22,9.89,1.04.61.45,1.2,1.06,1.76,1.86Z"/>
      <path class="cls-3" d="m301.47,663.86c-1.65.07-3.29.15-4.94.22-11.62,1.39-22.74.58-33.65-.68-9.33-1.08-18.5-2.48-27.72-3.14,2.92-.28,5.84-.49,8.75-.63,19.29-.96,38.45.96,57.56,4.23Z"/>
      <g>
        <path d="m455.11,483.88l-.65.25c.19.55.38,1.1.55,1.64.12-.42.25-.83.38-1.24-.09-.22-.18-.43-.28-.65Zm-63.06,178.74c-21.15-1.37-42.3-3.51-65.25-1.97-2.31.26-5.29-.55-6.97,2.11,5.06.49,10.12.79,15.16.95-.04.07-.07.16-.11.24,24,3.44,47.74-1.02,71.28,2.73-.56-.8-1.15-1.41-1.76-1.86.59.05,1.17.11,1.76.17-4.03-3.92-9.51-2.06-14.11-2.37Zm-148.14-2.99c-14.89-.78-29.83-.85-44.85.13,20.95.99,41.72,4.16,63.82,3.64,10.91,1.26,22.03,2.07,33.65.68,1.65-.07,3.29-.15,4.94-.22-19.11-3.27-38.27-5.19-57.56-4.23Z"/>
        <path d="m455.39,484.53c-.13.41-.26.82-.38,1.24,5.67,17.67,2.61,34.23-3.3,51.49-2.78,8.72-8.57,16.19-15.36,22.17-4.62,4.29-9.34,8.55-14.8,11.56-.08-4.33.07-8.69.47-13.08,1.77-19.68,1.03-39.3-2.3-58.54-3.27-18.86-6.78-32.43-4.92-51.85,1.76-18.26-4.86-16.98.5-35.05.72-2.43,3.05-25.76.93-32.26-2,8.53-4.26,16.77-5.78,25.15-1.96,10.76-6.15,21.73-3.71,32.41,1.7,7.48,3.41,14.77,2.48,22.2-1.4,11.37-2.55,22.79-5.29,34.03-2.13,8.8-4.35,18.14.2,27.18,1.49-9.07,2.18-18.16,6.52-29.1,3.75,19.62,9.17,36.51,6.62,54.39-2.6,18.07-5.59,36.09-6.03,54.38-.11,4.85-3.69,9.63-.54,14.75,7-.85,3.36-9.16,8.63-11.61.97,1.57,2.32,3.06,2.87,4.78,3.38,10.59,4.31,21.65,3.35,32.5-1.34,14.89-4.83,16.73-20.15,17.54-23.35,1.25-46.47-2.36-69.75-2.78-34.51-.63-69-2.42-103.48-3.94-15.98-.69-32.01-.62-47.81-3.66-4.58-.88-6.98-3.36-9.34-7.38-6.79-11.59-1.49-23.85-2.57-35.71-1.18-12.8,3.61-25.45,5.93-38.14,1.4-7.65,1.18-15.69,4.25-23.46,3.2,2.8.8,8.53,6.13,8.44,1.88-1.79,1.3-3.48.78-5.06-3.19-9.8-4.54-19.41-.32-29.49,3.06-7.33.47-16.33,6.33-23.14.8-.91.19-3.29-.18-4.88-1.15-4.73-1.52-9.57-.9-14.27,1.44-10.77-1.79-21.33.15-32.44,1.81-10.37-8.96-18.34-11.01-28.88-.99-5.15-2.48-11.08-6.89-15.65-3.12,3.95-2.34,7.56-1.45,11.06,1.62,6.28,3.75,12.41,7.18,17.95,5.1,8.26,7.23,16.92,4.98,26.6-.54,2.35.1,4.98.29,7.48,1.16,17.16,2.16,34.3-3.55,50.97-4.27,12.43-8.81,24.55-8.49,38.27.15,6.33-.38,13.89-4.73,19.86-20.66-12.64-26.92-64.62-16.35-79.95,4.68,1.81,3.97,9.22,12.01,9.56-25.45-38.76-28.31-79.73-15.64-124.25,5.96,6.93,4.12,14.12,6.91,20,1.6-8.29,2.29-16.47-.9-24.52-5.17-13.07-3.51-25.86,1.74-38.46.29-.72,1.01-1.26,1.49-1.8,2.4.13.49,4.37,4.57,3.31,3.11-13.14,7.3-26.36,23.9-29.08,2.36,5.21-4.76,8.59.27,14.57,4.97-15.52,23.41-23.83,31.51-25.35,8.11-1.53,20.99-4.79,25.45-7.09,3.58-1.84,8.16-1.28,11.18,1.45,12.79,11.54,28.71,12.03,44.4,12.77,20.82.98,39.05-6.47,55.53-18.83,7.06-5.29,32.95,8.7,43.3,11.57,10.33,2.85,24.28,17.32,26.78,32.95,5.32-3.72,7.74.62,9.41,4.1,12.83,26.6,24.96,53.38,10.72,83.53-2.48,5.27-3.21,10.82-1.92,17.47,4.47-4.34,2.11-10.63,7.43-15.11,5.69,20.45,7.04,39.79.22,59.24-3.4,9.66-6.37,19.31-3.52,30.65,1.39-1.45,2.53-2.65,2.56-3.99.14-6.94,1.44-12.43,3.01-17.53-.17-.54-.36-1.09-.55-1.64l.65-.25c.1.22.19.43.28.65,1.82-5.68,3.89-10.98,5.01-17.41,1.73-9.8,4.53-19.91,2.15-30.06-3.88-16.65-7.28-33.27-4.54-50.51.47-3.03,1.16-6.42.3-9.19-7.14-23.27-11.65-47.96-29.81-66.07-14.71-14.64-43.13-35.16-67.45-35.05-4.54,0-8.17-.14-11.38-.09-2.78,1.93-8.76,5.86-16.08,9.22-8.73,2.94-17.8,6.08-27.3,5.96h-.27c-.08,0-.15,0-.2-.01.08,0,.23,0,.47.01,0,0-4.09-.25-4.12-.25-22.35-1.88-30.38-9.54-35.62-12.48-23.73,1.16-71.82,19.1-82.5,23.42-16.99,6.88-30.65,19.37-33.47,38.41-2.77,18.59-6.96,36.79-10.66,55.15-4.44,22.02-5.15,44.62,1.81,65.86,4.85,14.83,5.39,29.05,3.63,43.78-2.77,23.27.88,44.7,15.84,63.44,1.57,1.96,2.72,4.28,4.26,6.29,4.42,5.87,5.18,11.95,2.55,19-2.62,7.04-3.88,14.33-3.82,22.12.14,14.25,7.21,26.41,10.52,39.67,1.37,5.47,6.73,8.91,13.16,8.76,5.05-.13,10.1-.32,15.15-.55,78.28,5.33,139.1,16.09,208.36,8.34,8.88,1.33,16.38-4.12,16.85-13.06.22-4.27,1.29-8.24,1.95-12.36,1.67-10.28,2.44-20.91-.73-30.89-4.13-12.98-6.93-26.09-7.7-39.41.38-.15.76-.31,1.15-.47,11-5.24,18.55-15.24,24.51-25.47,8.39-13.41,14.18-22.92,13.69-39.47-.14-9.23-2.1-18.33-5.71-26.63Zm-151.64-193.33s-.05-.02-.08-.02c.36.01.63.05.08.02Zm46.09-12.71l2.97.4c-12.6,10.02-43.21,18.43-56.08,15.04-1.76-.47-3.22-1.2-3.34-1.21,33.25,3.99,56.45-14.23,56.45-14.23Zm-88.21,4.3c.15,0,.31.02.47.04-4.23.19-4.27,1.35-4.27,1.39,0,0,14.61,15.41,50.23,15.41-.26,0-3.73.76-3.99.76-34.08,0-49.49-16.17-49.49-16.17,0,0,1.9-1.43,7.05-1.43Zm34.9,381.29c-11.62,1.39-22.74.58-33.65-.68-22.1.52-42.87-2.65-63.82-3.64,15.02-.98,29.96-.91,44.85-.13,19.29-.96,38.45.96,57.56,4.23-1.65.07-3.29.15-4.94.22Zm109.63,2.6c-23.54-3.75-47.28.71-71.28-2.73.04-.08.07-.17.11-.24-5.04-.16-10.1-.46-15.16-.95,1.68-2.66,4.66-1.85,6.97-2.11,22.95-1.54,44.1.6,65.25,1.97,4.6.31,10.08-1.55,14.11,2.37-.59-.06-1.17-.12-1.76-.17.61.45,1.2,1.06,1.76,1.86Z"/>
        <path class="cls-2" d="m279.37,662.69c-2,.06-3.98.13-5.99.18-3.54.28-7.03.45-10.5.53-22.1.52-42.87-2.65-63.82-3.64,15.02-.98,29.96-.91,44.85-.13,11.84.63,23.66,1.7,35.46,3.06Z"/>
        <path class="cls-2" d="m406.16,664.99c-.59-.06-1.17-.12-1.76-.17-22.96-2.26-46.09-.33-69.41-1.11-5.04-.16-10.1-.46-15.16-.95,1.68-2.66,4.66-1.85,6.97-2.11,22.95-1.54,44.1.6,65.25,1.97,4.6.31,10.08-1.55,14.11,2.37Z"/>
        <path class="cls-2" d="m308.06,299.63c-.26,0-3.73.76-3.99.76-34.08,0-49.49-16.17-49.49-16.17,0,0,1.9-1.43,7.05-1.43.15,0,.31.02.47.04-4.23.19-4.27,1.35-4.27,1.39,0,0,14.61,15.41,50.23,15.41Z"/>
        <path class="cls-2" d="m352.81,278.89c-12.6,10.02-43.21,18.43-56.08,15.04-1.76-.47-3.22-1.2-3.34-1.21,33.25,3.99,56.45-14.23,56.45-14.23l2.97.4Z"/>
      </g>
      <path d="m306.29,291.33h-.27c-.08,0-.15,0-.2-.01.08,0,.23,0,.47.01Z"/>
      <path d="m303.75,291.2s-.05-.02-.08-.02c.36.01.63.05.08.02Z"/>
    </g>
    <g>
      <path d="m385.74,248.96c2.19,16.62,9.45,20.93,11.97,33.83.98,5.01,0,96.51,0,96.51,0,0-.78-23.44-2.62-38.49-1.84-15.05-5.56-27.07-6.25-36.56-.24-3.41-.9-8.93-1.71-15.03-.88-12.28-2.97-22.76-5-29.11-.9,10.74.62,27.41.62,27.41l2.97,44.04c3.63,53.91-8.26,69.58-8.58,69.98.2-.71,5.35-18.56,5.35-26.68,0-28.86-7.67-56.44-8.87-90.92.46-9.56-2.72-17.08-5.45-22.65-.74-1.52-14.28-31.32-14.28-45.83"/>
      <path class="cls-2" d="m385.82,248.95c.99,5.42,2.62,10.68,5.13,15.58,2.48,4.85,5.4,9.7,6.92,15.19.91,2.71.99,5.59,1.04,8.41,0,0,.14,8.3.14,8.3.16,16.58-.08,33.16-.25,49.74,0,0-.47,33.15-.47,33.15,0,0-1.25.01-1.25.01-.63-20.03-1.64-40.13-6.07-59.73-.97-4.92-2-9.85-2.41-14.89-.36-5-.98-9.97-1.67-14.95-.44-5.01-.94-9.99-1.84-14.92-.86-4.93-1.96-9.83-3.58-14.53,0,0,1.29-.15,1.29-.15-.44,8.85-.03,17.81.67,26.66,1.41,24.47,4.96,56.05,2.91,80.41-.65,8.89-1.99,17.99-4.75,26.49-1.05,2.92-2.03,5.71-3.83,8.33,0,0-2.63,3.68-2.63,3.68,1.67-6.19,3.69-12.44,5.07-18.69,1.06-4.81,2.13-9.64,1.88-14.58-.14-19.8-4.09-39.3-6.48-58.91-1.26-9.82-2.21-19.69-2.56-29.6.28-5.92-.9-11.83-3.04-17.37-4.63-11.03-9.54-21.99-12.88-33.51-1.67-5.74-3.24-11.61-3.31-17.63,0,0,.17,0,.17,0,.16,5.98,1.8,11.81,3.51,17.51,2.67,8.56,5.99,16.91,9.6,25.12,2.49,5.43,5.51,10.79,6.48,16.81.56,2.9.75,6.25.62,9.02.36,9.86,1.24,19.71,2.38,29.52,2.32,19.63,5.83,39.2,6.23,59.02.29,9.96-2.61,19.7-4.89,29.31,0,0-1.42-.73-1.42-.73,4.74-7.4,6.36-16.48,7.72-25.05,1.25-8.72,1.67-17.86,1.55-26.65-.15-11.88-2.48-41.22-3.23-53.47-.83-13.04-2.33-26.29-.76-39.45,0,0,.97,3.49.97,3.49,4.02,14.68,4.6,29.77,6.4,44.75.44,4.97,1.5,9.88,2.52,14.79,2.13,9.81,3.92,19.74,4.73,29.76.91,10.01,1.49,20.03,1.92,30.07,0,0-1.25.01-1.25.01.09-23.93.16-59.02.06-82.86,0,0-.09-8.27-.09-8.27.46-8.41-3.8-15.71-7.23-23.11-2.31-5.07-3.71-10.55-4.18-16.09,0,0,.17-.02.17-.02h0Z"/>
    </g>
    <g>
      <path d="m229.45,242.05c1.86,23.5-.81,36.74-2.49,42.38-1.01,3.38-1.52,6.89-1.52,10.41-.03,18.55,5.1,48.55,10.05,65.57,6.57,22.57,5.63,41.14,5.63,41.14,0,0,6.29-48.51-.58-60.95-5.26-9.52-5.19-33.08-5.05-40.12,0-.33-.02-.66,0-.97.1-1.81.05-1.18,0,.97.16,7.79,6.7,19.82,10.25,29.99,3.71,10.59,3.55,48.82,3.55,48.82,0,0,3.19-28.56,3.19-37.77,0-7.33-6.7-40.58-8.05-58.75,0,0-.88-8.64.74-12.95"/>
      <path class="cls-2" d="m229.53,242.04c1.15,13.4,1.55,27.06-1.46,40.28-.87,3.27-1.75,6.41-1.92,9.78-.35,13.38,1.69,26.76,3.84,39.94,1.71,9.92,3.67,19.79,6.31,29.52,2.58,9.79,4.13,19.81,4.88,29.89.25,3.36.4,6.72.33,10.12l-.79-.07c.87-7.73,1.51-15.51,1.98-23.27.51-11.54,1.48-23.47-1.44-34.74-.49-1.55-1.36-3.18-2.03-4.65-3.45-9.46-3.56-19.78-3.79-29.71-.02-3.33-.04-7.62.11-10.57-.15,2.27.48,4.47,1.26,6.56,2.83,9.37,7.65,17.92,10.51,27.31,1.74,7.74,2.03,15.56,2.48,23.42.36,7.82.46,15.63.37,23.45,0,0-1.73-.1-1.73-.1,1.16-11.41,2.51-22.81,3.23-34.26.15-2.19.17-4.59-.09-6.78-2.22-20.51-7.13-40.85-7.52-61.54.09-2.29.25-4.63,1.03-6.82,0,0,.16.06.16.06-1.34,4.38-.95,9.12-.56,13.63,1.75,18.9,6.11,37.42,8.37,56.26.18,13.14-1.62,26.55-2.91,39.63,0-.01-1.75-.08-1.73-.11-.41-15.44-.2-31.18-3.01-46.4-2.08-7.44-5.73-14.42-8.26-21.76-.63-1.86-1.31-3.73-1.58-5.71-.31-2.3-.18-4.59-.05-6.85-.02.31-.06,1.16-.04,1.79-.09,10.67.34,21.52,2.62,31.94.42,1.86.96,3.76,1.65,5.54.25.78.84,1.87,1.18,2.61,2.22,4.44,2.62,9.56,3.03,14.4.87,15.65-.44,31.28-2.46,46.75,0,0-.79-.07-.79-.07.49-13.38-1.55-26.88-5.35-39.71-3.92-12.9-6.58-26.17-8.39-39.52-.9-6.68-1.63-13.39-1.99-20.13-.12-3.39-.33-6.76-.06-10.16.22-3.38,1.2-6.74,2.11-9.94,3.14-13.03,3.09-26.68,2.32-40.02,0,0,.17-.01.17-.01h0Z"/>
    </g>
    <g>
      <path d="m234.91,128.95c.51.59.54,1.41.45,2.14,0,0-.13,2.23-.13,2.23l-.21,4.46c-.38,8.87-.73,17.86-.08,26.69.2,2.11.37,4.33,1.11,6.28,4.91,8.22,10.69,15.94,16.36,23.66,7.16,9.45,14.5,18.82,22.66,27.32,3.79,3.76,7.56,7.8,12.38,10.14,5.6,2.07,12.06,2.14,18.06,2.25,5.67-.03,11.85-.14,17.27-1.44.9-.27,2.11-1.17,3.19-2.04,3.36-2.8,6.39-6.01,9.45-9.18,4.09-4.29,8.07-8.7,12.14-13.07,1.83-1.93,3.62-3.91,5.65-5.66,2.06-1.41,3.44-3.45,4.82-5.52,8.11-13.09,12.13-28.63,12.63-43.98.13-8.62.4-18.2.64-26.78.32,8.57.42,18.16.64,26.78.15,16.48-3.83,33.35-12.89,47.34-1.6,2.63-4.17,4.31-6.3,6.57-5.1,5.39-9.91,11.03-15,16.49-2.03,2.2-4.12,4.35-6.29,6.45-2.4,2.15-4.57,4.59-7.73,5.74-6.16,1.5-12.03,1.56-18.22,1.65-6.16-.12-12.18-.29-18.2-2.16-14.54-5.26-43.21-47.28-51.84-61.79-.03-.08-.77-1.33-.84-1.47-.45-.91-.76-2.02-.89-2.96-1.01-7.47-.34-15.02.06-22.46.25-4.32.73-9.03,1.18-13.35,0,0,.25-2.22.25-2.22.13-.74.15-1.5-.33-2.12h0Z"/>
      <path class="cls-2" d="m286.94,37.55c.05-.62.65-.89,1.1-1.06,1.45-.5,3-.53,4.52-.55,6.03.23,12.46.84,17.54,4.43,0,0-.86.57-.86.57-2.63-8.6-7.34-12.3-16.06-14-4.9-.9-10.07-2.13-14.79.31-6.95,3.35-12.44,9.06-17.61,14.72-8.66,9.56-15.81,20.7-23.6,30.95-9.7,10.54-13.18,20.85-14.53,34.94-1.24,15.46-1.85,31.09-1.99,46.6.13,15.49.57,31.19,4.66,46.2,1.38,4.98,3.27,9.85,6.18,14.15,0,0-.14.1-.14.1-11.14-15.5-12.1-41.75-12.42-60.45-.04-10.41.36-20.82,1.03-31.19.86-15.38,1.67-32.22,11.64-44.82,9.96-11.24,18.79-25.62,28.48-37.09,6.33-7.16,15.16-17.56,25.62-17.07,7.62.98,16.68,2.15,21.36,9.04,1.86,2.79,2.79,5.96,3.76,9.06-3.22-3.26-7.92-4.46-12.34-5.3-3.39-.54-6.96-1.13-10.36-.38-.45.13-.96.37-1.01.82h-.17Z"/>
      <path class="cls-2" d="m327.09,35.87c6.24.81,14.05,3.55,17.81,8.84-5.63-3.68-11.89-5.62-17.81-8.84h0Z"/>
      <path class="cls-2" d="m306.37,33.44c14.41-14.12,38.61-4.82,50.32,8.51,4.15,4.72,7.33,10.24,9.4,16.09-2.68-5.6-6.17-10.75-10.37-15.2-12.05-12.43-34.23-21.52-49.35-9.4h0Z"/>
      <path class="cls-2" d="m351.39,46.48c9.1,5.06,17.35,11.99,23.06,20.78,3.19,5.22,9.31,15.36,12.55,20.73,3.15,8.73,3.36,17.95,2.86,26.92-.39,8.93-.39,17.89-.22,26.84.28,10.04.72,20.13,2.01,30.1.45,3.29,1.03,6.56,2.47,9.57,4.89,12.67,6.03,26.51,5.29,39.98-.62,6.64-.48,13.35.2,19.97,1.56,15.52,4.47,30.97,8.95,45.93,0,0,1.03,3.19,1.03,3.19.35,1.06.77,2.09,1.16,3.14.81,2.08,1.76,4.1,2.98,5.97l-.13.1c-8.97-13.46-15.41-48.25-16.21-64.89-.3-4.46-.12-9.1.23-13.52.61-8.86.27-17.81-1.29-26.55-.79-4.36-1.86-8.7-3.42-12.83-.64-1.57-1.28-3.2-1.54-4.88-.54-2.59-.82-5.74-1.08-8.38-1.02-13.41-1.22-26.85-1.42-40.29-.35-13.08,1.27-27.39-3.19-39.57-4.05-6.63-9.94-17.26-14.2-23.68-5.33-7.45-12.47-13.55-20.19-18.44,0,0,.08-.15.08-.15h0Z"/>
      <path class="cls-2" d="m375.91,202.29c.95-4.44.5-8.9-.06-13.35-.56-3.87-1.22-7.76-2.33-11.52-.18-.53-.35-1.06-.68-1.54.45.35.8.85,1.1,1.34,3.63,6.77,5.67,18.03,1.97,25.06h0Z"/>
      <path class="cls-2" d="m365.32,278.9c-5.27-10.05-12.03-29.27-6.26-39.91-3.45,11.17,3.1,28.74,6.26,39.91h0Z"/>
      <path class="cls-2" d="m381.2,247.12c-4.53-12.77-5.69-27.95,0-40.53-3.38,13.34-2.22,27.06,0,40.53h0Z"/>
      <path class="cls-2" d="m214.71,234.98c-1.82-10.18-2.04-20.53-1.7-30.84-.08-10.32-.71-20.64.62-30.94.97-6.78,2.25-13.89,6.09-19.7,0,0,.14.09.14.09-2.84,6.24-3.64,13.09-4.44,19.83-.72,5.86-1.28,14.45-1.67,20.44-.83,10.29.81,20.53.96,30.81.11,3.43.18,6.85.17,10.3,0,0-.17.02-.17.02h0Z"/>
      <path class="cls-2" d="m219.87,196.46c-.25,15.38-1.42,31.2-7.37,45.54-3.45,10.44-5.92,21.19-8.64,31.83-1.57,6.37-3.23,12.81-4.41,19.27-.4,2.08-.73,4.4-.77,6.52,0,0-.17.02-.17.02-.2-1.58-.14-3.4-.06-5,1.58-15.95,5.97-31.52,11.2-46.63,1.35-4.2,3.36-8.15,4.66-12.37,1.15-4.23,1.6-8.64,2.12-12.99,1.19-8.17,1.92-18.57,3.45-26.2h0Z"/>
      <path class="cls-2" d="m235.57,174.04c1.86,3.66,2.64,7.61,3.45,11.58,1.23,3.78,3.46,7.21,5.37,10.67,1.34,2.23,2.67,4.45,4.93,5.92l-.06.16c-2.82-.49-4.91-2.87-6.41-5.14-2.29-3.47-3.01-7.59-4.35-11.44-1.07-2.48-2.28-4.94-2.67-7.65-.24-1.33-.43-2.68-.43-4.06l.16-.04h0Z"/>
      <path class="cls-2" d="m254.76,214.88c5.95,13.07,10.4,29.77,7.4,44.07.57-15.05-3.54-29.65-7.4-44.07h0Z"/>
      <path class="cls-2" d="m242.39,218.1c1.67,6.55,2.12,13.36,2.75,20.08.73,10.12,1.4,20.3.51,30.43-.1,1.39-.57,3.59-.87,5-.23,1.63-.21,3.32-.17,5,1.12,20.26,5.92,40.09,8.33,60.22.5,6.78-.46,13.6-.91,20.36-.58,6.74-1.28,13.47-2,20.2,0,0-1.46-.08-1.46-.08-.01-7.78-.18-15.58-.54-23.35-.43-7.7-.79-15.57-2.42-23.1-.97-3.67-2.6-7.29-4.05-10.83-2.91-7.51-7.23-15.18-6.84-23.49.01-.12.01-.25.06-.36-.46.34.73-1.16,1.55.06.1.41.04.27.05.41-.09,3.42-.1,7.06-.03,10.47.32,9.63.63,19.47,3.76,28.6.24.65.83,1.95,1.16,2.56,2.24,4.5,2.63,9.7,3.01,14.57.8,15.67-.62,31.28-2.44,46.82,0,0-1.46-.13-1.46-.13.11-3.3,0-6.67-.2-10.01-.63-10.03-2.29-20-4.96-29.69-1.85-6.48-3.41-13.06-4.74-19.67-3.15-16.52-5.99-33.33-5.25-50.21.21-3.37.7-6.82,2.03-9.93,1.24-3.09,1.85-6.42,2.25-9.75,1.15-10.03.78-20.18-.06-30.22.97,10.04,1.48,20.2.45,30.27-.36,3.35-.93,6.71-2.15,9.9-1.3,3.08-1.68,6.44-1.86,9.78-.48,16.79,2.42,33.53,5.68,49.95,1.38,6.58,2.97,13.1,4.86,19.55,2.76,9.76,4.54,19.81,5.19,29.93.22,3.38.34,6.75.22,10.17l-1.46-.13c1.77-15.4,3.15-31.04,2.32-46.53-.4-4.76-.75-9.62-2.85-13.89-.36-.67-.99-2.05-1.26-2.76-3.25-9.35-3.59-19.4-3.94-29.15-.07-3.4-.04-7.05.05-10.46,0,0,0-.09,0-.09,0,0,0-.05,0-.05.02.02-.04-.04.05.27.82,1.18,2.01-.34,1.55-.03.03-.09.02-.08.03-.09.01-.02.02-.05.02-.07v.18c-.19,2.09.11,4.18.62,6.28,1.91,7.52,5.49,14.51,8.25,21.76,3.75,9.15,3.64,19.33,4.3,29.04.34,7.81.49,15.61.49,23.43,0,0-1.46-.08-1.46-.08,1.29-12.57,2.88-25.16,3.28-37.8-1.15-14.25-4.24-28.37-6.03-42.57-.99-8.4-2.57-16.87-1.74-25.35,1.24-4.89,1.42-10.02,1.47-15.05.07-6.75-.21-13.51-.66-20.25-.54-6.72-.9-13.53-2.49-20.1h0Z"/>
      <path class="cls-2" d="m216.52,292.71c.09-12.26,3.49-30.46,13.74-38.27-4.66,5.14-7.07,11.66-9.08,18.18-1.99,6.58-3.35,13.32-4.65,20.1h0Z"/>
      <g>
        <path d="m310.35,67.18c3.2-4.07,7.23-8.06,12.44-9.13-4.72,1.79-7.94,6.18-10.28,10.45,0,0-2.17-1.31-2.17-1.31h0Z"/>
        <path d="m317.73,65.47c2.87-3.4,6.42-7.03,11.05-7.54-4.2,1.26-6.88,5.27-8.91,8.89,0,0-2.14-1.35-2.14-1.35h0Z"/>
        <path d="m322.83,67.01c3.64-2.93,8.79-2.72,13.16-2.16,0,0-1.61.11-1.61.11-3.37.41-7.26,1.11-9.64,3.7,0,0-1.92-1.65-1.92-1.65h0Z"/>
        <path d="m295.18,58.04c-.47,3.8-1.65,11.6-6.62,11.49,3.7-.56,3.99-5.16,4.18-8.15.03-1.11,0-2.26-.09-3.32l2.53-.02h0Z"/>
        <path d="m281.07,59.59c-.52,7.25-2.17,17.36-9.71,20.43,3.55-1.72,5.34-5.47,6.26-9.11.89-3.64,1.14-7.55.92-11.25,0,0,2.53-.07,2.53-.07h0Z"/>
        <path d="m288.01,58.09c-.87,5.41-2.1,11.42-6.29,15.25,3.43-4.23,3.73-10.13,3.76-15.35,0,0,2.53.1,2.53.1h0Z"/>
      </g>
      <path d="m285.06,206.55c3.92.7,7.71,2.28,11.04,4.47,2.99,1.91,6.9,2.56,10.37,2.37,3.23-.1,6.74.09,9.75-1.09,3.76-2.12,7.19-5.1,10.4-8.03,0,0,.02.92.02.92-2.77-2.81-5.74-5.44-8.84-7.86-1.44-.98-2.89-2.56-4.72-2.33-1.87.26-3.84,1.81-5.9,1.6-1.94-.08-4.01-.75-5.76-.78-.45.07.11-.1-.42.27-4.02,3.58-8.01,7.32-12.03,10.9,0,0-1.45-3.13-1.45-3.13,2.92-.56,7.29-1.1,10.28-1.52,3.38-.3,7.62,2.28,10.14,2.2,1.28-.22,4.62-.77,5.87-.98,2-.34,4.11-.06,6.1.09,1.32.13,2.64.27,3.96.5,0,0-.04.34-.04.34-3.22.02-6.53-.14-9.68.58-1.22.36-4.49,1.3-5.75,1.67-3.38.57-7.17-1.58-10.17-1.17-4.97,1.37-10.92,1.99-16.09,2.44,5.63-4.63,11.27-9.82,17.06-14.22.36-.23.44-.37.98-.6.57-.2.94-.17,1.28-.17,2.23.2,3.9,1.04,5.91,1.36.88.16,1.6-.06,2.47-.31,4.09-1.51,5.61-.34,8.67,2.34,3.19,2.73,6.26,5.55,9.48,8.23-2.94,3.18-5.67,6.4-9.08,9.14-1.67,1.47-4.05,2.12-6.18,2.34-2.1.25-4.12.26-6.21.18-1.26.09-4.32-.18-6.08-.75-4.02-.9-6.82-4.11-10.31-6.07-1.65-.97-3.39-1.86-5.18-2.61,0,0,.09-.33.09-.33h0Z"/>
      <g>
        <path d="m301.54,155.32c.2,6.08-1.48,12.26-4.87,17.37,0,0-.62.93-.62.93l.1-.59c-1.16.95-1.83,2.97-2.28,4.45-1.71,6.43.99,8.51,7.16,7.06.95-.22,2-.6,3-.29-1.02-.1-1.9.42-2.83.79-2.74,1.21-7.29,1.7-8.78-1.59-1.49-2.9.13-10.88,3.43-12.05,0,0-.52.34-.52.34,3.36-4.86,5.28-10.58,6.23-16.44h0Z"/>
        <path d="m317.55,163.6c.99,2.47,1.64,5.22,2.87,7.51.69.87,1.42,1.79,1.98,2.76,1.4,2.34,2.56,5.12,1.85,7.95-.73,2.77-3.6,4.79-6.4,4.75-1.37-.02-2.69-.41-3.79-1.12,1.24.39,2.53.53,3.74.35,2.29-.32,4.47-2.13,4.96-4.35.55-3.28-1.49-6.48-3.31-9.09-1.56-2.6-1.68-5.84-1.9-8.77h0Z"/>
        <path d="m300.47,180.67c-2.5.98,0,1.96,2.32,2.32,2.32.36,3.39,1.96,3.39,1.96,0,0-1.06-6.11-5.71-4.28Z"/>
        <path d="m316.8,180.67c2.5.98,0,1.96-2.32,2.32-2.32.36-3.39,1.96-3.39,1.96,0,0,1.06-6.11,5.71-4.28Z"/>
        <path d="m300.64,173.3c2.34-2.71,9.59-3.62,11.49,0-1.83-.93-3.68-.72-5.63-.66-1.96.17-3.91.24-5.87.66h0Z"/>
      </g>
      <path d="m290.02,123.38c5.47,1.09,11.15,6.87,9.41,12.74-2.03-5.28-5.83-8.37-9.41-12.74h0Z"/>
      <path d="m320.64,121.35c-3.37,5.32-4.96,11.33-6.18,17.43-1.19-6.24.92-13.59,6.18-17.43h0Z"/>
      <g>
        <path d="m282.54,132.47c0,3.82-3.11,6.91-6.91,6.91s-6.92-3.09-6.92-6.91c0-.68.1-1.32.27-1.94.68-.22,1.4-.41,2.16-.54,1.37-.24,2.85-.34,4.44-.24.39.02.76.05,1.11.1,2.21.25,4.12.81,5.74,1.5.07.35.1.73.1,1.11Z"/>
        <path class="cls-2" d="m276.86,130.78c0,1.62-1.32,2.92-2.92,2.92s-2.94-1.3-2.94-2.92c0-.27.03-.54.14-.79,1.37-.24,2.85-.34,4.44-.24.39.02.76.05,1.11.1.12.29.17.61.17.93Z"/>
        <path d="m275.53,130.54c-.76,3.47-5.27,1.72-4.12-1.4,0,0,.14-.31.14-.31l.54-.09c1.39-.31,2.45.36,3.53,1.11,0,.24-.04.48-.09.69h0Zm-.17-.02c.06-.31-.28-.69,0-.37-1.11.15-2.13.45-3.24.21,0,0,.68-.4.68-.4-.17.1-.21.56-.13.78.33,1.24,2.6,1.19,2.69-.22h0Z"/>
        <path d="m290,137.46c-.24-.37-2.53-3.95-7.57-6.11-1.62-.69-3.53-1.25-5.74-1.5-.35-.05-.73-.08-1.11-.1-1.59-.1-3.07,0-4.44.24-.76.14-1.49.32-2.16.54-6,1.86-9.14,6.32-9.14,6.32.37,2.55,3.88,5.18,7.35,7.85-.47-.2-6.25-2.74-9.98-4.86-3.92-2.21-15.67-7.13-15.67-7.13,15.06,1.72,21.09-4.59,25.69-4.91,1.2-.08,2.33-.12,3.41-.1,1.17.02,2.26.07,3.29.17h.08c3.28.32,5.91,1.05,8,1.98,6.28,2.74,7.87,7.24,7.99,7.63Z"/>
        <path d="m252.13,130.78c1.65-4.68,6.55-8.43,11.63-7.75-4.93.59-8.88,3.7-11.63,7.75h0Z"/>
        <path d="m288.56,108.98v9.26l-8.75-.4s-11.22-5.22-21.12-2.46c-9.9,2.76-14.5,4.55-14.5,4.55l10.4-9.57c2.65-2.01,5.93-3,9.25-2.8l21.04,2.61,1.87,2,1.81-3.18Z"/>
      </g>
      <g>
        <path d="m350.63,131.91v.12c0,3.63-2.94,6.57-6.57,6.57s-6.57-2.94-6.57-6.57c0-.84.15-1.65.46-2.4.56-.12,1.15-.2,1.76-.24.34-.05.68-.08,1.01-.1,1.55-.1,2.94,0,4.19.22,2.45.44,4.32,1.38,5.72,2.4Z"/>
        <path class="cls-2" d="m345.07,130.42c0,1.54-1.25,2.77-2.79,2.77s-2.79-1.23-2.79-2.77c0-.37.07-.71.2-1.03.34-.05.68-.08,1.01-.1,1.55-.1,2.94,0,4.19.22.12.29.17.59.17.91Z"/>
        <path d="m344.2,130.25c-.75,3.59-5.44,1.66-4.09-1.53,0,0,.16-.36.16-.36.45-.03,1.01-.11,1.45-.07,1,.02,1.78.71,2.56,1.25,0,.25-.03.49-.08.7h0Zm-.17-.02c0-.19-.04-.38-.14-.53l.13.14c-1.06.08-2.14.39-3.2.12,0,0,.69-.4.69-.4-.49.47-.2,1.37.43,1.66.74.39,2.06.04,2.08-.99h0Z"/>
        <path d="m361.33,128.6c-2.65-3.81-6.4-6.66-11.04-7.25,4.79-.68,9.5,2.81,11.04,7.25h0Z"/>
        <path d="m369.75,131.71s-9.49,4.54-13.21,6.5c-3.5,1.84-8.82,4.02-9.47,4.27,3.29-2.35,6.6-4.68,6.94-6.92,0,0-.98-1.94-3.38-3.65-1.4-1.01-3.28-1.96-5.72-2.4-1.25-.22-2.63-.32-4.19-.22-.34.02-.68.05-1.01.1-.61.03-1.2.12-1.76.24-7.8,1.38-12.33,6.16-12.63,6.5.22-.44,3.38-6.16,13.49-8.06,2.75-.52,6.01-.74,9.88-.51.07,0,.15.02.22.02,4.29.37,8.46,4.04,20.84,4.12Z"/>
        <path d="m322.72,108.01v9.26s7.18-.42,7.18-.42c0,0,9.87-5.16,19.77-2.4,9.9,2.76,14.28,4.51,14.28,4.51l-8.75-8.34c-2.65-2.01-5.74-3.53-9.06-3.33l-19.73,1.9-3.68-1.19Z"/>
      </g>
      <g>
        <path d="m277.1,61.04s-8.8,18.73-10.64,22.41c-1.85,3.68-11.83,18.73-16.43,22.11-4.61,3.38-8.31,12.86-9.06,17.75-.92,6.05-8.01,12.18-17.13,26.84-9.12,14.67,11.25-22.49,11.65-31.39s3.47-17.82,3.47-17.82"/>
        <path class="cls-2" d="m275.67,63.19c-4.75,8.95-8.87,18.24-14.34,26.78-3.85,5.54-7.58,11.35-12.77,15.75-4.01,3.02-5.94,8.16-7.14,12.91-1.04,4.97-4.15,9.27-6.45,13.72-3.98,6.95-8.05,13.89-12.36,20.64-.27.35-.46.78-.87,1.01-.1.02-.31.14-.59-.11-.17-.2-.14-.3-.15-.36.35-1.63,1.45-3.48,2.07-5,4.02-8.88,9.12-18.5,11.78-27.84.6-3.3.61-6.71,1.39-9.99.74-3.22,1.47-6.89,2.78-9.74-2.1,6.56-2.81,13.1-3.48,19.89-2.41,9.53-7.48,19.18-11.53,28.12-.55,1.17-1.67,3.51-2.02,4.5-.02-.03.02-.11-.13-.29-.32-.25-.46-.12-.59-.07.31-.34.93-1.31,1.21-1.73,5.78-9.29,11.81-18.47,16.93-28.14.79-1.51,1.39-3.01,1.68-4.7.84-3.28,1.97-6.52,3.78-9.4,1.72-2.97,4.81-4.68,6.85-7.42,3.19-3.9,6.08-8.05,8.85-12.26,1.9-2.79,3.6-5.63,5.13-8.66,3.25-5.85,6.47-12.13,9.97-17.62h0Z"/>
      </g>
      <g>
        <path d="m307.87,52.62c9.25-7.48,18.77-13.53,33.74-3.86,10.43,6.74,26.5,47.23,27.74,52.35,3.96,16.35,14.35,29.23,20.08,35.46-2.69-1.15-2,5.07-18.28-7.91-3.14-2.94-13.9-17.68-13.9-17.68-9.27-15.01-16.14-32.8-19.72-43.15-3.34-9.73-8.95-12.82-14.47-13.12-.46-.03-.9-.03-1.35-.03-.59.02-1.17.05-1.74.12-.51.05-1.01.14-1.5.22"/>
        <path class="cls-2" d="m343.41,79.99c4.54,12.01,10.15,23.59,16.88,34.52,5.49,8.86,15.73,20.98,26.77,21.81.7-.03,1.49-.19,2-.44l-.17,1.28c-7.42-7.07-13.49-15.58-17.35-25.09-1.28-3.16-2.25-6.44-2.84-9.78,0,0,.16-.04.16-.04,4.14,13.18,12.3,24.86,21.96,34.59-10.64,5.32-25.77-14.21-31.34-21.78-5.72-7.85-10.11-16.63-13.38-25.76-1.11-3.04-2.06-6.13-2.84-9.26l.16-.05h0Z"/>
        <path d="m300.22,69.49c1.1-6.55,5.82-12.6,12.44-14.28,9.04-2.95,18.06.18,22.51,8.74,1.02,1.86,1.82,3.82,2.48,5.82l-.32.11c-1.42-3.89-3.58-7.65-6.78-10.17-6.45-5.07-15.63-2.95-22.17.87-3.16,2.11-5.69,5.44-7.84,9.02l-.32-.11h0Z"/>
        <path class="cls-2" d="m306.32,53.61c6.75-5.58,15.98-11.19,25.03-8.83,10.21,3.35,19.05,11.61,22.7,21.79,1.05,3.16,1.77,6.38,2.52,9.57.57,2.37,1.01,4.78,1.95,7.03.33.71.72,1.47,1.45,1.75,0,0-.04.16-.04.16-.9-.17-1.46-.97-1.9-1.66-1.27-2.16-1.97-4.59-2.74-6.94-.96-3.14-1.88-6.28-2.95-9.33-2.89-8.2-10.54-17.87-18.83-21.04-6.21-2.33-12.73.51-18.47,3.03-2.94,1.37-5.81,2.93-8.63,4.6l-.1-.13h0Z"/>
      </g>
      <g>
        <path d="m303.75,63.04c-2.3-2.38-6.72-4.58-9.83-5-.25-.03-.52-.07-.78-.07-.15-.03-.29-.05-.42-.05-.24-.02-.47-.03-.71-.03-.3-.03-.59-.03-.88-.03-.29-.02-.59-.02-.88-.02-1.23,0-2.47.08-3.66.2-1.06.12-2.11.27-3.09.44-1.33.22-2.62.62-3.85,1.15-.95.39-1.86.88-2.72,1.44-1.42.93-2.7,2.04-3.8,3.36l-18.04,21.5c-5.02,5.96-10.66,10.94-16.28,15.03-5.39,3.93-10.74,7.04-15.5,9.44-.66.32-1.3.64-1.93.95-3.78,1.81-7.06,3.14-9.56,4.04-4.56,1.64-6.48,1.86-3.72.95,3.55-1.18,9.06-6,17.48-15.21s35.21-50.8,45.77-54.12c15.38-4.84,21.48.91,24.87,4.38"/>
        <path class="cls-2" d="m297.11,51.9c-13.87-8.58-29.56-5.32-40.2,6.6-9.67,11.44-18.55,23.74-27.67,35.67-3.05,4-6.05,8.03-9.24,11.93-3.66,4.2-7.23,9.22-12.68,11.09.19-.03.19-.76-.05-.75-.32-.13-.18-.05-.21-.08,0,0,.19-.04.2-.04,0,0,.43-.11.43-.11,17.97-5.91,34.7-16.61,46.99-31.03,3.2-3.78,11.53-13.59,14.67-17.22,1.47-1.67,3.42-4.17,5.08-5.69,1.94-1.75,4.28-3.03,6.76-3.77,6.92-1.59,16.56-2.33,21.42,3.86,0,0-.13.1-.13.1-3.26-4-8.85-4.48-13.67-4.17-4.87.29-9.91,1.46-13.49,4.95-1.47,1.4-3.48,4.05-4.84,5.66-3,3.67-11.27,13.65-14.41,17.43-12.31,14.49-29.12,24.98-47.19,30.61-.59.15-1.19.34-1.8.39-.07-.03.03.07-.33-.08-.3,0-.26-.77-.05-.83.39-.26.74-.32,1.08-.46,4.91-1.83,8.36-6.43,11.77-10.26,3.22-3.85,6.27-7.84,9.23-11.9,5.97-8.09,11.65-16.39,17.63-24.47,4.45-5.84,9.1-12.66,15.14-16.95,6.09-4.68,13.99-7.12,21.63-6.11,5.03.66,9.93,2.51,14.04,5.48,0,0-.1.14-.1.14h0Z"/>
      </g>
    </g>
    <path d="m455.39,484.53c-.13.41-.26.82-.38,1.24-.17-.54-.36-1.09-.55-1.64l.65-.25c.1.22.19.43.28.65Z"/>
  </g>
</svg>