<?xml version="1.0" encoding="utf-8"?>
<!-- Generator: Adobe Illustrator 27.1.0, SVG Export Plug-In . SVG Version: 6.00 Build 0)  -->
<svg version="1.1" id="Capa_1" xmlns="http://www.w3.org/2000/svg" xmlns:xlink="http://www.w3.org/1999/xlink" x="0px" y="0px"
	 viewBox="0 0 200 200" style="enable-background:new 0 0 200 200;" xml:space="preserve">
<style type="text/css">
	.st0{fill:#22574A;}
</style>
<g>
	<path id="Path_2520" class="st0" d="M169.71,169.71h-29.34v-45.95c0-10.96-0.2-25.06-15.26-25.06c-15.28,0-17.62,11.93-17.62,24.27
		v46.74H78.16V75.23h28.17v12.91h0.39c5.75-9.82,16.42-15.68,27.79-15.26c29.74,0,35.21,19.56,35.21,45L169.71,169.71z M45.05,62.31
		c-9.41,0-17.03-7.62-17.03-17.03s7.62-17.03,17.03-17.03s17.03,7.62,17.03,17.03C62.08,54.69,54.46,62.31,45.05,62.31L45.05,62.31
		 M59.72,169.71H30.35V75.23h29.37V169.71z M184.34,1.01H15.61C7.63,0.93,1.1,7.32,1,15.29v169.42c0.1,7.98,6.63,14.37,14.61,14.28
		h168.73c7.99,0.1,14.56-6.29,14.66-14.28V15.28C198.88,7.29,192.32,0.9,184.34,1.01"/>
</g>
</svg>
