<?xml version="1.0" encoding="utf-8"?>
<!-- Generator: Adobe Illustrator 27.1.0, SVG Export Plug-In . SVG Version: 6.00 Build 0)  -->
<svg version="1.1" id="Capa_1" xmlns="http://www.w3.org/2000/svg" xmlns:xlink="http://www.w3.org/1999/xlink" x="0px" y="0px"
	 viewBox="0 0 512 512" style="enable-background:new 0 0 512 512;" xml:space="preserve">
<style type="text/css">
	.st0{fill-rule:evenodd;clip-rule:evenodd;fill:#22574A;}
</style>
<g>
	<path class="st0" d="M273.8,224.8c-5.4-3.6-11.6-5.4-18.8-5.4c-6.9,0-13.1,1.8-18.6,5.4c-5.5,3.6-9.7,8.2-12.7,13.8
		s-4.5,11.8-4.5,18.4c0,6.4,1.5,12.5,4.5,18.3c3,5.7,7.2,10.3,12.7,13.8s11.7,5.2,18.6,5.2c7.2,0,13.4-1.7,18.8-5.2
		s9.6-8.1,12.7-13.8c3.1-5.7,4.7-11.8,4.7-18.3c0-6.7-1.6-12.8-4.7-18.4C283.4,233,279.2,228.4,273.8,224.8z"/>
	<path class="st0" d="M256,0C114.6,0,0,114.6,0,256s114.6,256,256,256s256-114.6,256-256S397.4,0,256,0z M414.1,300
		c-4.9,12.2-12.2,21.5-22,28.1s-22,9.8-36.5,9.8c-9.8,0-18.9-2.1-27.4-6.3c-8.5-4.2-15.7-9.6-21.7-16.3
		c-6.9,6.9-14.8,12.4-23.6,16.5c-8.8,4.1-18.1,6.1-27.9,6.1c-14.8,0-28.3-3.6-40.6-10.9s-22.1-17.1-29.3-29.3
		c-7.3-12.3-10.9-25.8-10.9-40.6c0-15,3.6-28.7,10.9-41c7.3-12.3,17.1-22.1,29.3-29.4c12.3-7.3,25.8-10.9,40.6-10.9
		c15,0,28.7,3.6,41,10.9c12.3,7.3,22.1,17.1,29.3,29.4c7.3,12.3,10.9,25.9,10.9,41V275c0,3.8,0.9,7.2,2.7,10.2
		c1.8,3,4.2,5.3,7.2,6.8c3,1.6,6.3,2.3,9.8,2.3c5.7,0,10.1-1.5,13.1-4.7c3-3.1,5-7.5,6.1-13.1s1.6-12.1,1.6-19.5
		c0-16.9-3.2-32.8-9.5-47.4c-6.3-14.7-15-27.6-26.1-38.7c-11.1-11.1-24-19.8-38.7-26.1s-30.5-9.5-47.4-9.5
		c-16.7,0-32.4,3.2-47.1,9.5c-14.7,6.3-27.6,15-38.8,26.1s-19.9,24-26.1,38.7c-6.2,14.7-9.3,30.5-9.3,47.4c0,16.7,3.1,32.4,9.3,47.1
		s14.9,27.6,26.1,38.8c11.2,11.2,24.2,19.9,38.8,26.1c14.7,6.2,30.4,9.3,47.1,9.3h17.5v45.1H255c-22.9,0-44.4-4.3-64.6-12.9
		s-37.9-20.5-53.2-35.8s-27.2-33-35.8-53.2s-12.9-41.7-12.9-64.6s4.3-44.4,12.9-64.6s20.5-37.9,35.8-53.2s33-27.2,53.2-35.8
		s41.7-12.9,64.6-12.9s44.4,4.3,64.6,12.9s37.9,20.5,53.2,35.8c15.3,15.3,27.2,33,35.8,53.2c8.6,20.2,12.9,41.7,12.9,64.6
		C421.4,273.5,419,287.8,414.1,300z"/>
</g>
</svg>
