<svg width="226" height="60" viewBox="0 0 226 60" fill="none" xmlns="http://www.w3.org/2000/svg">
<path d="M31.0755 46.704C28.5582 46.704 26.2755 46.128 24.2275 44.976C22.2222 43.824 20.6435 42.2453 19.4915 40.24C18.3395 38.2347 17.7635 35.9307 17.7635 33.328V12.72C17.7635 11.952 17.5715 11.248 17.1875 10.608C16.8035 9.96801 16.2915 9.45601 15.6515 9.07201C15.0115 8.68801 14.3075 8.49601 13.5395 8.49601C12.7715 8.49601 12.0675 8.68801 11.4275 9.07201C10.8302 9.45601 10.3395 9.96801 9.95551 10.608C9.57151 11.248 9.37951 11.952 9.37951 12.72V46H0.227509V13.808C0.227509 11.3333 0.782175 9.09334 1.89151 7.08801C3.00084 5.08267 4.55818 3.48267 6.56351 2.28801C8.56884 1.05067 10.8942 0.432007 13.5395 0.432007C16.2275 0.432007 18.5742 1.05067 20.5795 2.28801C22.5848 3.48267 24.1422 5.08267 25.2515 7.08801C26.3608 9.09334 26.9155 11.3333 26.9155 13.808V34.416C26.9155 35.184 27.1075 35.888 27.4915 36.528C27.8755 37.168 28.3662 37.68 28.9635 38.064C29.6035 38.448 30.3075 38.64 31.0755 38.64C31.8435 38.64 32.5475 38.448 33.1875 38.064C33.8275 37.68 34.3395 37.168 34.7235 36.528C35.1075 35.888 35.2995 35.184 35.2995 34.416V13.808C35.2995 11.3333 35.8542 9.09334 36.9635 7.08801C38.0728 5.08267 39.6302 3.48267 41.6355 2.28801C43.6835 1.05067 46.0302 0.432007 48.6755 0.432007C51.3635 0.432007 53.6888 1.05067 55.6515 2.28801C57.6568 3.48267 59.2142 5.08267 60.3235 7.08801C61.4328 9.09334 61.9875 11.3333 61.9875 13.808V46H52.8355V12.72C52.8355 11.952 52.6435 11.248 52.2595 10.608C51.9182 9.96801 51.4275 9.45601 50.7875 9.07201C50.1475 8.68801 49.4435 8.49601 48.6755 8.49601C47.9075 8.49601 47.2035 8.68801 46.5635 9.07201C45.9235 9.45601 45.4115 9.96801 45.0275 10.608C44.6435 11.248 44.4515 11.952 44.4515 12.72V33.328C44.4515 35.9307 43.8542 38.2347 42.6595 40.24C41.5075 42.2453 39.9288 43.824 37.9235 44.976C35.9182 46.128 33.6355 46.704 31.0755 46.704Z" fill="#FFFFB6"/>
<path d="M82.849 46.768C79.8623 46.768 77.2597 46 75.041 44.464C72.8223 42.928 71.0943 40.88 69.857 38.32C68.6623 35.7173 68.065 32.8587 68.065 29.744C68.065 26.544 68.7477 23.6427 70.113 21.04C71.521 18.4373 73.5263 16.3893 76.129 14.896C78.7317 13.36 81.8463 12.592 85.473 12.592C89.1423 12.592 92.2357 13.36 94.753 14.896C97.2703 16.432 99.1903 18.5013 100.513 21.104C101.836 23.7067 102.497 26.5867 102.497 29.744V46H93.729V40.56H93.601C92.961 41.712 92.1503 42.7573 91.169 43.696C90.2303 44.6347 89.0783 45.3813 87.713 45.936C86.3477 46.4907 84.7263 46.768 82.849 46.768ZM85.345 39.28C87.0517 39.28 88.5237 38.8533 89.761 38C90.9983 37.1467 91.937 35.9947 92.577 34.544C93.2597 33.0507 93.601 31.408 93.601 29.616C93.601 27.824 93.2597 26.224 92.577 24.816C91.937 23.3653 90.9983 22.2133 89.761 21.36C88.5237 20.5067 87.0517 20.08 85.345 20.08C83.5957 20.08 82.081 20.5067 80.801 21.36C79.5637 22.2133 78.6037 23.3653 77.921 24.816C77.281 26.224 76.961 27.824 76.961 29.616C76.961 31.408 77.281 33.0507 77.921 34.544C78.6037 35.9947 79.5637 37.1467 80.801 38C82.081 38.8533 83.5957 39.28 85.345 39.28Z" fill="#FFFFB6"/>
<path d="M109.518 46V13.36H118.35V46H109.518ZM125.966 23.088C124.515 23.088 123.278 22.576 122.254 21.552C121.23 20.528 120.718 19.2907 120.718 17.84C120.718 16.3893 121.23 15.152 122.254 14.128C123.278 13.104 124.515 12.592 125.966 12.592C127.416 12.592 128.654 13.104 129.678 14.128C130.702 15.152 131.214 16.3893 131.214 17.84C131.214 19.2907 130.702 20.528 129.678 21.552C128.654 22.576 127.416 23.088 125.966 23.088Z" fill="#FFFFB6"/>
<path d="M156.834 59.952C154.658 59.952 152.781 59.5253 151.202 58.672C149.623 57.8187 148.407 56.5813 147.554 54.96C146.701 53.3813 146.274 51.504 146.274 49.328C146.274 48.7733 146.295 48.1973 146.338 47.6C146.381 47.0027 146.487 46.4053 146.658 45.808C143.927 45.3387 141.559 44.3787 139.554 42.928C137.591 41.4347 136.077 39.5573 135.01 37.296C133.943 34.992 133.41 32.368 133.41 29.424C133.41 27.0347 133.794 24.8373 134.562 22.832C135.33 20.784 136.439 18.992 137.89 17.456C139.341 15.92 141.133 14.7253 143.266 13.872C145.442 13.0187 147.895 12.592 150.626 12.592C154.167 12.592 157.218 13.2747 159.778 14.64C162.338 16.0053 164.322 17.9893 165.73 20.592C167.138 23.1947 167.842 26.352 167.842 30.064V47.984C167.842 50.4587 167.415 52.592 166.562 54.384C165.709 56.176 164.45 57.5413 162.786 58.48C161.165 59.4613 159.181 59.952 156.834 59.952ZM156.77 52.592C157.709 52.592 158.327 52.272 158.626 51.632C158.925 51.0347 159.074 50.2027 159.074 49.136V38.128C157.453 39.7067 156.322 41.2427 155.682 42.736C155.042 44.2293 154.679 45.5093 154.594 46.576C154.509 47.6853 154.466 48.4533 154.466 48.88C154.466 49.648 154.573 50.3093 154.786 50.864C154.999 51.4187 155.277 51.8453 155.618 52.144C155.959 52.4427 156.343 52.592 156.77 52.592ZM149.858 38.832C150.839 37.4667 152.077 36.1013 153.57 34.736C155.106 33.3707 156.941 32.0907 159.074 30.896V29.68C159.074 27.5893 158.733 25.84 158.05 24.432C157.367 23.024 156.386 21.9573 155.106 21.232C153.869 20.464 152.375 20.08 150.626 20.08C148.919 20.08 147.426 20.5067 146.146 21.36C144.909 22.1707 143.949 23.28 143.266 24.688C142.626 26.096 142.306 27.6747 142.306 29.424C142.306 31.0027 142.605 32.4747 143.202 33.84C143.799 35.2053 144.653 36.336 145.762 37.232C146.914 38.0853 148.279 38.6187 149.858 38.832Z" fill="#FFFFB6"/>
<path d="M190.87 46.768C187.499 46.768 184.491 46.0427 181.846 44.592C179.201 43.0987 177.11 41.0933 175.574 38.576C174.038 36.0587 173.27 33.2213 173.27 30.064C173.27 26.9493 174.038 24.1333 175.574 21.616C177.11 19.0987 179.201 17.0933 181.846 15.6C184.491 14.1067 187.499 13.36 190.87 13.36H212.31V20.848H205.654C206.55 22.1707 207.233 23.6213 207.702 25.2C208.214 26.736 208.47 28.3573 208.47 30.064C208.47 33.2213 207.702 36.0587 206.166 38.576C204.63 41.0933 202.539 43.0987 199.894 44.592C197.249 46.0427 194.241 46.768 190.87 46.768ZM190.87 39.28C192.662 39.28 194.198 38.8747 195.478 38.064C196.801 37.2533 197.803 36.1653 198.486 34.8C199.211 33.392 199.574 31.8133 199.574 30.064C199.574 28.3573 199.211 26.8 198.486 25.392C197.803 23.984 196.801 22.8533 195.478 22C194.198 21.1467 192.662 20.72 190.87 20.72C189.078 20.72 187.521 21.1467 186.198 22C184.918 22.8533 183.915 23.984 183.19 25.392C182.507 26.8 182.166 28.3573 182.166 30.064C182.166 31.8133 182.507 33.392 183.19 34.8C183.915 36.1653 184.918 37.2533 186.198 38.064C187.521 38.8747 189.078 39.28 190.87 39.28Z" fill="#FFFFB6"/>
<path d="M219.512 46.768C217.891 46.768 216.483 46.192 215.288 45.04C214.136 43.8453 213.56 42.4373 213.56 40.816C213.56 39.1947 214.136 37.808 215.288 36.656C216.483 35.4613 217.891 34.864 219.512 34.864C221.133 34.864 222.52 35.4613 223.672 36.656C224.867 37.808 225.464 39.1947 225.464 40.816C225.464 41.8827 225.187 42.8853 224.632 43.824C224.12 44.72 223.416 45.4453 222.52 46C221.624 46.512 220.621 46.768 219.512 46.768Z" fill="#FFFFB6"/>
</svg>
