<svg width="159" height="142" viewBox="0 0 159 142" fill="none" xmlns="http://www.w3.org/2000/svg">
<path d="M145.833 116.667C149.043 116.668 152.13 117.905 154.453 120.12C156.776 122.335 158.158 125.36 158.313 128.566C158.467 131.772 157.382 134.915 155.282 137.343C153.182 139.771 150.228 141.299 147.033 141.608L145.833 141.667H12.5C9.28986 141.665 6.20338 140.429 3.88011 138.213C1.55685 135.998 0.1749 132.974 0.0206312 129.767C-0.133637 126.561 0.951598 123.418 3.05146 120.99C5.15133 118.562 8.10484 117.035 11.3 116.725L12.5 116.667H145.833ZM145.833 58.3333C149.149 58.3333 152.328 59.6503 154.672 61.9945C157.016 64.3387 158.333 67.5181 158.333 70.8333C158.333 74.1485 157.016 77.328 154.672 79.6722C152.328 82.0164 149.149 83.3333 145.833 83.3333H12.5C9.18479 83.3333 6.00537 82.0164 3.66117 79.6722C1.31696 77.328 0 74.1485 0 70.8333C0 67.5181 1.31696 64.3387 3.66117 61.9945C6.00537 59.6503 9.18479 58.3333 12.5 58.3333H145.833ZM145.833 0C149.149 0 152.328 1.31696 154.672 3.66117C157.016 6.00537 158.333 9.18479 158.333 12.5C158.333 15.8152 157.016 18.9946 154.672 21.3388C152.328 23.683 149.149 25 145.833 25H12.5C9.18479 25 6.00537 23.683 3.66117 21.3388C1.31696 18.9946 0 15.8152 0 12.5C0 9.18479 1.31696 6.00537 3.66117 3.66117C6.00537 1.31696 9.18479 0 12.5 0H145.833Z" fill="white"/>
</svg>
