<svg width="363" height="35" viewBox="0 0 363 35" fill="none" xmlns="http://www.w3.org/2000/svg">
<g filter="url(#filter0_d_38_1123)">
<path d="M17.7735 30.976C16.5362 30.976 15.4695 30.752 14.5735 30.304C13.6988 29.8773 13.0268 29.248 12.5575 28.416C12.1095 27.584 11.8855 26.6027 11.8855 25.472C11.8855 25.1947 11.8962 24.9067 11.9175 24.608C11.9388 24.3307 11.9708 24.0427 12.0135 23.744C10.2642 23.744 8.6855 23.456 7.2775 22.88C5.8695 22.2827 4.66417 21.472 3.6615 20.448C2.65884 19.4027 1.89084 18.1973 1.3575 16.832C0.82417 15.4667 0.557504 14.016 0.557504 12.48C0.557504 10.9227 0.82417 9.472 1.3575 8.128C1.89084 6.76267 2.65884 5.568 3.6615 4.544C4.66417 3.49867 5.8695 2.688 7.2775 2.112C8.6855 1.51467 10.2535 1.216 11.9815 1.216C13.7095 1.216 15.2775 1.504 16.6855 2.08C18.0935 2.63467 19.2988 3.424 20.3015 4.448C21.3042 5.45067 22.0722 6.61333 22.6055 7.936C23.1388 9.23733 23.4055 10.6453 23.4055 12.16V24.896C23.4055 26.0053 23.2028 27.0187 22.7975 27.936C22.3922 28.8747 21.7735 29.6107 20.9415 30.144C20.1095 30.6987 19.0535 30.976 17.7735 30.976ZM17.4855 26.88C17.9335 26.88 18.2642 26.6987 18.4775 26.336C18.7122 25.9947 18.8295 25.536 18.8295 24.96V19.328C18.1042 19.968 17.5495 20.5867 17.1655 21.184C16.8028 21.7813 16.5468 22.336 16.3975 22.848C16.2482 23.36 16.1628 23.7973 16.1415 24.16C16.1415 24.5227 16.1415 24.7893 16.1415 24.96C16.1415 25.3653 16.1948 25.7067 16.3015 25.984C16.4295 26.2827 16.6002 26.5067 16.8135 26.656C17.0268 26.8053 17.2508 26.88 17.4855 26.88ZM11.9815 19.712C12.2802 19.712 12.5682 19.7013 12.8455 19.68C13.1228 19.6373 13.4002 19.584 13.6775 19.52C14.0402 18.9653 14.4668 18.4107 14.9575 17.856C15.4482 17.3013 16.0135 16.7573 16.6535 16.224C17.2935 15.6907 18.0188 15.1787 18.8295 14.688V12.16C18.8295 11.1787 18.6588 10.272 18.3175 9.44C17.9762 8.58667 17.4962 7.85067 16.8775 7.232C16.2588 6.61333 15.5335 6.13333 14.7015 5.792C13.8695 5.42933 12.9628 5.248 11.9815 5.248C11.0002 5.248 10.0935 5.42933 9.2615 5.792C8.4295 6.15467 7.70417 6.66667 7.0855 7.328C6.46684 7.968 5.98684 8.736 5.6455 9.632C5.30417 10.5067 5.1335 11.456 5.1335 12.48C5.1335 13.504 5.30417 14.464 5.6455 15.36C5.98684 16.2347 6.46684 17.0027 7.0855 17.664C7.70417 18.304 8.4295 18.8053 9.2615 19.168C10.0935 19.5307 11.0002 19.712 11.9815 19.712ZM34.9238 24.384C33.2384 24.384 31.7344 24.0107 30.4118 23.264C29.0891 22.496 28.0438 21.472 27.2758 20.192C26.5078 18.8907 26.1238 17.44 26.1238 15.84C26.1238 14.24 26.5078 12.8 27.2758 11.52C28.0438 10.2187 29.0891 9.19467 30.4118 8.448C31.7344 7.68 33.2384 7.296 34.9238 7.296C36.6091 7.296 38.1131 7.68 39.4358 8.448C40.7584 9.19467 41.8038 10.2187 42.5718 11.52C43.3398 12.8 43.7238 14.24 43.7238 15.84C43.7238 17.44 43.3398 18.8907 42.5718 20.192C41.8038 21.472 40.7584 22.496 39.4358 23.264C38.1131 24.0107 36.6091 24.384 34.9238 24.384ZM34.9238 20.64C35.8198 20.64 36.5878 20.4267 37.2278 20C37.8891 19.5733 38.3904 18.9973 38.7318 18.272C39.0944 17.5467 39.2758 16.736 39.2758 15.84C39.2758 14.944 39.0944 14.1333 38.7318 13.408C38.3904 12.6827 37.8891 12.1067 37.2278 11.68C36.5878 11.2533 35.8198 11.04 34.9238 11.04C34.0278 11.04 33.2491 11.2533 32.5878 11.68C31.9478 12.1067 31.4464 12.6827 31.0838 13.408C30.7424 14.1333 30.5718 14.944 30.5718 15.84C30.5718 16.736 30.7424 17.5467 31.0838 18.272C31.4464 18.9973 31.9478 19.5733 32.5878 20C33.2491 20.4267 34.0278 20.64 34.9238 20.64ZM46.9275 24V14.624C46.9275 13.28 47.2368 12.0533 47.8555 10.944C48.4955 9.83467 49.4128 8.94933 50.6075 8.288C51.8022 7.62667 53.2315 7.296 54.8955 7.296C56.5808 7.296 58.0102 7.62667 59.1835 8.288C60.3782 8.94933 61.2848 9.83467 61.9035 10.944C62.5435 12.0533 62.8635 13.28 62.8635 14.624V24H58.4795V14.624C58.4795 13.9627 58.3195 13.3653 57.9995 12.832C57.6795 12.2773 57.2422 11.84 56.6875 11.52C56.1542 11.2 55.5568 11.04 54.8955 11.04C54.2342 11.04 53.6262 11.2 53.0715 11.52C52.5382 11.84 52.1115 12.2773 51.7915 12.832C51.4715 13.3653 51.3115 13.9627 51.3115 14.624V24H46.9275ZM69.9333 24C69.2079 24 68.5573 23.8187 67.9813 23.456C67.4053 23.0933 66.9359 22.6133 66.5733 22.016C66.2319 21.3973 66.0613 20.7147 66.0613 19.968C66.0613 19.2853 66.2319 18.656 66.5733 18.08C66.9359 17.504 67.3946 17.024 67.9493 16.64L74.6373 12.128C74.7226 12.0853 74.7759 12.032 74.7973 11.968C74.8186 11.904 74.8293 11.8507 74.8293 11.808C74.8293 11.7013 74.7866 11.616 74.7013 11.552C74.6373 11.4667 74.5519 11.424 74.4453 11.424H66.8613V7.68H75.7253C76.4506 7.68 77.1013 7.86133 77.6773 8.224C78.2533 8.58667 78.7119 9.07733 79.0533 9.696C79.4159 10.2933 79.5973 10.9653 79.5973 11.712C79.5973 12.3947 79.4159 13.024 79.0533 13.6C78.7119 14.176 78.2639 14.656 77.7093 15.04L71.0213 19.552C70.9573 19.5947 70.9039 19.648 70.8613 19.712C70.8399 19.776 70.8293 19.8293 70.8293 19.872C70.8293 19.9787 70.8613 20.0747 70.9253 20.16C71.0106 20.224 71.1066 20.256 71.2133 20.256H79.2453V24H69.9333ZM89.6408 24.384C88.1474 24.384 86.8461 24 85.7368 23.232C84.6274 22.464 83.7634 21.44 83.1448 20.16C82.5474 18.8587 82.2488 17.4293 82.2488 15.872C82.2488 14.272 82.5901 12.8213 83.2728 11.52C83.9768 10.2187 84.9794 9.19467 86.2808 8.448C87.5821 7.68 89.1394 7.296 90.9528 7.296C92.7874 7.296 94.3341 7.68 95.5928 8.448C96.8514 9.216 97.8114 10.2507 98.4728 11.552C99.1341 12.8533 99.4648 14.2933 99.4648 15.872V24H95.0808V21.28H95.0168C94.6968 21.856 94.2914 22.3787 93.8008 22.848C93.3314 23.3173 92.7554 23.6907 92.0728 23.968C91.3901 24.2453 90.5794 24.384 89.6408 24.384ZM90.8888 20.64C91.7421 20.64 92.4781 20.4267 93.0968 20C93.7154 19.5733 94.1848 18.9973 94.5048 18.272C94.8461 17.5253 95.0168 16.704 95.0168 15.808C95.0168 14.912 94.8461 14.112 94.5048 13.408C94.1848 12.6827 93.7154 12.1067 93.0968 11.68C92.4781 11.2533 91.7421 11.04 90.8888 11.04C90.0141 11.04 89.2568 11.2533 88.6168 11.68C87.9981 12.1067 87.5181 12.6827 87.1768 13.408C86.8568 14.112 86.6968 14.912 86.6968 15.808C86.6968 16.704 86.8568 17.5253 87.1768 18.272C87.5181 18.9973 87.9981 19.5733 88.6168 20C89.2568 20.4267 90.0141 20.64 90.8888 20.64ZM108.255 24C107.295 24 106.463 23.8187 105.759 23.456C105.076 23.072 104.543 22.5387 104.159 21.856C103.796 21.152 103.615 20.32 103.615 19.36V6.368C103.615 5.088 103.786 4 104.127 3.104C104.49 2.18667 105.055 1.48267 105.823 0.991999C106.612 0.501332 107.626 0.255999 108.863 0.255999C110.036 0.255999 111.028 0.469332 111.839 0.895998C112.671 1.32267 113.3 1.93067 113.727 2.72C114.175 3.50933 114.399 4.45867 114.399 5.568C114.399 6.42133 114.207 7.392 113.823 8.48C113.46 9.54667 112.82 10.624 111.903 11.712C110.986 12.8 109.684 13.824 107.999 14.784V19.232C107.999 19.5093 108.095 19.7547 108.287 19.968C108.5 20.16 108.746 20.256 109.023 20.256H112.575V24H108.255ZM107.999 11.168C108.831 10.3573 109.396 9.58933 109.695 8.864C110.015 8.13867 110.196 7.50933 110.239 6.976C110.282 6.44267 110.303 6.06933 110.303 5.856C110.303 5.216 110.186 4.72533 109.951 4.384C109.738 4.04267 109.471 3.872 109.151 3.872C108.852 3.872 108.618 3.94667 108.447 4.096C108.276 4.24533 108.159 4.45867 108.095 4.736C108.031 5.01333 107.999 5.344 107.999 5.728V11.168ZM124.885 24C123.093 24 121.451 23.712 119.957 23.136C118.464 22.5387 117.269 21.632 116.373 20.416C115.499 19.1787 115.061 17.6107 115.061 15.712C115.061 14.24 115.307 12.9707 115.797 11.904C116.288 10.8373 116.939 9.96267 117.749 9.28C118.581 8.59733 119.488 8.096 120.469 7.776C121.472 7.456 122.485 7.296 123.509 7.296C124.939 7.296 126.112 7.53067 127.029 8C127.947 8.46933 128.619 9.088 129.045 9.856C129.493 10.6027 129.717 11.4027 129.717 12.256C129.717 12.6827 129.664 13.12 129.557 13.568C129.451 14.016 129.269 14.464 129.013 14.912C128.779 15.3387 128.437 15.7653 127.989 16.192C127.541 16.5973 126.965 16.9707 126.261 17.312C125.579 17.632 124.747 17.9093 123.765 18.144C122.805 18.3787 121.675 18.5493 120.373 18.656C120.779 19.1893 121.323 19.5947 122.005 19.872C122.709 20.128 123.584 20.256 124.629 20.256H127.989V24H124.885ZM119.477 15.616C120.267 15.5307 120.96 15.424 121.557 15.296C122.155 15.168 122.667 15.0293 123.093 14.88C123.541 14.7093 123.904 14.5387 124.181 14.368C124.459 14.176 124.683 13.984 124.853 13.792C125.024 13.6 125.141 13.408 125.205 13.216C125.269 13.0027 125.301 12.8 125.301 12.608C125.301 12.2027 125.141 11.84 124.821 11.52C124.523 11.2 124.021 11.04 123.317 11.04C122.784 11.04 122.219 11.1893 121.621 11.488C121.024 11.7653 120.512 12.224 120.085 12.864C119.68 13.504 119.477 14.3467 119.477 15.392C119.477 15.4133 119.477 15.4453 119.477 15.488C119.477 15.5307 119.477 15.5733 119.477 15.616ZM142.848 26.72V25.024C142.848 24.7467 142.762 24.5013 142.592 24.288C142.421 24.096 142.208 24 141.952 24H136C135.274 24 134.624 23.8187 134.048 23.456C133.472 23.0933 133.002 22.6133 132.64 22.016C132.298 21.3973 132.128 20.7147 132.128 19.968C132.128 19.2853 132.298 18.656 132.64 18.08C133.002 17.504 133.461 17.024 134.016 16.64L140.704 12.128C140.789 12.0853 140.842 12.032 140.864 11.968C140.885 11.904 140.896 11.8507 140.896 11.808C140.896 11.7013 140.853 11.616 140.768 11.552C140.704 11.4667 140.618 11.424 140.512 11.424H132.928V7.68H141.792C142.517 7.68 143.168 7.86133 143.744 8.224C144.32 8.58667 144.778 9.07733 145.12 9.696C145.482 10.2933 145.664 10.9653 145.664 11.712C145.664 12.3947 145.482 13.024 145.12 13.6C144.778 14.176 144.33 14.656 143.776 15.04L137.088 19.552C137.024 19.5947 136.97 19.648 136.928 19.712C136.906 19.776 136.896 19.8293 136.896 19.872C136.896 19.9787 136.928 20.0747 136.992 20.16C137.077 20.224 137.173 20.256 137.28 20.256H141.952C143.402 20.256 144.533 20.672 145.344 21.504C146.176 22.3147 146.592 23.4453 146.592 24.896V26.72H142.848ZM176.844 24.352C175.585 24.352 174.444 24.064 173.42 23.488C172.417 22.912 171.628 22.1227 171.052 21.12C170.476 20.1173 170.188 18.9653 170.188 17.664V7.36C170.188 6.976 170.092 6.624 169.9 6.304C169.708 5.984 169.452 5.728 169.132 5.536C168.812 5.344 168.46 5.248 168.076 5.248C167.692 5.248 167.34 5.344 167.02 5.536C166.721 5.728 166.476 5.984 166.284 6.304C166.092 6.624 165.996 6.976 165.996 7.36V24H161.42V7.904C161.42 6.66667 161.697 5.54667 162.252 4.544C162.807 3.54133 163.585 2.74133 164.588 2.144C165.591 1.52533 166.753 1.216 168.076 1.216C169.42 1.216 170.593 1.52533 171.596 2.144C172.599 2.74133 173.377 3.54133 173.932 4.544C174.487 5.54667 174.764 6.66667 174.764 7.904V18.208C174.764 18.592 174.86 18.944 175.052 19.264C175.244 19.584 175.489 19.84 175.788 20.032C176.108 20.224 176.46 20.32 176.844 20.32C177.228 20.32 177.58 20.224 177.9 20.032C178.22 19.84 178.476 19.584 178.668 19.264C178.86 18.944 178.956 18.592 178.956 18.208V7.904C178.956 6.66667 179.233 5.54667 179.788 4.544C180.343 3.54133 181.121 2.74133 182.124 2.144C183.148 1.52533 184.321 1.216 185.644 1.216C186.988 1.216 188.151 1.52533 189.132 2.144C190.135 2.74133 190.913 3.54133 191.468 4.544C192.023 5.54667 192.3 6.66667 192.3 7.904V24H187.724V7.36C187.724 6.976 187.628 6.624 187.436 6.304C187.265 5.984 187.02 5.728 186.7 5.536C186.38 5.344 186.028 5.248 185.644 5.248C185.26 5.248 184.908 5.344 184.588 5.536C184.268 5.728 184.012 5.984 183.82 6.304C183.628 6.624 183.532 6.976 183.532 7.36V17.664C183.532 18.9653 183.233 20.1173 182.636 21.12C182.06 22.1227 181.271 22.912 180.268 23.488C179.265 24.064 178.124 24.352 176.844 24.352ZM202.731 24.384C201.237 24.384 199.936 24 198.827 23.232C197.717 22.464 196.853 21.44 196.235 20.16C195.637 18.8587 195.339 17.4293 195.339 15.872C195.339 14.272 195.68 12.8213 196.363 11.52C197.067 10.2187 198.069 9.19467 199.371 8.448C200.672 7.68 202.229 7.296 204.043 7.296C205.877 7.296 207.424 7.68 208.683 8.448C209.941 9.216 210.901 10.2507 211.563 11.552C212.224 12.8533 212.555 14.2933 212.555 15.872V24H208.171V21.28H208.107C207.787 21.856 207.381 22.3787 206.891 22.848C206.421 23.3173 205.845 23.6907 205.163 23.968C204.48 24.2453 203.669 24.384 202.731 24.384ZM203.979 20.64C204.832 20.64 205.568 20.4267 206.187 20C206.805 19.5733 207.275 18.9973 207.595 18.272C207.936 17.5253 208.107 16.704 208.107 15.808C208.107 14.912 207.936 14.112 207.595 13.408C207.275 12.6827 206.805 12.1067 206.187 11.68C205.568 11.2533 204.832 11.04 203.979 11.04C203.104 11.04 202.347 11.2533 201.707 11.68C201.088 12.1067 200.608 12.6827 200.267 13.408C199.947 14.112 199.787 14.912 199.787 15.808C199.787 16.704 199.947 17.5253 200.267 18.272C200.608 18.9973 201.088 19.5733 201.707 20C202.347 20.4267 203.104 20.64 203.979 20.64ZM216.545 24V12.32C216.545 10.8693 216.95 9.73867 217.761 8.928C218.593 8.096 219.734 7.68 221.185 7.68H225.697V11.424H221.953C221.676 11.424 221.43 11.52 221.217 11.712C221.025 11.904 220.929 12.1493 220.929 12.448V24H216.545ZM228.111 24V7.68H232.527V24H228.111ZM227.887 5.536L230.575 1.6H234.703L232.015 5.536H227.887ZM243.075 24.384C241.581 24.384 240.28 24 239.171 23.232C238.061 22.464 237.197 21.44 236.579 20.16C235.981 18.8587 235.683 17.4293 235.683 15.872C235.683 14.272 236.024 12.8213 236.707 11.52C237.411 10.2187 238.413 9.19467 239.715 8.448C241.016 7.68 242.573 7.296 244.387 7.296C246.221 7.296 247.768 7.68 249.027 8.448C250.285 9.216 251.245 10.2507 251.907 11.552C252.568 12.8533 252.899 14.2933 252.899 15.872V24H248.515V21.28H248.451C248.131 21.856 247.725 22.3787 247.235 22.848C246.765 23.3173 246.189 23.6907 245.507 23.968C244.824 24.2453 244.013 24.384 243.075 24.384ZM244.323 20.64C245.176 20.64 245.912 20.4267 246.531 20C247.149 19.5733 247.619 18.9973 247.939 18.272C248.28 17.5253 248.451 16.704 248.451 15.808C248.451 14.912 248.28 14.112 247.939 13.408C247.619 12.6827 247.149 12.1067 246.531 11.68C245.912 11.2533 245.176 11.04 244.323 11.04C243.448 11.04 242.691 11.2533 242.051 11.68C241.432 12.1067 240.952 12.6827 240.611 13.408C240.291 14.112 240.131 14.912 240.131 15.808C240.131 16.704 240.291 17.5253 240.611 18.272C240.952 18.9973 241.432 19.5733 242.051 20C242.691 20.4267 243.448 20.64 244.323 20.64ZM275.886 24C274.136 23.9573 272.558 23.648 271.15 23.072C269.742 22.4747 268.536 21.6747 267.534 20.672C266.531 19.648 265.752 18.464 265.198 17.12C264.664 15.776 264.398 14.336 264.398 12.8C264.398 11.264 264.664 9.824 265.198 8.48C265.752 7.136 266.531 5.96267 267.534 4.96C268.536 3.936 269.742 3.12533 271.15 2.528C272.558 1.93067 274.136 1.62133 275.886 1.6H279.374V5.632H275.982C274.958 5.65333 274.019 5.84533 273.166 6.208C272.312 6.57067 271.566 7.072 270.926 7.712C270.307 8.352 269.827 9.10933 269.486 9.984C269.144 10.8373 268.974 11.776 268.974 12.8C268.974 13.824 269.144 14.7733 269.486 15.648C269.827 16.5013 270.307 17.248 270.926 17.888C271.566 18.528 272.312 19.0293 273.166 19.392C274.019 19.7547 274.958 19.9467 275.982 19.968H279.374V24H275.886ZM291.6 24C289.808 24 288.166 23.712 286.672 23.136C285.179 22.5387 283.984 21.632 283.088 20.416C282.214 19.1787 281.776 17.6107 281.776 15.712C281.776 14.24 282.022 12.9707 282.512 11.904C283.003 10.8373 283.654 9.96267 284.464 9.28C285.296 8.59733 286.203 8.096 287.184 7.776C288.187 7.456 289.2 7.296 290.224 7.296C291.654 7.296 292.827 7.53067 293.744 8C294.662 8.46933 295.334 9.088 295.76 9.856C296.208 10.6027 296.432 11.4027 296.432 12.256C296.432 12.6827 296.379 13.12 296.272 13.568C296.166 14.016 295.984 14.464 295.728 14.912C295.494 15.3387 295.152 15.7653 294.704 16.192C294.256 16.5973 293.68 16.9707 292.976 17.312C292.294 17.632 291.462 17.9093 290.48 18.144C289.52 18.3787 288.39 18.5493 287.088 18.656C287.494 19.1893 288.038 19.5947 288.72 19.872C289.424 20.128 290.299 20.256 291.344 20.256H294.704V24H291.6ZM286.192 15.616C286.982 15.5307 287.675 15.424 288.272 15.296C288.87 15.168 289.382 15.0293 289.808 14.88C290.256 14.7093 290.619 14.5387 290.896 14.368C291.174 14.176 291.398 13.984 291.568 13.792C291.739 13.6 291.856 13.408 291.92 13.216C291.984 13.0027 292.016 12.8 292.016 12.608C292.016 12.2027 291.856 11.84 291.536 11.52C291.238 11.2 290.736 11.04 290.032 11.04C289.499 11.04 288.934 11.1893 288.336 11.488C287.739 11.7653 287.227 12.224 286.8 12.864C286.395 13.504 286.192 14.3467 286.192 15.392C286.192 15.4133 286.192 15.4453 286.192 15.488C286.192 15.5307 286.192 15.5733 286.192 15.616ZM307.483 24C305.797 24 304.293 23.6373 302.971 22.912C301.648 22.1867 300.603 21.216 299.835 20C299.067 18.7627 298.683 17.376 298.683 15.84C298.683 14.304 299.067 12.928 299.835 11.712C300.603 10.4747 301.648 9.49333 302.971 8.768C304.293 8.04267 305.797 7.68 307.483 7.68H309.531V11.424H307.483C306.587 11.424 305.808 11.616 305.147 12C304.507 12.384 304.005 12.9173 303.643 13.6C303.301 14.2613 303.131 15.008 303.131 15.84C303.131 16.672 303.301 17.4293 303.643 18.112C304.005 18.7733 304.507 19.296 305.147 19.68C305.808 20.064 306.587 20.256 307.483 20.256H309.531V24H307.483ZM312.58 24V7.68H316.996V24H312.58ZM314.788 5.728C314.041 5.728 313.391 5.46133 312.836 4.928C312.303 4.37333 312.036 3.72267 312.036 2.976C312.036 2.22933 312.303 1.58933 312.836 1.056C313.391 0.501333 314.041 0.223999 314.788 0.223999C315.535 0.223999 316.175 0.501333 316.708 1.056C317.263 1.58933 317.54 2.22933 317.54 2.976C317.54 3.72267 317.263 4.37333 316.708 4.928C316.175 5.46133 315.535 5.728 314.788 5.728ZM325.751 24C324.791 24 323.959 23.8187 323.255 23.456C322.573 23.072 322.039 22.5387 321.655 21.856C321.293 21.152 321.111 20.32 321.111 19.36V6.368C321.111 5.088 321.282 4 321.623 3.104C321.986 2.18667 322.551 1.48267 323.319 0.991999C324.109 0.501332 325.122 0.255999 326.359 0.255999C327.533 0.255999 328.525 0.469332 329.335 0.895998C330.167 1.32267 330.797 1.93067 331.223 2.72C331.671 3.50933 331.895 4.45867 331.895 5.568C331.895 6.42133 331.703 7.392 331.319 8.48C330.957 9.54667 330.317 10.624 329.399 11.712C328.482 12.8 327.181 13.824 325.495 14.784V19.232C325.495 19.5093 325.591 19.7547 325.783 19.968C325.997 20.16 326.242 20.256 326.519 20.256H330.071V24H325.751ZM325.495 11.168C326.327 10.3573 326.893 9.58933 327.191 8.864C327.511 8.13867 327.693 7.50933 327.735 6.976C327.778 6.44267 327.799 6.06933 327.799 5.856C327.799 5.216 327.682 4.72533 327.447 4.384C327.234 4.04267 326.967 3.872 326.647 3.872C326.349 3.872 326.114 3.94667 325.943 4.096C325.773 4.24533 325.655 4.45867 325.591 4.736C325.527 5.01333 325.495 5.344 325.495 5.728V11.168ZM334.143 24V7.68H338.559V24H334.143ZM336.351 5.728C335.604 5.728 334.953 5.46133 334.399 4.928C333.865 4.37333 333.599 3.72267 333.599 2.976C333.599 2.22933 333.865 1.58933 334.399 1.056C334.953 0.501333 335.604 0.223999 336.351 0.223999C337.097 0.223999 337.737 0.501333 338.271 1.056C338.825 1.58933 339.103 2.22933 339.103 2.976C339.103 3.72267 338.825 4.37333 338.271 4.928C337.737 5.46133 337.097 5.728 336.351 5.728ZM349.106 24.384C347.612 24.384 346.311 24 345.202 23.232C344.092 22.464 343.228 21.44 342.61 20.16C342.012 18.8587 341.714 17.4293 341.714 15.872C341.714 14.272 342.055 12.8213 342.738 11.52C343.442 10.2187 344.444 9.19467 345.746 8.448C347.047 7.68 348.604 7.296 350.418 7.296C352.252 7.296 353.799 7.68 355.058 8.448C356.316 9.216 357.276 10.2507 357.938 11.552C358.599 12.8533 358.93 14.2933 358.93 15.872V24H354.546V21.28H354.482C354.162 21.856 353.756 22.3787 353.266 22.848C352.796 23.3173 352.22 23.6907 351.538 23.968C350.855 24.2453 350.044 24.384 349.106 24.384ZM350.354 20.64C351.207 20.64 351.943 20.4267 352.562 20C353.18 19.5733 353.65 18.9973 353.97 18.272C354.311 17.5253 354.482 16.704 354.482 15.808C354.482 14.912 354.311 14.112 353.97 13.408C353.65 12.6827 353.18 12.1067 352.562 11.68C351.943 11.2533 351.207 11.04 350.354 11.04C349.479 11.04 348.722 11.2533 348.082 11.68C347.463 12.1067 346.983 12.6827 346.642 13.408C346.322 14.112 346.162 14.912 346.162 15.808C346.162 16.704 346.322 17.5253 346.642 18.272C346.983 18.9973 347.463 19.5733 348.082 20C348.722 20.4267 349.479 20.64 350.354 20.64Z" fill="#FFFFB6"/>
</g>
<defs>
<filter id="filter0_d_38_1123" x="0.557495" y="0.223999" width="362.372" height="34.752" filterUnits="userSpaceOnUse" color-interpolation-filters="sRGB">
<feFlood flood-opacity="0" result="BackgroundImageFix"/>
<feColorMatrix in="SourceAlpha" type="matrix" values="0 0 0 0 0 0 0 0 0 0 0 0 0 0 0 0 0 0 127 0" result="hardAlpha"/>
<feOffset dx="2" dy="2"/>
<feGaussianBlur stdDeviation="1"/>
<feComposite in2="hardAlpha" operator="out"/>
<feColorMatrix type="matrix" values="0 0 0 0 0 0 0 0 0 0 0 0 0 0 0 0 0 0 0.1 0"/>
<feBlend mode="normal" in2="BackgroundImageFix" result="effect1_dropShadow_38_1123"/>
<feBlend mode="normal" in="SourceGraphic" in2="effect1_dropShadow_38_1123" result="shape"/>
</filter>
</defs>
</svg>
