<svg width="362" height="35" viewBox="0 0 362 35" fill="none" xmlns="http://www.w3.org/2000/svg">
<g filter="url(#filter0_d_38_1122)">
<path d="M15.1488 30.496V24H11.9168C10.1674 23.9573 8.58875 23.648 7.18075 23.072C5.77275 22.4747 4.56742 21.6747 3.56475 20.672C2.56208 19.648 1.78342 18.464 1.22875 17.12C0.695417 15.776 0.42875 14.336 0.42875 12.8C0.42875 11.264 0.695417 9.824 1.22875 8.48C1.78342 7.136 2.56208 5.96267 3.56475 4.96C4.56742 3.936 5.77275 3.12533 7.18075 2.528C8.58875 1.93067 10.1674 1.62133 11.9168 1.6H18.9568V5.632H12.0128C10.9888 5.65333 10.0501 5.84533 9.19675 6.208C8.34342 6.57067 7.59675 7.072 6.95675 7.712C6.33808 8.352 5.85808 9.10933 5.51675 9.984C5.17542 10.8373 5.00475 11.776 5.00475 12.8C5.00475 14.1653 5.30342 15.392 5.90075 16.48C6.51942 17.5467 7.35142 18.3893 8.39675 19.008C9.46342 19.6267 10.6688 19.9467 12.0128 19.968H15.1488V15.072H11.2128V11.04H19.7248V30.496H15.1488ZM31.7325 24.384C30.0472 24.384 28.5432 24.0213 27.2205 23.296C25.8978 22.5493 24.8525 21.5467 24.0845 20.288C23.3165 19.0293 22.9325 17.6107 22.9325 16.032C22.9325 14.4747 23.3165 13.0667 24.0845 11.808C24.8525 10.5493 25.8978 9.54667 27.2205 8.8C28.5432 8.05333 30.0472 7.68 31.7325 7.68H42.4525V11.424H39.1245C39.5725 12.0853 39.9138 12.8107 40.1485 13.6C40.4045 14.368 40.5325 15.1787 40.5325 16.032C40.5325 17.6107 40.1485 19.0293 39.3805 20.288C38.6125 21.5467 37.5672 22.5493 36.2445 23.296C34.9218 24.0213 33.4178 24.384 31.7325 24.384ZM31.7325 20.64C32.6285 20.64 33.3965 20.4373 34.0365 20.032C34.6978 19.6267 35.1992 19.0827 35.5405 18.4C35.9032 17.696 36.0845 16.9067 36.0845 16.032C36.0845 15.1787 35.9032 14.4 35.5405 13.696C35.1992 12.992 34.6978 12.4267 34.0365 12C33.3965 11.5733 32.6285 11.36 31.7325 11.36C30.8365 11.36 30.0578 11.5733 29.3965 12C28.7565 12.4267 28.2552 12.992 27.8925 13.696C27.5512 14.4 27.3805 15.1787 27.3805 16.032C27.3805 16.9067 27.5512 17.696 27.8925 18.4C28.2552 19.0827 28.7565 19.6267 29.3965 20.032C30.0578 20.4373 30.8365 20.64 31.7325 20.64ZM44.5175 24V14.624C44.5175 13.28 44.8268 12.0533 45.4455 10.944C46.0855 9.83467 47.0028 8.94933 48.1975 8.288C49.3922 7.62667 50.8215 7.296 52.4855 7.296C54.1708 7.296 55.6002 7.62667 56.7735 8.288C57.9682 8.94933 58.8748 9.83467 59.4935 10.944C60.1335 12.0533 60.4535 13.28 60.4535 14.624V24H56.0695V14.624C56.0695 13.9627 55.9095 13.3653 55.5895 12.832C55.2695 12.2773 54.8322 11.84 54.2775 11.52C53.7442 11.2 53.1468 11.04 52.4855 11.04C51.8242 11.04 51.2162 11.2 50.6615 11.52C50.1282 11.84 49.7015 12.2773 49.3815 12.832C49.0615 13.3653 48.9015 13.9627 48.9015 14.624V24H44.5175ZM67.5233 24C66.7979 24 66.1473 23.8187 65.5713 23.456C64.9953 23.0933 64.5259 22.6133 64.1633 22.016C63.8219 21.3973 63.6513 20.7147 63.6513 19.968C63.6513 19.2853 63.8219 18.656 64.1633 18.08C64.5259 17.504 64.9846 17.024 65.5393 16.64L72.2273 12.128C72.3126 12.0853 72.3659 12.032 72.3873 11.968C72.4086 11.904 72.4193 11.8507 72.4193 11.808C72.4193 11.7013 72.3766 11.616 72.2913 11.552C72.2273 11.4667 72.1419 11.424 72.0353 11.424H64.4513V7.68H73.3153C74.0406 7.68 74.6913 7.86133 75.2673 8.224C75.8433 8.58667 76.3019 9.07733 76.6433 9.696C77.0059 10.2933 77.1873 10.9653 77.1873 11.712C77.1873 12.3947 77.0059 13.024 76.6433 13.6C76.3019 14.176 75.8539 14.656 75.2993 15.04L68.6113 19.552C68.5473 19.5947 68.4939 19.648 68.4513 19.712C68.4299 19.776 68.4193 19.8293 68.4193 19.872C68.4193 19.9787 68.4513 20.0747 68.5153 20.16C68.6006 20.224 68.6966 20.256 68.8033 20.256H76.8353V24H67.5233ZM87.2308 24.384C85.7374 24.384 84.4361 24 83.3268 23.232C82.2174 22.464 81.3534 21.44 80.7348 20.16C80.1374 18.8587 79.8388 17.4293 79.8388 15.872C79.8388 14.272 80.1801 12.8213 80.8628 11.52C81.5668 10.2187 82.5694 9.19467 83.8708 8.448C85.1721 7.68 86.7294 7.296 88.5428 7.296C90.3774 7.296 91.9241 7.68 93.1828 8.448C94.4414 9.216 95.4014 10.2507 96.0628 11.552C96.7241 12.8533 97.0548 14.2933 97.0548 15.872V24H92.6708V21.28H92.6068C92.2868 21.856 91.8814 22.3787 91.3908 22.848C90.9214 23.3173 90.3454 23.6907 89.6628 23.968C88.9801 24.2453 88.1694 24.384 87.2308 24.384ZM88.4788 20.64C89.3321 20.64 90.0681 20.4267 90.6868 20C91.3054 19.5733 91.7748 18.9973 92.0948 18.272C92.4361 17.5253 92.6068 16.704 92.6068 15.808C92.6068 14.912 92.4361 14.112 92.0948 13.408C91.7748 12.6827 91.3054 12.1067 90.6868 11.68C90.0681 11.2533 89.3321 11.04 88.4788 11.04C87.6041 11.04 86.8468 11.2533 86.2068 11.68C85.5881 12.1067 85.1081 12.6827 84.7668 13.408C84.4468 14.112 84.2868 14.912 84.2868 15.808C84.2868 16.704 84.4468 17.5253 84.7668 18.272C85.1081 18.9973 85.5881 19.5733 86.2068 20C86.8468 20.4267 87.6041 20.64 88.4788 20.64ZM105.845 24C104.394 24 103.253 23.584 102.421 22.752C101.61 21.92 101.205 20.7893 101.205 19.36V0.639999H105.589V19.232C105.589 19.5093 105.685 19.7547 105.877 19.968C106.09 20.16 106.336 20.256 106.613 20.256H107.605V24H105.845ZM117.898 24C116.042 24 114.42 23.648 113.034 22.944C111.668 22.2187 110.602 21.2373 109.834 20C109.087 18.7627 108.714 17.376 108.714 15.84C108.714 14.112 109.066 12.608 109.77 11.328C110.474 10.048 111.434 9.056 112.65 8.352C113.866 7.648 115.242 7.296 116.778 7.296C118.612 7.296 120.095 7.68 121.226 8.448C122.378 9.216 123.22 10.2507 123.754 11.552C124.287 12.832 124.554 14.2613 124.554 15.84C124.554 16.0533 124.543 16.3093 124.522 16.608C124.5 16.8853 124.468 17.0987 124.426 17.248H113.386C113.556 17.9093 113.844 18.464 114.25 18.912C114.676 19.36 115.199 19.7013 115.818 19.936C116.458 20.1493 117.172 20.256 117.962 20.256H122.506V24H117.898ZM113.354 14.304H120.17C120.127 13.8987 120.052 13.5253 119.946 13.184C119.839 12.8213 119.69 12.5013 119.498 12.224C119.306 11.9467 119.082 11.712 118.826 11.52C118.57 11.328 118.271 11.1787 117.93 11.072C117.588 10.9653 117.215 10.912 116.81 10.912C116.276 10.912 115.796 11.008 115.37 11.2C114.964 11.392 114.623 11.648 114.346 11.968C114.068 12.288 113.844 12.6507 113.674 13.056C113.524 13.4613 113.418 13.8773 113.354 14.304ZM130.555 24C129.829 24 129.179 23.8187 128.603 23.456C128.027 23.0933 127.557 22.6133 127.195 22.016C126.853 21.3973 126.683 20.7147 126.683 19.968C126.683 19.2853 126.853 18.656 127.195 18.08C127.557 17.504 128.016 17.024 128.571 16.64L135.259 12.128C135.344 12.0853 135.397 12.032 135.419 11.968C135.44 11.904 135.451 11.8507 135.451 11.808C135.451 11.7013 135.408 11.616 135.323 11.552C135.259 11.4667 135.173 11.424 135.067 11.424H127.483V7.68H136.347C137.072 7.68 137.723 7.86133 138.299 8.224C138.875 8.58667 139.333 9.07733 139.675 9.696C140.037 10.2933 140.219 10.9653 140.219 11.712C140.219 12.3947 140.037 13.024 139.675 13.6C139.333 14.176 138.885 14.656 138.331 15.04L131.643 19.552C131.579 19.5947 131.525 19.648 131.483 19.712C131.461 19.776 131.451 19.8293 131.451 19.872C131.451 19.9787 131.483 20.0747 131.547 20.16C131.632 20.224 131.728 20.256 131.835 20.256H139.867V24H130.555ZM143.254 29.024L144.918 24.16C144.278 23.9253 143.798 23.5413 143.478 23.008C143.179 22.4533 143.03 21.8987 143.03 21.344C143.03 20.5333 143.318 19.8507 143.894 19.296C144.491 18.72 145.195 18.432 146.006 18.432C146.923 18.432 147.649 18.7413 148.182 19.36C148.715 19.9787 148.982 20.704 148.982 21.536C148.982 22.112 148.929 22.6453 148.822 23.136C148.737 23.6053 148.577 24.16 148.342 24.8L146.902 29.024H143.254ZM160.639 24V7.904C160.639 6.66667 160.916 5.54667 161.471 4.544C162.025 3.54133 162.804 2.74133 163.807 2.144C164.809 1.52533 165.972 1.216 167.295 1.216C168.639 1.216 169.812 1.52533 170.815 2.144C171.817 2.74133 172.596 3.54133 173.151 4.544C173.705 5.54667 173.983 6.66667 173.983 7.904V16.128C173.983 16.512 174.079 16.864 174.271 17.184C174.463 17.504 174.708 17.76 175.007 17.952C175.327 18.144 175.679 18.24 176.063 18.24C176.447 18.24 176.799 18.144 177.119 17.952C177.439 17.76 177.695 17.504 177.887 17.184C178.079 16.864 178.175 16.512 178.175 16.128V7.904C178.175 6.66667 178.452 5.54667 179.007 4.544C179.561 3.54133 180.34 2.74133 181.343 2.144C182.367 1.52533 183.54 1.216 184.863 1.216C186.207 1.216 187.369 1.52533 188.351 2.144C189.353 2.74133 190.132 3.54133 190.687 4.544C191.241 5.54667 191.519 6.66667 191.519 7.904V24H186.943V7.36C186.943 6.976 186.847 6.624 186.655 6.304C186.484 5.984 186.239 5.728 185.919 5.536C185.599 5.344 185.247 5.248 184.863 5.248C184.479 5.248 184.127 5.344 183.807 5.536C183.487 5.728 183.231 5.984 183.039 6.304C182.847 6.624 182.751 6.976 182.751 7.36V15.584C182.751 16.8 182.473 17.92 181.919 18.944C181.364 19.9467 180.585 20.7573 179.583 21.376C178.58 21.9733 177.407 22.272 176.063 22.272C174.74 22.272 173.577 21.9733 172.575 21.376C171.572 20.7573 170.793 19.9467 170.239 18.944C169.684 17.92 169.407 16.8 169.407 15.584V7.36C169.407 6.976 169.311 6.624 169.119 6.304C168.927 5.984 168.671 5.728 168.351 5.536C168.031 5.344 167.679 5.248 167.295 5.248C166.911 5.248 166.559 5.344 166.239 5.536C165.94 5.728 165.695 5.984 165.503 6.304C165.311 6.624 165.215 6.976 165.215 7.36V24H160.639ZM201.95 24.384C200.456 24.384 199.155 24 198.046 23.232C196.936 22.464 196.072 21.44 195.454 20.16C194.856 18.8587 194.558 17.4293 194.558 15.872C194.558 14.272 194.899 12.8213 195.582 11.52C196.286 10.2187 197.288 9.19467 198.59 8.448C199.891 7.68 201.448 7.296 203.262 7.296C205.096 7.296 206.643 7.68 207.902 8.448C209.16 9.216 210.12 10.2507 210.782 11.552C211.443 12.8533 211.774 14.2933 211.774 15.872V24H207.39V21.28H207.326C207.006 21.856 206.6 22.3787 206.11 22.848C205.64 23.3173 205.064 23.6907 204.382 23.968C203.699 24.2453 202.888 24.384 201.95 24.384ZM203.198 20.64C204.051 20.64 204.787 20.4267 205.406 20C206.024 19.5733 206.494 18.9973 206.814 18.272C207.155 17.5253 207.326 16.704 207.326 15.808C207.326 14.912 207.155 14.112 206.814 13.408C206.494 12.6827 206.024 12.1067 205.406 11.68C204.787 11.2533 204.051 11.04 203.198 11.04C202.323 11.04 201.566 11.2533 200.926 11.68C200.307 12.1067 199.827 12.6827 199.486 13.408C199.166 14.112 199.006 14.912 199.006 15.808C199.006 16.704 199.166 17.5253 199.486 18.272C199.827 18.9973 200.307 19.5733 200.926 20C201.566 20.4267 202.323 20.64 203.198 20.64ZM215.924 24V7.68H220.34V24H215.924ZM224.148 12.544C223.422 12.544 222.804 12.288 222.292 11.776C221.78 11.264 221.524 10.6453 221.524 9.92C221.524 9.19467 221.78 8.576 222.292 8.064C222.804 7.552 223.422 7.296 224.148 7.296C224.873 7.296 225.492 7.552 226.004 8.064C226.516 8.576 226.772 9.19467 226.772 9.92C226.772 10.6453 226.516 11.264 226.004 11.776C225.492 12.288 224.873 12.544 224.148 12.544ZM233.47 24C232.019 24 230.878 23.584 230.046 22.752C229.235 21.92 228.83 20.7893 228.83 19.36V7.68H233.214V19.232C233.214 19.5093 233.31 19.7547 233.502 19.968C233.715 20.16 233.961 20.256 234.238 20.256H235.23V24H233.47ZM228.606 5.536L231.294 1.6H235.422L232.734 5.536H228.606ZM244.387 24.384C242.894 24.384 241.592 24 240.483 23.232C239.374 22.464 238.51 21.44 237.891 20.16C237.294 18.8587 236.995 17.4293 236.995 15.872C236.995 14.272 237.336 12.8213 238.019 11.52C238.723 10.2187 239.726 9.19467 241.027 8.448C242.328 7.68 243.886 7.296 245.699 7.296C247.534 7.296 249.08 7.68 250.339 8.448C251.598 9.216 252.558 10.2507 253.219 11.552C253.88 12.8533 254.211 14.2933 254.211 15.872V24H249.827V21.28H249.763C249.443 21.856 249.038 22.3787 248.547 22.848C248.078 23.3173 247.502 23.6907 246.819 23.968C246.136 24.2453 245.326 24.384 244.387 24.384ZM245.635 20.64C246.488 20.64 247.224 20.4267 247.843 20C248.462 19.5733 248.931 18.9973 249.251 18.272C249.592 17.5253 249.763 16.704 249.763 15.808C249.763 14.912 249.592 14.112 249.251 13.408C248.931 12.6827 248.462 12.1067 247.843 11.68C247.224 11.2533 246.488 11.04 245.635 11.04C244.76 11.04 244.003 11.2533 243.363 11.68C242.744 12.1067 242.264 12.6827 241.923 13.408C241.603 14.112 241.443 14.912 241.443 15.808C241.443 16.704 241.603 17.5253 241.923 18.272C242.264 18.9973 242.744 19.5733 243.363 20C244.003 20.4267 244.76 20.64 245.635 20.64ZM277.198 24C275.449 23.9573 273.87 23.648 272.462 23.072C271.054 22.4747 269.849 21.6747 268.846 20.672C267.843 19.648 267.065 18.464 266.51 17.12C265.977 15.776 265.71 14.336 265.71 12.8C265.71 11.264 265.977 9.824 266.51 8.48C267.065 7.136 267.843 5.96267 268.846 4.96C269.849 3.936 271.054 3.12533 272.462 2.528C273.87 1.93067 275.449 1.62133 277.198 1.6H280.686V5.632H277.294C276.27 5.65333 275.331 5.84533 274.478 6.208C273.625 6.57067 272.878 7.072 272.238 7.712C271.619 8.352 271.139 9.10933 270.798 9.984C270.457 10.8373 270.286 11.776 270.286 12.8C270.286 13.824 270.457 14.7733 270.798 15.648C271.139 16.5013 271.619 17.248 272.238 17.888C272.878 18.528 273.625 19.0293 274.478 19.392C275.331 19.7547 276.27 19.9467 277.294 19.968H280.686V24H277.198ZM292.273 24C290.417 24 288.795 23.648 287.409 22.944C286.043 22.2187 284.977 21.2373 284.209 20C283.462 18.7627 283.089 17.376 283.089 15.84C283.089 14.112 283.441 12.608 284.145 11.328C284.849 10.048 285.809 9.056 287.025 8.352C288.241 7.648 289.617 7.296 291.153 7.296C292.987 7.296 294.47 7.68 295.601 8.448C296.753 9.216 297.595 10.2507 298.129 11.552C298.662 12.832 298.929 14.2613 298.929 15.84C298.929 16.0533 298.918 16.3093 298.897 16.608C298.875 16.8853 298.843 17.0987 298.801 17.248H287.761C287.931 17.9093 288.219 18.464 288.625 18.912C289.051 19.36 289.574 19.7013 290.193 19.936C290.833 20.1493 291.547 20.256 292.337 20.256H296.881V24H292.273ZM287.729 14.304H294.545C294.502 13.8987 294.427 13.5253 294.321 13.184C294.214 12.8213 294.065 12.5013 293.873 12.224C293.681 11.9467 293.457 11.712 293.201 11.52C292.945 11.328 292.646 11.1787 292.305 11.072C291.963 10.9653 291.59 10.912 291.185 10.912C290.651 10.912 290.171 11.008 289.745 11.2C289.339 11.392 288.998 11.648 288.721 11.968C288.443 12.288 288.219 12.6507 288.049 13.056C287.899 13.4613 287.793 13.8773 287.729 14.304ZM309.858 24C308.172 24 306.668 23.6373 305.346 22.912C304.023 22.1867 302.978 21.216 302.21 20C301.442 18.7627 301.058 17.376 301.058 15.84C301.058 14.304 301.442 12.928 302.21 11.712C302.978 10.4747 304.023 9.49333 305.346 8.768C306.668 8.04267 308.172 7.68 309.858 7.68H311.906V11.424H309.858C308.962 11.424 308.183 11.616 307.522 12C306.882 12.384 306.38 12.9173 306.018 13.6C305.676 14.2613 305.506 15.008 305.506 15.84C305.506 16.672 305.676 17.4293 306.018 18.112C306.38 18.7733 306.882 19.296 307.522 19.68C308.183 20.064 308.962 20.256 309.858 20.256H311.906V24H309.858ZM317.131 5.6C316.427 5.6 315.808 5.344 315.275 4.832C314.763 4.32 314.507 3.70133 314.507 2.976C314.507 2.25067 314.763 1.632 315.275 1.12C315.808 0.586666 316.427 0.32 317.131 0.32C317.856 0.32 318.475 0.586666 318.987 1.12C319.52 1.632 319.787 2.25067 319.787 2.976C319.787 3.70133 319.52 4.32 318.987 4.832C318.475 5.344 317.856 5.6 317.131 5.6ZM319.595 24C318.144 24 317.003 23.584 316.171 22.752C315.36 21.92 314.955 20.7893 314.955 19.36V7.68H319.339V19.232C319.339 19.5093 319.435 19.7547 319.627 19.968C319.84 20.16 320.086 20.256 320.363 20.256H321.355V24H319.595ZM328.72 24C327.269 24 326.128 23.584 325.296 22.752C324.485 21.92 324.08 20.7893 324.08 19.36V0.639999H328.464V19.232C328.464 19.5093 328.56 19.7547 328.752 19.968C328.965 20.16 329.211 20.256 329.488 20.256H330.48V24H328.72ZM334.725 5.6C334.021 5.6 333.402 5.344 332.869 4.832C332.357 4.32 332.101 3.70133 332.101 2.976C332.101 2.25067 332.357 1.632 332.869 1.12C333.402 0.586666 334.021 0.32 334.725 0.32C335.45 0.32 336.069 0.586666 336.581 1.12C337.114 1.632 337.381 2.25067 337.381 2.976C337.381 3.70133 337.114 4.32 336.581 4.832C336.069 5.344 335.45 5.6 334.725 5.6ZM337.189 24C335.738 24 334.597 23.584 333.765 22.752C332.954 21.92 332.549 20.7893 332.549 19.36V7.68H336.933V19.232C336.933 19.5093 337.029 19.7547 337.221 19.968C337.434 20.16 337.679 20.256 337.957 20.256H338.949V24H337.189ZM348.106 24.384C346.612 24.384 345.311 24 344.202 23.232C343.092 22.464 342.228 21.44 341.61 20.16C341.012 18.8587 340.714 17.4293 340.714 15.872C340.714 14.272 341.055 12.8213 341.738 11.52C342.442 10.2187 343.444 9.19467 344.746 8.448C346.047 7.68 347.604 7.296 349.418 7.296C351.252 7.296 352.799 7.68 354.058 8.448C355.316 9.216 356.276 10.2507 356.938 11.552C357.599 12.8533 357.93 14.2933 357.93 15.872V24H353.546V21.28H353.482C353.162 21.856 352.756 22.3787 352.266 22.848C351.796 23.3173 351.22 23.6907 350.538 23.968C349.855 24.2453 349.044 24.384 348.106 24.384ZM349.354 20.64C350.207 20.64 350.943 20.4267 351.562 20C352.18 19.5733 352.65 18.9973 352.97 18.272C353.311 17.5253 353.482 16.704 353.482 15.808C353.482 14.912 353.311 14.112 352.97 13.408C352.65 12.6827 352.18 12.1067 351.562 11.68C350.943 11.2533 350.207 11.04 349.354 11.04C348.479 11.04 347.722 11.2533 347.082 11.68C346.463 12.1067 345.983 12.6827 345.642 13.408C345.322 14.112 345.162 14.912 345.162 15.808C345.162 16.704 345.322 17.5253 345.642 18.272C345.983 18.9973 346.463 19.5733 347.082 20C347.722 20.4267 348.479 20.64 349.354 20.64Z" fill="#FFFFB6"/>
</g>
<defs>
<filter id="filter0_d_38_1122" x="0.428711" y="0.32" width="361.501" height="34.176" filterUnits="userSpaceOnUse" color-interpolation-filters="sRGB">
<feFlood flood-opacity="0" result="BackgroundImageFix"/>
<feColorMatrix in="SourceAlpha" type="matrix" values="0 0 0 0 0 0 0 0 0 0 0 0 0 0 0 0 0 0 127 0" result="hardAlpha"/>
<feOffset dx="2" dy="2"/>
<feGaussianBlur stdDeviation="1"/>
<feComposite in2="hardAlpha" operator="out"/>
<feColorMatrix type="matrix" values="0 0 0 0 0 0 0 0 0 0 0 0 0 0 0 0 0 0 0.1 0"/>
<feBlend mode="normal" in2="BackgroundImageFix" result="effect1_dropShadow_38_1122"/>
<feBlend mode="normal" in="SourceGraphic" in2="effect1_dropShadow_38_1122" result="shape"/>
</filter>
</defs>
</svg>
