<svg width="470" height="512" viewBox="0 0 470 512" fill="none" xmlns="http://www.w3.org/2000/svg">
<path d="M469.667 256C469.667 239.026 462.924 222.747 450.922 210.745C438.919 198.743 422.641 192 405.667 192H384.333V128H0.333313V448C0.333313 464.974 7.07615 481.253 19.0785 493.255C31.0808 505.257 47.3595 512 64.3333 512H320.333C337.307 512 353.586 505.257 365.588 493.255C377.59 481.253 384.333 464.974 384.333 448V405.333H469.667V256ZM341.667 448C341.667 453.658 339.419 459.084 335.418 463.085C331.418 467.086 325.991 469.333 320.333 469.333H64.3333C58.6754 469.333 53.2491 467.086 49.2484 463.085C45.2476 459.084 43 453.658 43 448V170.667H341.667V448ZM427 362.667H384.333V234.667H405.667C411.325 234.667 416.751 236.914 420.752 240.915C424.752 244.916 427 250.342 427 256V362.667ZM213.667 85.3333H171V0H213.667V85.3333ZM299 85.3333H256.333V0H299V85.3333ZM128.333 85.3333H85.6666V0H128.333V85.3333Z" fill="#22574A"/>
</svg>
