<?xml version="1.0" encoding="utf-8"?>
<!-- Generator: Adobe Illustrator 27.1.0, SVG Export Plug-In . SVG Version: 6.00 Build 0)  -->
<svg version="1.1" id="Capa_1" xmlns="http://www.w3.org/2000/svg" xmlns:xlink="http://www.w3.org/1999/xlink" x="0px" y="0px"
	 viewBox="0 0 200 200" style="enable-background:new 0 0 200 200;" xml:space="preserve">
<style type="text/css">
	.st0{fill-rule:evenodd;clip-rule:evenodd;fill:#22574A;}
</style>
<g id="Artboard">
	<path class="st0" d="M100,1C45.33,1,1,45.33,1,100s44.33,99,99,99s99-44.33,99-99S154.67,1,100,1z M145.89,68.33
		c-1.49,15.65-7.94,53.64-11.21,71.17c-1.39,7.42-4.12,9.91-6.76,10.15c-5.75,0.53-10.11-3.8-15.68-7.45
		c-8.71-5.71-13.64-9.26-22.09-14.84c-9.78-6.44-3.44-9.98,2.13-15.77c1.46-1.52,26.79-24.56,27.28-26.65
		c0.06-0.26,0.12-1.24-0.46-1.75c-0.59-0.51-1.44-0.34-2.05-0.2c-0.87,0.2-14.79,9.4-41.76,27.6c-3.95,2.71-7.53,4.03-10.74,3.97
		c-3.53-0.07-10.33-2-15.39-3.65c-6.2-2.01-11.13-3.09-10.7-6.5c0.22-1.78,2.67-3.61,7.36-5.47c28.86-12.57,48.11-20.86,57.73-24.87
		c27.5-11.43,33.21-13.42,36.94-13.49C145.14,60.52,146.27,64.37,145.89,68.33z"/>
</g>
</svg>
